<?xml version="1.0" encoding="UTF-8"?>
<svg id="_1_foreground" data-name="1_foreground" xmlns="http://www.w3.org/2000/svg" viewBox="0 0 2680.14 2010">
  <defs>
    <style>
      .cls-1 {
        fill: none;
      }

      .cls-2, .cls-3 {
        fill: #fff;
      }

      .cls-4 {
        fill: #231f20;
      }

      .cls-5 {
        fill: #0b319e;
      }

      .cls-3 {
        stroke: #fff;
        stroke-miterlimit: 10;
        stroke-width: 1.37px;
      }
    </style>
  </defs>
  <rect class="cls-4" y="1747.41" width="1361.32" height="262.59"/>
  <path class="cls-4" d="m2679.83,1725.96h-1353.88s3.86-119.6,1.93-117.67h19.29l-1.93-30.86h144.68l63.66-28.94,109.95,52.08h-28.94v32.79h13.5v-19.29h36.65v-59.8l150.46-3.86,71.37,30.86v32.79h34.72v-19.29h81.02l28.94,15.43v-50.15h-34.72l90.66-42.44,69.44,36.65h-27.01v115.74h38.58v-86.81h94.52l15.43,13.5,111.88-46.3,98.38,50.15h-32.79v42.44h19.29v-23.15h40.51v-65.59l32.79-9.65,98.38,5.79,13.66,10.51"/>
  <path class="cls-4" d="m.68,1725.96h1516.17s-3.86-119.6-1.93-117.67h-19.29s1.93-30.86,1.93-30.86h-59.8s-84.88,0-84.88,0l-63.66-28.94-109.95,52.08h28.94v32.79h-13.5v-19.29s-36.65,0-36.65,0v-59.8s-150.46-3.86-150.46-3.86l-71.37,30.86v32.79h-34.72v-19.29s-81.02,0-81.02,0l-28.94,15.43v-50.15h34.72s-90.66-42.44-90.66-42.44l-69.44,36.65h27.01v115.74h-38.58v-86.81s-94.52,0-94.52,0l-15.43,13.5-111.88-46.3-98.38,50.15h32.79v42.44h-19.29v-23.15s-40.51,0-40.51,0v-65.59s-32.79-9.65-32.79-9.65l-98.38,5.79-25.08,19.29h-54.01s0,48.23,0,48.23h-44.37v-25.08s-36.65,0-36.65,0l-16.07-1.37"/>
  <rect class="cls-3" x="156.48" y="1587.02" width="13.57" height="22.86" transform="translate(326.54 3196.9) rotate(-180)"/>
  <rect class="cls-3" x="20.9" y="1659.64" width="13.57" height="22.86" transform="translate(55.37 3342.14) rotate(-180)"/>
  <path class="cls-5" d="m523.47,1647.64c.53-1.52,1.07-3.04,1.6-4.56-3.39-.89-6.79-1.77-10.18-2.66.75-1.89-.49-4.31-2.47-4.8.77-1.34,1-2.98.6-4.47-.78.39-1.56.79-2.34,1.19,1.42-2.27,2.03-6.14.17-8.52-1.4-1.78-4.53-2.11-5.85-.27-.13-1.19-.95-2.29-2.06-2.75.92.38,1.69-5.66,1.62-6.26-1.29-.42-1.93.08-3.2.51-.67-.79-1.38-1.55-2.13-2.27-.51-.49-9.5,5.45-7.99,9.08-2.37.69-4.74,1.37-7.11,2.06-.59.17-1.2.36-1.64.78-.48.47-.67,1.15-.84,1.8-.63,2.38-1.26,4.77-1.88,7.15-1.89.11-3.77.21-5.66.32.22,1.26.49,2.52.8,3.76.5,2.01-6.39,15.71-1.29,14.44-3.44,1.55-4.14,7.02-1.19,9.38-1.75.76-3.57,1.59-4.75,3.09-1.17,1.5-1.43,3.91-.03,5.21-1.15-.1-2.88.73-2.16,1.64-2.64,2.09-4.05,5.64-3.54,8.97s2.9,6.31,6.05,7.51c-1.18.49-2.42,1.02-3.16,2.06s-.71,2.74.39,3.37c-1.82-.15-3.63,1.24-3.97,3.03s.85,3.74,2.59,4.27c-.8.18-1.61.35-2.41.53-.77,2.79.98,6.03,3.73,6.91-3.59-2.54-5.93,17.76,4.29,20.97,3.29,1.03,6.84.09,10.29.03,4.59-.08,9.2,1.51,12.77,4.4,1.68,1.36,3.2,3.03,5.23,3.74,1.65.57,3.44.44,5.18.28,6.7-.65,13.34-1.81,19.86-3.47-2.23-.26-4.47-.51-6.7-.77,16.52,1.9,11.17-20.83,4.93-16.31,2.33.97,5.32-.18,6.39-2.47s.04-5.32-2.19-6.49c1.36-.24,2.48-1.46,2.61-2.83-1.17-.88-2.82-1.06-4.16-.46,2.25.06,4.44-1.58,5.03-3.75s-.48-4.69-2.45-5.78c1.22-.55,1.76-2.23,1.1-3.39s-2.37-1.56-3.47-.81c1.41-.25,2.98-.59,3.78-1.78.8-1.19-.13-3.33-1.51-2.95,3.98-3.19,4.47-9.85,1.01-13.58.17-1.02.33-2.04.5-3.06-.98.02-1.97.04-2.95.06,2.04-1.89,2.83-5.01,1.95-7.65-1.26-.08-2.51-.15-3.77-.23,1.01-1.78,1.75-3.73,2.17-5.73-1.02-.08-2.04-.15-3.05-.23,3.19-.25,3.99-5.72,1-6.87.16-.45.32-.9.47-1.35Z"/>
  <path class="cls-5" d="m341.27,1588.08c.53-1.52,1.07-3.04,1.6-4.56-3.39-.89-6.79-1.77-10.18-2.66.75-1.89-.49-4.31-2.47-4.8.77-1.34,1-2.98.6-4.47-.78.39-1.56.79-2.34,1.19,1.42-2.27,2.03-6.14.17-8.52-1.4-1.78-4.53-2.11-5.85-.27-.13-1.19-.95-2.29-2.06-2.75.92.38,1.69-5.66,1.62-6.26-1.29-.42-1.93.08-3.2.51-.67-.79-1.38-1.55-2.13-2.27-.51-.49-9.5,5.45-7.99,9.08-2.37.69-4.74,1.37-7.11,2.06-.59.17-1.2.36-1.64.78-.48.47-.67,1.15-.84,1.8-.63,2.38-1.26,4.77-1.88,7.15-1.89.11-3.77.21-5.66.32.22,1.26.49,2.52.8,3.76.5,2.01-6.39,15.71-1.29,14.44-3.44,1.55-4.14,7.02-1.19,9.38-1.75.76-3.57,1.59-4.75,3.09-1.17,1.5-1.43,3.91-.03,5.21-1.15-.1-2.88.73-2.16,1.64-2.64,2.09-4.05,5.64-3.54,8.97.51,3.33,2.9,6.31,6.05,7.51-1.18.49-2.42,1.02-3.16,2.06s-.71,2.74.39,3.37c-1.82-.15-3.63,1.24-3.97,3.03s.85,3.74,2.59,4.27c-.8.18-1.61.35-2.41.53-.77,2.79.98,6.03,3.73,6.91-3.59-2.54-5.93,17.76,4.29,20.97,3.29,1.03,6.84.09,10.29.03,4.59-.08,9.2,1.51,12.77,4.4,1.68,1.36,3.2,3.03,5.23,3.74,1.65.57,3.44.44,5.18.28,6.7-.65,13.34-1.81,19.86-3.47-2.23-.26-4.47-.51-6.7-.77,16.52,1.9,11.17-20.83,4.93-16.31,2.33.97,5.32-.18,6.39-2.47,1.07-2.28.04-5.32-2.19-6.49,1.36-.24,2.48-1.46,2.61-2.83-1.17-.88-2.82-1.06-4.16-.46,2.25.06,4.44-1.58,5.03-3.75s-.48-4.69-2.45-5.78c1.22-.55,1.76-2.23,1.1-3.39-.66-1.16-2.37-1.56-3.47-.81,1.41-.25,2.98-.59,3.78-1.78s-.13-3.33-1.51-2.95c3.98-3.19,4.47-9.85,1.01-13.58.17-1.02.33-2.04.5-3.06-.98.02-1.97.04-2.95.06,2.04-1.89,2.83-5.01,1.95-7.65-1.26-.08-2.51-.15-3.77-.23,1.01-1.78,1.75-3.73,2.17-5.73-1.02-.08-2.04-.15-3.05-.23,3.19-.25,3.99-5.72,1-6.87.16-.45.32-.9.47-1.35Z"/>
  <path class="cls-5" d="m576.03,1670.42c.53-1.52,1.07-3.04,1.6-4.56-3.39-.89-6.79-1.77-10.18-2.66.75-1.89-.49-4.31-2.47-4.8.77-1.34,1-2.98.6-4.47-.78.39-1.56.79-2.34,1.19,1.42-2.27,2.03-6.14.17-8.52-1.4-1.78-4.53-2.11-5.85-.27-.13-1.19-.95-2.29-2.06-2.75.92.38,1.69-5.66,1.62-6.26-1.29-.42-1.93.08-3.2.51-.67-.79-1.38-1.55-2.13-2.27-.51-.49-9.5,5.45-7.99,9.08-2.37.69-4.74,1.37-7.11,2.06-.59.17-1.2.36-1.64.78-.48.47-.67,1.15-.84,1.8-.63,2.38-1.26,4.77-1.88,7.15-1.89.11-3.77.21-5.66.32.22,1.26.49,2.52.8,3.76.5,2.01-6.39,15.71-1.29,14.44-3.44,1.55-4.14,7.02-1.19,9.38-1.75.76-3.57,1.59-4.75,3.09-1.17,1.5-1.43,3.91-.03,5.21-1.15-.1-2.88.73-2.16,1.64-2.64,2.09-4.05,5.64-3.54,8.97.51,3.33,2.9,6.31,6.05,7.51-1.18.49-2.42,1.02-3.16,2.06s-.71,2.74.39,3.37c-1.82-.15-3.63,1.24-3.97,3.03s.85,3.74,2.59,4.27c-.8.18-1.61.35-2.41.53-.77,2.79.98,6.03,3.73,6.91-3.59-2.54-5.93,17.76,4.29,20.97,3.29,1.03,6.84.09,10.29.03,4.59-.08,9.2,1.51,12.77,4.4,1.68,1.36,3.2,3.03,5.23,3.74,1.65.57,3.44.44,5.18.28,6.7-.65,13.34-1.81,19.86-3.47-2.23-.26-4.47-.51-6.7-.77,16.52,1.9,11.17-20.83,4.93-16.31,2.33.97,5.32-.18,6.39-2.47,1.07-2.28.04-5.32-2.19-6.49,1.36-.24,2.48-1.46,2.61-2.83-1.17-.88-2.82-1.06-4.16-.46,2.25.06,4.44-1.58,5.03-3.75.59-2.18-.48-4.69-2.45-5.78,1.22-.55,1.76-2.23,1.1-3.39s-2.37-1.56-3.47-.81c1.41-.25,2.98-.59,3.78-1.78s-.13-3.33-1.51-2.95c3.98-3.19,4.47-9.85,1.01-13.58.17-1.02.33-2.04.5-3.06-.98.02-1.97.04-2.95.06,2.04-1.89,2.83-5.01,1.95-7.65-1.26-.08-2.51-.15-3.77-.23,1.01-1.78,1.75-3.73,2.17-5.73-1.02-.08-2.04-.15-3.05-.23,3.19-.25,3.99-5.72,1-6.87.16-.45.32-.9.47-1.35Z"/>
  <path class="cls-5" d="m924.66,1635.38c.53-1.52,1.07-3.04,1.6-4.56-3.39-.89-6.79-1.77-10.18-2.66.75-1.89-.49-4.31-2.47-4.8.77-1.34,1-2.98.6-4.47-.78.39-1.56.79-2.34,1.19,1.42-2.27,2.03-6.14.17-8.52-1.4-1.78-4.53-2.11-5.85-.27-.13-1.19-.95-2.29-2.06-2.75.92.38,1.69-5.66,1.62-6.26-1.29-.42-1.93.08-3.2.51-.67-.79-1.38-1.55-2.13-2.27-.51-.49-9.5,5.45-7.99,9.08-2.37.69-4.74,1.37-7.11,2.06-.59.17-1.2.36-1.64.78-.48.47-.67,1.15-.84,1.8-.63,2.38-1.26,4.77-1.88,7.15-1.89.11-3.77.21-5.66.32.22,1.26.49,2.52.8,3.76.5,2.01-6.39,15.71-1.29,14.44-3.44,1.55-4.14,7.02-1.19,9.38-1.75.76-3.57,1.59-4.75,3.09-1.17,1.5-1.43,3.91-.03,5.21-1.15-.1-2.88.73-2.16,1.64-2.64,2.09-4.05,5.64-3.54,8.97.51,3.33,2.9,6.31,6.05,7.51-1.18.49-2.42,1.02-3.16,2.06s-.71,2.74.39,3.37c-1.82-.15-3.63,1.24-3.97,3.03-.34,1.79.85,3.74,2.59,4.27-.8.18-1.61.35-2.41.53-.77,2.79.98,6.03,3.73,6.91-3.59-2.54-5.93,17.76,4.29,20.97,3.29,1.03,6.84.09,10.29.03,4.59-.08,9.2,1.51,12.77,4.4,1.68,1.36,3.2,3.03,5.23,3.74,1.65.57,3.44.44,5.18.28,6.7-.65,13.34-1.81,19.86-3.47-2.23-.26-4.47-.51-6.7-.77,16.52,1.9,11.17-20.83,4.93-16.31,2.33.97,5.32-.18,6.39-2.47s.04-5.32-2.19-6.49c1.36-.24,2.48-1.46,2.61-2.83-1.17-.88-2.82-1.06-4.16-.46,2.25.06,4.44-1.58,5.03-3.75s-.48-4.69-2.45-5.78c1.22-.55,1.76-2.23,1.1-3.39s-2.37-1.56-3.47-.81c1.41-.25,2.98-.59,3.78-1.78.8-1.19-.13-3.33-1.51-2.95,3.98-3.19,4.47-9.85,1.01-13.58.17-1.02.33-2.04.5-3.06-.98.02-1.97.04-2.95.06,2.04-1.89,2.83-5.01,1.95-7.65-1.26-.08-2.51-.15-3.77-.23,1.01-1.78,1.75-3.73,2.17-5.73-1.02-.08-2.04-.15-3.05-.23,3.19-.25,3.99-5.72,1-6.87.16-.45.32-.9.47-1.35Z"/>
  <path class="cls-5" d="m1187.44,1665.16c.53-1.52,1.07-3.04,1.6-4.56-3.39-.89-6.79-1.77-10.18-2.66.75-1.89-.49-4.31-2.47-4.8.77-1.34,1-2.98.6-4.47-.78.39-1.56.79-2.34,1.19,1.42-2.27,2.03-6.14.17-8.52-1.4-1.78-4.53-2.11-5.85-.27-.13-1.19-.95-2.29-2.06-2.75.92.38,1.69-5.66,1.62-6.26-1.29-.42-1.93.08-3.2.51-.67-.79-1.38-1.55-2.13-2.27-.51-.49-9.5,5.45-7.99,9.08-2.37.69-4.74,1.37-7.11,2.06-.59.17-1.2.36-1.64.78-.48.47-.67,1.15-.84,1.8-.63,2.38-1.26,4.77-1.88,7.15-1.89.11-3.77.21-5.66.32.22,1.26.49,2.52.8,3.76.5,2.01-6.39,15.71-1.29,14.44-3.44,1.55-4.14,7.02-1.19,9.38-1.75.76-3.57,1.59-4.75,3.09-1.17,1.5-1.43,3.91-.03,5.21-1.15-.1-2.88.73-2.16,1.64-2.64,2.09-4.05,5.64-3.54,8.97.51,3.33,2.9,6.31,6.05,7.51-1.18.49-2.42,1.02-3.16,2.06-.74,1.04-.71,2.74.39,3.37-1.82-.15-3.63,1.24-3.97,3.03-.34,1.79.85,3.74,2.59,4.27-.8.18-1.61.35-2.41.53-.77,2.79.98,6.03,3.73,6.91-3.59-2.54-5.93,17.76,4.29,20.97,3.29,1.03,6.84.09,10.29.03,4.59-.08,9.2,1.51,12.77,4.4,1.68,1.36,3.2,3.03,5.23,3.74,1.65.57,3.44.44,5.18.28,6.7-.65,13.34-1.81,19.86-3.47-2.23-.26-4.47-.51-6.7-.77,16.52,1.9,11.17-20.83,4.93-16.31,2.33.97,5.32-.18,6.39-2.47s.04-5.32-2.19-6.49c1.36-.24,2.48-1.46,2.61-2.83-1.17-.88-2.82-1.06-4.16-.46,2.25.06,4.44-1.58,5.03-3.75s-.48-4.69-2.45-5.78c1.22-.55,1.76-2.23,1.1-3.39s-2.37-1.56-3.47-.81c1.41-.25,2.98-.59,3.78-1.78s-.13-3.33-1.51-2.95c3.98-3.19,4.47-9.85,1.01-13.58.17-1.02.33-2.04.5-3.06-.98.02-1.97.04-2.95.06,2.04-1.89,2.83-5.01,1.95-7.65-1.26-.08-2.51-.15-3.77-.23,1.01-1.78,1.75-3.73,2.17-5.73-1.02-.08-2.04-.15-3.05-.23,3.19-.25,3.99-5.72,1-6.87.16-.45.32-.9.47-1.35Z"/>
  <g>
    <path class="cls-4" d="m616.41,1734.87s.72-166.75,5.35-191.62"/>
    <path class="cls-4" d="m657.45,1500.55c.48,1.13-5.72.64-5.34.77,1.69.56,2.62,2.51,4.26,3.19.61.25,1.42.54,1.43,1.2.01.82-1.15,1-1.96.89-1.45-.19-3.79-1.35-5.08-.71.25.2.54.33.85.41.26,1.49,1.95,2.17,3.35,2.75s2.98,1.75,2.62,3.22c-1.32-1-2.85-1.7-4.47-2.04.06,1.53,1.45,2.6,2.57,3.64s2.16,2.67,1.4,3.99c-.88-.82-2.28-1.02-3.36-.5,2.14,2.68,3.34,6.09,3.33,9.52-2.16-1.69-3.81-4.02-4.68-6.61.17.77.34,1.54.5,2.32-.36-.02-.71-.03-1.07-.05-1.11.96-.29,2.72.27,4.08.93,2.27.82,4.94-.29,7.12-1.97-3.65-4.07-7.22-6.31-10.7,1.02,3.23,1.21,6.72.54,10.04-.54.03-1.08.05-1.63.08.1,1.43,0,2.88-.26,4.28-2.6-2.42-4.19-5.89-4.34-9.44-.04-.95-.5-2.32-1.4-1.99.2,4.34.4,8.68.61,13.01-.83-.72-2.21.03-2.63,1.05s-.31,2.17-.53,3.25-1.09,2.22-2.18,2.06c-.01-2.64-.52-5.28-1.47-7.74.01,1.14.02,2.28.03,3.42-1.07-.33-2.19-.48-3.31-.45.46,2.43.12,5.01-.96,7.24-1.76-1.08-1.74-3.59-1.6-5.64.14-2.06-.14-4.63-2.06-5.38-.16,2.84-.12,6.88-1.41,9.45-.65,1.3-1.92,2.38-3.37,2.4-.19,0-.4-.03-.51-.18-.09-.13-.07-.29-.05-.45.21-1.63.99-4.03.72-5.64-.06-.37-1.67-2.93-1.8-2.43-.61,2.18-1.22,4.36-1.83,6.54-.42-1.85-.84-3.71-1.27-5.56-.16-.71-.35-1.47-.9-1.95-.41-.36-.96-.5-1.4-.82-1.76-1.26-.87-4.11-1.83-6.05-.68,1.7-1.31,3.43-2.05,5.09-2.61-.76-2.87-3.57-1.75-5.79.7-1.38,1.74-2.6,2.2-4.07.49-1.57.27-3.29.76-4.85.63-2.03,2.42-3.8,2.14-5.91-.02-.18-.07-.37-.19-.51-.45-.48-1.18.17-1.52.73-2.25,3.84-5.37,7.09-8.46,10.3-.33-.05-.39-.5-.37-.83.16-2.23.45-4.44.87-6.63-.26-.22-.67-.04-.87.23s-.28.62-.46.9c-1.24,1.9-2.11-.66-2.95-.53.09-1.04.18-2.08.27-3.12-.81,1.13-1.87,2.08-3.09,2.75-.23-.53-.92-.79-1.44-.55,1.14-1.76,2.29-3.52,3.43-5.28-.58.68-1.15,1.35-1.73,2.03-.97-4.28,2.01-9.06,6.28-10.07,1.9-.45,4.25-.42,5.28-2.08-2.53-1.26-3.69,1.17-6.23.46-2.54-.71-1.94-1.77-2.64-2.88,1.44-.75,3.07-1.14,4.7-1.13-1.1-.94-2.98-.71-3.82.46,0-1.93,2.17-3.11,4.08-3.33,1.91-.22,3.97.06,5.67-.84-1.73-.49-5.78.72-5.7-1.05.08-1.77,7.05-.38,10.47-.42-.31-2.37-2.53-4.04-4.77-4.86-2.24-.82-4.68-1.09-6.83-2.13,2.58-2.64,7.44-2.49,9.84.31.69.81,1.26,1.83,2.26,2.19s2.41-.71,1.81-1.6c-2.27-1.95-4.32-4.14-6.11-6.53,2.1-.33,4.35.56,5.65,2.24-.04-1.47-.72-2.92-1.83-3.89,1.43.89,2.85,1.78,4.28,2.67.01-1,.02-2,.03-3,.76.71,1.53,1.42,2.29,2.13.45-1.26.9-2.52,1.36-3.79.58,1.2,1.38,2.29,2.34,3.22l.02-3.17c1.24,1.27,3.01,2.01,4.78,1.99.61-1.25,1.23-2.49,1.84-3.74.31,1.03.62,2.05.94,3.08-.45-1.09,1.24-2.06,2.24-1.43s1.21,1.99,1.08,3.16c.56-.49,1.25-.83,1.98-.97l.04,2.29c.12-.81.76-1.51,1.55-1.7.8,2.76,1.65,8.01,2.99,8.07s5.61-5.05,9.29-5.26c-1.57,4.1-4.25,7.78-7.67,10.54,2.06-.01,3.92-1.14,5.82-1.92s4.28-1.17,5.88.12c.12.82-.84,1.34-1.62,1.6-2.08.69-4.16,1.39-6.24,2.08,4.3-.2,12.78-.07,12.75,1.29s-7.13.33-9.5.41c-.55.02-3.3.07-3.5.14-.74.27-1.58.3-.1.83,1.57.56,3.2.68,4.85.68,0,0,5.72-.86,6.2.27Z"/>
  </g>
  <g>
    <path class="cls-4" d="m889.55,1526.6c.48,1.13-5.72.64-5.34.77,1.69.56,2.62,2.51,4.26,3.19.61.25,1.42.54,1.43,1.2.01.82-1.15,1-1.96.89-1.45-.19-3.79-1.35-5.08-.71.25.2.54.33.85.41.26,1.49,1.95,2.17,3.35,2.75s2.98,1.75,2.62,3.22c-1.32-1-2.85-1.7-4.47-2.04.06,1.53,1.45,2.6,2.57,3.64s2.16,2.67,1.4,3.99c-.88-.82-2.28-1.02-3.36-.5,2.14,2.68,3.34,6.09,3.33,9.52-2.16-1.69-3.81-4.02-4.68-6.61.17.77.34,1.54.5,2.32-.36-.02-.71-.03-1.07-.05-1.11.96-.29,2.72.27,4.08.93,2.27.82,4.94-.29,7.12-1.97-3.65-4.07-7.22-6.31-10.7,1.02,3.23,1.21,6.72.54,10.04-.54.03-1.08.05-1.63.08.1,1.43,0,2.88-.26,4.28-2.6-2.42-4.19-5.89-4.34-9.44-.04-.95-.5-2.32-1.4-1.99.2,4.34.4,8.68.61,13.01-.83-.72-2.21.03-2.63,1.05s-.31,2.17-.53,3.25-1.09,2.22-2.18,2.06c-.01-2.64-.52-5.28-1.47-7.74.01,1.14.02,2.28.03,3.42-1.07-.33-2.19-.48-3.31-.45.46,2.43.12,5.01-.96,7.24-1.76-1.08-1.74-3.59-1.6-5.64.14-2.06-.14-4.63-2.06-5.38-.16,2.84-.12,6.88-1.41,9.45-.65,1.3-1.92,2.38-3.37,2.4-.19,0-.4-.03-.51-.18-.09-.13-.07-.29-.05-.45.21-1.63.99-4.03.72-5.64-.06-.37-1.67-2.93-1.8-2.43-.61,2.18-1.22,4.36-1.83,6.54-.42-1.85-.84-3.71-1.27-5.56-.16-.71-.35-1.47-.9-1.95-.41-.36-.96-.5-1.4-.82-1.76-1.26-.87-4.11-1.83-6.05-.68,1.7-1.31,3.43-2.05,5.09-2.61-.76-2.87-3.57-1.75-5.79.7-1.38,1.74-2.6,2.2-4.07.49-1.57.27-3.29.76-4.85.63-2.03,2.42-3.8,2.14-5.91-.02-.18-.07-.37-.19-.51-.45-.48-1.18.17-1.52.73-2.25,3.84-5.37,7.09-8.46,10.3-.33-.05-.39-.5-.37-.83.16-2.23.45-4.44.87-6.63-.26-.22-.67-.04-.87.23s-.28.62-.46.9c-1.24,1.9-2.11-.66-2.95-.53.09-1.04.18-2.08.27-3.12-.81,1.13-1.87,2.08-3.09,2.75-.23-.53-.92-.79-1.44-.55,1.14-1.76,2.29-3.52,3.43-5.28-.58.68-1.15,1.35-1.73,2.03-.97-4.28,2.01-9.06,6.28-10.07,1.9-.45,4.25-.42,5.28-2.08-2.53-1.26-3.69,1.17-6.23.46-2.54-.71-1.94-1.77-2.64-2.88,1.44-.75,3.07-1.14,4.7-1.13-1.1-.94-2.98-.71-3.82.46,0-1.93,2.17-3.11,4.08-3.33s3.97.06,5.67-.84c-1.73-.49-5.78.72-5.7-1.05s7.05-.38,10.47-.42c-.31-2.37-2.53-4.04-4.77-4.86s-4.68-1.09-6.83-2.13c2.58-2.64,7.44-2.49,9.84.31.69.81,1.26,1.83,2.26,2.19s2.41-.71,1.81-1.6c-2.27-1.95-4.32-4.14-6.11-6.53,2.1-.33,4.35.56,5.65,2.24-.04-1.47-.72-2.92-1.83-3.89,1.43.89,2.85,1.78,4.28,2.67l.03-3,2.29,2.13c.45-1.26.9-2.52,1.36-3.79.58,1.2,1.38,2.29,2.34,3.22,0-1.06.01-2.12.02-3.17,1.24,1.27,3.01,2.01,4.78,1.99l1.84-3.74c.31,1.03.62,2.05.94,3.08-.45-1.09,1.24-2.06,2.24-1.43s1.21,1.99,1.08,3.16c.56-.49,1.25-.83,1.98-.97.01.76.03,1.53.04,2.29.12-.81.76-1.51,1.55-1.7.8,2.76,1.65,8.01,2.99,8.07s5.61-5.05,9.29-5.26c-1.57,4.1-4.25,7.78-7.67,10.54,2.06-.01,3.92-1.14,5.82-1.92,1.9-.78,4.28-1.17,5.88.12.12.82-.84,1.34-1.62,1.6-2.08.69-4.16,1.39-6.24,2.08,4.3-.2,12.78-.07,12.75,1.29s-7.13.33-9.5.41c-.55.02-3.3.07-3.5.14-.74.27-1.58.3-.1.83,1.57.56,3.2.68,4.85.68,0,0,5.72-.86,6.2.27Z"/>
    <path class="cls-4" d="m853.41,1746.29s.72-166.75,5.35-191.62"/>
  </g>
  <g>
    <path class="cls-4" d="m1209.29,1524.24c.48,1.13-5.72.64-5.34.77,1.69.56,2.62,2.51,4.26,3.19.61.25,1.42.54,1.43,1.2.01.82-1.15,1-1.96.89-1.45-.19-3.79-1.35-5.08-.71.25.2.54.33.85.41.26,1.49,1.95,2.17,3.35,2.75s2.98,1.75,2.62,3.22c-1.32-1-2.85-1.7-4.47-2.04.06,1.53,1.45,2.6,2.57,3.64s2.16,2.67,1.4,3.99c-.88-.82-2.28-1.02-3.36-.5,2.14,2.68,3.34,6.09,3.33,9.52-2.16-1.69-3.81-4.02-4.68-6.61.17.77.34,1.54.5,2.32-.36-.02-.71-.03-1.07-.05-1.11.96-.29,2.72.27,4.08.93,2.27.82,4.94-.29,7.12-1.97-3.65-4.07-7.22-6.31-10.7,1.02,3.23,1.21,6.72.54,10.04-.54.03-1.08.05-1.63.08.1,1.43,0,2.88-.26,4.28-2.6-2.42-4.19-5.89-4.34-9.44-.04-.95-.5-2.32-1.4-1.99.2,4.34.4,8.68.61,13.01-.83-.72-2.21.03-2.63,1.05s-.31,2.17-.53,3.25-1.09,2.22-2.18,2.06c-.01-2.64-.52-5.28-1.47-7.74.01,1.14.02,2.28.03,3.42-1.07-.33-2.19-.48-3.31-.45.46,2.43.12,5.01-.96,7.24-1.76-1.08-1.74-3.59-1.6-5.64.14-2.06-.14-4.63-2.06-5.38-.16,2.84-.12,6.88-1.41,9.45-.65,1.3-1.92,2.38-3.37,2.4-.19,0-.4-.03-.51-.18-.09-.13-.07-.29-.05-.45.21-1.63.99-4.03.72-5.64-.06-.37-1.67-2.93-1.8-2.43-.61,2.18-1.22,4.36-1.83,6.54-.42-1.85-.84-3.71-1.27-5.56-.16-.71-.35-1.47-.9-1.95-.41-.36-.96-.5-1.4-.82-1.76-1.26-.87-4.11-1.83-6.05-.68,1.7-1.31,3.43-2.05,5.09-2.61-.76-2.87-3.57-1.75-5.79.7-1.38,1.74-2.6,2.2-4.07.49-1.57.27-3.29.76-4.85.63-2.03,2.42-3.8,2.14-5.91-.02-.18-.07-.37-.19-.51-.45-.48-1.18.17-1.52.73-2.25,3.84-5.37,7.09-8.46,10.3-.33-.05-.39-.5-.37-.83.16-2.23.45-4.44.87-6.63-.26-.22-.67-.04-.87.23s-.28.62-.46.9c-1.24,1.9-2.11-.66-2.95-.53.09-1.04.18-2.08.27-3.12-.81,1.13-1.87,2.08-3.09,2.75-.23-.53-.92-.79-1.44-.55,1.14-1.76,2.29-3.52,3.43-5.28-.58.68-1.15,1.35-1.73,2.03-.97-4.28,2.01-9.06,6.28-10.07,1.9-.45,4.25-.42,5.28-2.08-2.53-1.26-3.69,1.17-6.23.46s-1.94-1.77-2.64-2.88c1.44-.75,3.07-1.14,4.7-1.13-1.1-.94-2.98-.71-3.82.46,0-1.93,2.17-3.11,4.08-3.33,1.91-.22,3.97.06,5.67-.84-1.73-.49-5.78.72-5.7-1.05s7.05-.38,10.47-.42c-.31-2.37-2.53-4.04-4.77-4.86s-4.68-1.09-6.83-2.13c2.58-2.64,7.44-2.49,9.84.31.69.81,1.26,1.83,2.26,2.19s2.41-.71,1.81-1.6c-2.27-1.95-4.32-4.14-6.11-6.53,2.1-.33,4.35.56,5.65,2.24-.04-1.47-.72-2.92-1.83-3.89,1.43.89,2.85,1.78,4.28,2.67l.03-3,2.29,2.13c.45-1.26.9-2.52,1.36-3.79.58,1.2,1.38,2.29,2.34,3.22,0-1.06.01-2.12.02-3.17,1.24,1.27,3.01,2.01,4.78,1.99l1.84-3.74c.31,1.03.62,2.05.94,3.08-.45-1.09,1.24-2.06,2.24-1.43s1.21,1.99,1.08,3.16c.56-.49,1.25-.83,1.98-.97.01.76.03,1.53.04,2.29.12-.81.76-1.51,1.55-1.7.8,2.76,1.65,8.01,2.99,8.07s5.61-5.05,9.29-5.26c-1.57,4.1-4.25,7.78-7.67,10.54,2.06-.01,3.92-1.14,5.82-1.92,1.9-.78,4.28-1.17,5.88.12.12.82-.84,1.34-1.62,1.6-2.08.69-4.16,1.39-6.24,2.08,4.3-.2,12.78-.07,12.75,1.29s-7.13.33-9.5.41c-.55.02-3.3.07-3.5.14-.74.27-1.58.3-.1.83,1.57.56,3.2.68,4.85.68,0,0,5.72-.86,6.2.27Z"/>
    <path class="cls-4" d="m1173.15,1743.92s.72-166.75,5.35-191.62"/>
  </g>
  <path class="cls-4" d="m1.28,1442.24c1.34.07,5.61-5.05,9.29-5.26-1.57,4.1-4.25,7.78-7.67,10.54,2.06-.01,3.92-1.14,5.82-1.92s4.28-1.17,5.88.12c.12.82-.84,1.34-1.62,1.6-2.08.69-4.16,1.39-6.24,2.08,4.3-.2,12.78-.07,12.75,1.29s-7.13.33-9.5.41c-.55.02-3.3.07-3.5.14-.74.27-1.58.3-.1.83,1.57.56,3.2.68,4.85.68,0,0,5.72-.86,6.2.27.48,1.13-5.72.64-5.34.77,1.69.56,2.62,2.51,4.26,3.19.61.25,1.42.54,1.43,1.2.01.82-1.15,1-1.96.89-1.45-.19-3.79-1.35-5.08-.71.25.2.54.33.85.41.26,1.49,1.95,2.17,3.35,2.75,1.4.57,2.98,1.75,2.62,3.22-1.32-1-2.85-1.7-4.47-2.04.06,1.53,1.45,2.6,2.57,3.64s2.16,2.67,1.4,3.99c-.88-.82-2.28-1.02-3.36-.5,2.14,2.68,3.34,6.09,3.33,9.52-2.16-1.69-3.81-4.02-4.68-6.61.17.77.34,1.54.5,2.32-.36-.02-.71-.03-1.07-.05-1.11.96-.29,2.72.27,4.08.93,2.27.82,4.94-.29,7.12-1.97-3.65-4.07-7.22-6.31-10.7,1.02,3.23,1.21,6.72.54,10.04-.54.03-1.08.05-1.63.08.1,1.43,0,2.88-.26,4.28-2.6-2.42-4.19-5.89-4.34-9.44"/>
  <g>
    <path class="cls-4" d="m56.06,1505.79c.48,1.13-5.72.64-5.34.77,1.69.56,2.62,2.51,4.26,3.19.61.25,1.42.54,1.43,1.2.01.82-1.15,1-1.96.89-1.45-.19-3.79-1.35-5.08-.71.25.2.54.33.85.41.26,1.49,1.95,2.17,3.35,2.75s2.98,1.75,2.62,3.22c-1.32-1-2.85-1.7-4.47-2.04.06,1.53,1.45,2.6,2.57,3.64s2.16,2.67,1.4,3.99c-.88-.82-2.28-1.02-3.36-.5,2.14,2.68,3.34,6.09,3.33,9.52-2.16-1.69-3.81-4.02-4.68-6.61.17.77.34,1.54.5,2.32-.36-.02-.71-.03-1.07-.05-1.11.96-.29,2.72.27,4.08.93,2.27.82,4.94-.29,7.12-1.97-3.65-4.07-7.22-6.31-10.7,1.02,3.23,1.21,6.72.54,10.04-.54.03-1.08.05-1.63.08.1,1.43,0,2.88-.26,4.28-2.6-2.42-4.19-5.89-4.34-9.44-.04-.95-.5-2.32-1.4-1.99.2,4.34.4,8.68.61,13.01-.83-.72-2.21.03-2.63,1.05s-.31,2.17-.53,3.25c-.23,1.08-1.09,2.22-2.18,2.06-.01-2.64-.52-5.28-1.47-7.74l.03,3.42c-1.07-.33-2.19-.48-3.31-.45.46,2.43.12,5.01-.96,7.24-1.76-1.08-1.74-3.59-1.6-5.64s-.14-4.63-2.06-5.38c-.16,2.84-.12,6.88-1.41,9.45-.65,1.3-1.92,2.38-3.37,2.4-.19,0-.4-.03-.51-.18-.09-.13-.07-.29-.05-.45.21-1.63.99-4.03.72-5.64-.06-.37-1.67-2.93-1.8-2.43-.61,2.18-1.22,4.36-1.83,6.54-.42-1.85-.84-3.71-1.27-5.56-.16-.71-.35-1.47-.9-1.95-.41-.36-.96-.5-1.4-.82-1.76-1.26-.87-4.11-1.83-6.05-.68,1.7-1.31,3.43-2.05,5.09-2.61-.76-2.87-3.57-1.75-5.79.7-1.38,1.74-2.6,2.2-4.07.49-1.57.27-3.29.76-4.85.63-2.03,2.42-3.8,2.14-5.91-.02-.18-.07-.37-.19-.51-.45-.48-1.18.17-1.52.73-2.25,3.84-5.37,7.09-8.46,10.3-.33-.05-.39-.5-.37-.83.16-2.23.45-4.44.87-6.63-.26-.22-.67-.04-.87.23s-.28.62-.46.9c-1.24,1.9-2.11-.66-2.95-.53.09-1.04.18-2.08.27-3.12-.81,1.13-1.87,2.08-3.09,2.75-.23-.53-.92-.79-1.44-.55,1.14-1.76,2.29-3.52,3.43-5.28-.58.68-1.15,1.35-1.73,2.03-.97-4.28,2.01-9.06,6.28-10.07,1.9-.45,4.25-.42,5.28-2.08-2.53-1.26-3.69,1.17-6.23.46-2.54-.71-1.94-1.77-2.64-2.88,1.44-.75,3.07-1.14,4.7-1.13-1.1-.94-2.98-.71-3.82.46,0-1.93,2.17-3.11,4.08-3.33s3.97.06,5.67-.84c-1.73-.49-5.78.72-5.7-1.05s7.05-.38,10.47-.42c-.31-2.37-2.53-4.04-4.77-4.86s-4.68-1.09-6.83-2.13c2.58-2.64,7.44-2.49,9.84.31.69.81,1.26,1.83,2.26,2.19s2.41-.71,1.81-1.6c-2.27-1.95-4.32-4.14-6.11-6.53,2.1-.33,4.35.56,5.65,2.24-.04-1.47-.72-2.92-1.83-3.89,1.43.89,2.85,1.78,4.28,2.67.01-1,.02-2,.03-3,.76.71,1.53,1.42,2.29,2.13.45-1.26.9-2.52,1.36-3.79.58,1.2,1.38,2.29,2.34,3.22,0-1.06.01-2.12.02-3.17,1.24,1.27,3.01,2.01,4.78,1.99l1.84-3.74c.31,1.03.62,2.05.94,3.08-.45-1.09,1.24-2.06,2.24-1.43.99.63,1.21,1.99,1.08,3.16.56-.49,1.25-.83,1.98-.97l.04,2.29c.12-.81.76-1.51,1.55-1.7.8,2.76,1.65,8.01,2.99,8.07s5.61-5.05,9.29-5.26c-1.57,4.1-4.25,7.78-7.67,10.54,2.06-.01,3.92-1.14,5.82-1.92,1.9-.78,4.28-1.17,5.88.12.12.82-.84,1.34-1.62,1.6-2.08.69-4.16,1.39-6.24,2.08,4.3-.2,12.78-.07,12.75,1.29s-7.13.33-9.5.41c-.55.02-3.3.07-3.5.14-.74.27-1.58.3-.1.83,1.57.56,3.2.68,4.85.68,0,0,5.72-.86,6.2.27Z"/>
    <path class="cls-4" d="m19.92,1725.48s.72-166.75,5.35-191.62"/>
  </g>
  <g>
    <g>
      <line class="cls-4" x1="301.23" y1="1692.07" x2="297.78" y2="1479.85"/>
      <rect class="cls-4" x="296.8" y="1479.83" width="5.4" height="212.25" transform="translate(-25.77 5.08) rotate(-.93)"/>
    </g>
    <path class="cls-4" d="m289.94,1476.81c1.27,3.34,4.7,5.74,8.28,5.78,3.57.04,7.06-2.28,8.4-5.6,1.08-2.68.81-5.68.74-8.57-.15-5.97.62-11.96,2.27-17.69,2.22,3.52,3.55,7.6,3.83,11.76,3.32-1.95,4.58-6.07,5.4-9.84,1.79-8.24,2.57-17.69-2.65-24.32,1.98-.28,3.92.99,5.01,2.66,1.1,1.67,1.53,3.67,1.93,5.63.85-.32,1.71-.64,2.56-.97.05,1.56.97,3.06,2.34,3.81-.52-1.44,1.29-2.84,2.8-2.56s2.61,1.54,3.59,2.72c2.02,2.45,4.04,4.89,6.06,7.34.31-4.89.63-9.78.94-14.68.32-4.93-.23-9.55-3.99-13.17-1.3-1.26-2.84-2.24-4.38-3.19-1.63-1-3.34-2.02-5.18-2.58-1.36-.4-3.22-.14-4.29-.87,3.35-2.21,7.75-2.95,11.71-2.82,2.74.1,5.53.75,7.78,2.32.3.21.67.45,1.01.32.59-.23.35-1.11,0-1.64-3.29-4.94-7.86-9.02-13.14-11.72-.03-1.17.17-2.48-.68-3.28-1.46,1.67-3.46,2.45-5.68,2.43-2.25-.01-4.46-.67-6.71-.78-3.25-.17-6.56.81-9.19,2.74,1.6-1.17,2.41-3.27,4.3-4.41s4.1-1.81,6.32-1.86,3.56.97,3.32-1.67c-.18-2.05-2.69-3.97-4.48-4.51-.8-.24-1.65-.33-2.48-.38-3.96-.24-8.63.33-11.9,2.8-2.16,1.63-1.86,2.33-4.59.91-2.35-1.22-4.61-2.67-6.9-4,1.11,1.82,2,3.99,2.16,6.12-1.3-2.12-2.93-3.52-5.02-4.86-.72-.46-1.45-.93-2.25-1.21-1.03-.37-2.15-.42-3.24-.47-2.44-.11-4.96-.21-7.24.65-1.21.45-2.31,1.16-3.49,1.7-1.42.65-4.29.79-5.01,2.17,3.03.58,6.08.76,8.99,1.93,3.06,1.23,5.88,3.47,7.03,6.56-.27-.73-6.37-.46-7.18-.39-2.15.2-5.07.81-6.73,2.28-1.21,1.08-2.43,2.16-3.64,3.23-.76.67-1.52,1.35-2.15,2.14-1.07,1.33-1.73,2.94-2.36,4.52-1.39,3.51-3.05,7.71-2.28,11.54,1.8-1.94,2.01-4.58,3.8-6.45,2.02-2.1,5.36-3,8.12-2-2.25.93-4.03,2.94-4.68,5.29-.59,2.13-.29,4.42-.78,6.57-.35,1.54-1.09,2.96-1.52,4.48-1.43,5.08.74,10.41,2.86,15.24-1.15-5.12,1-10.83,5.25-13.91,1.16-.84,2.89-1.45,3.92-.46-3.06,6.51-3.52,14.19-1.26,21.02.92-3.12,2.7-5.99,5.09-8.2-.56.92-.07,2.3.94,2.66-.39-2.44-.72-4.97-.03-7.34.69-2.37,2.67-4.54,5.13-4.66.57,6.03-.82,12.26.78,18.11.48,1.74,1.21,3.39,1.7,5.12,2.07,7.22-.12,15.06,1.42,22.41"/>
  </g>
  <g>
    <g>
      <line class="cls-4" x1="230.09" y1="1693.87" x2="226.65" y2="1481.65"/>
      <rect class="cls-4" x="225.67" y="1481.63" width="5.4" height="212.25" transform="translate(-25.81 3.93) rotate(-.93)"/>
    </g>
    <path class="cls-4" d="m218.8,1478.61c1.27,3.34,4.7,5.74,8.28,5.78s7.06-2.28,8.4-5.6c1.08-2.68.81-5.68.74-8.57-.15-5.97.62-11.96,2.27-17.69,2.22,3.52,3.55,7.6,3.83,11.76,3.32-1.95,4.58-6.07,5.4-9.84,1.79-8.24,2.57-17.69-2.65-24.32,1.98-.28,3.92.99,5.01,2.66,1.1,1.67,1.53,3.67,1.93,5.63.85-.32,1.71-.64,2.56-.97.05,1.56.97,3.06,2.34,3.81-.52-1.44,1.29-2.84,2.8-2.56s2.61,1.54,3.59,2.72c2.02,2.45,4.04,4.89,6.06,7.34.31-4.89.63-9.78.94-14.68.32-4.93-.23-9.55-3.99-13.17-1.3-1.26-2.84-2.24-4.38-3.19-1.63-1-3.34-2.02-5.18-2.58-1.36-.4-3.22-.14-4.29-.87,3.35-2.21,7.75-2.95,11.71-2.82,2.74.1,5.53.75,7.78,2.32.3.21.67.45,1.01.32.59-.23.35-1.11,0-1.64-3.29-4.94-7.86-9.02-13.14-11.72-.03-1.17.17-2.48-.68-3.28-1.46,1.67-3.46,2.45-5.68,2.43-2.25-.01-4.46-.67-6.71-.78-3.25-.17-6.56.81-9.19,2.74,1.6-1.17,2.41-3.27,4.3-4.41s4.1-1.81,6.32-1.86,3.56.97,3.32-1.67c-.18-2.05-2.69-3.97-4.48-4.51-.8-.24-1.65-.33-2.48-.38-3.96-.24-8.63.33-11.9,2.8-2.16,1.63-1.86,2.33-4.59.91-2.35-1.22-4.61-2.67-6.9-4,1.11,1.82,2,3.99,2.16,6.12-1.3-2.12-2.93-3.52-5.02-4.86-.72-.46-1.45-.93-2.25-1.21-1.03-.37-2.15-.42-3.24-.47-2.44-.11-4.96-.21-7.24.65-1.21.45-2.31,1.16-3.49,1.7-1.42.65-4.29.79-5.01,2.17,3.03.58,6.08.76,8.99,1.93,3.06,1.23,5.88,3.47,7.03,6.56-.27-.73-6.37-.46-7.18-.39-2.15.2-5.07.81-6.73,2.28-1.21,1.08-2.43,2.16-3.64,3.23-.76.67-1.52,1.35-2.15,2.14-1.07,1.33-1.73,2.94-2.36,4.52-1.39,3.51-3.05,7.71-2.28,11.54,1.8-1.94,2.01-4.58,3.8-6.45,2.02-2.1,5.36-3,8.12-2-2.25.93-4.03,2.94-4.68,5.29-.59,2.13-.29,4.42-.78,6.57-.35,1.54-1.09,2.96-1.52,4.48-1.43,5.08.74,10.41,2.86,15.24-1.15-5.12,1-10.83,5.25-13.91,1.16-.84,2.89-1.45,3.92-.46-3.06,6.51-3.52,14.19-1.26,21.02.92-3.12,2.7-5.99,5.09-8.2-.56.92-.07,2.3.94,2.66-.39-2.44-.72-4.97-.03-7.34s2.67-4.54,5.13-4.66c.57,6.03-.82,12.26.78,18.11.48,1.74,1.21,3.39,1.7,5.12,2.07,7.22-.12,15.06,1.42,22.41"/>
  </g>
  <path class="cls-5" d="m714.18,1772.77c-3-4.61-9.05-6.99-14.38-5.68,1.94-2.98,3.87-5.95,5.81-8.93-6.3-1.94-12.98-2.63-19.54-2.01,1.81-2.57-.5-6.39-3.53-7.25-3.03-.86-6.22.25-9.17,1.35,4.15-4.32,8.29-8.64,12.44-12.97,1.62-1.68,3.36-3.84,2.74-6.08-.55-1.99-2.71-3.02-4.67-3.69-7.57-2.59-15.68-3.57-23.65-2.85-.38-2.55.09-5.23,1.31-7.5-3.14-1.73-6.86-2.38-10.4-1.82,1.8-2.05,2.75-4.82,2.59-7.54-3.2-.41-6.41-.83-9.61-1.24,3.64-2.52-.22-8.7-4.64-9.03s-8.52,2.26-12.9,2.87c-4.95.69-12.65,1.42-11.46,6.28-7.17-4.77-18.61,1.03-19,9.63-4.64,2.53-10.33,1.07-15.61,1.34-5.28.26-11.5,4.38-9.96,9.43.26-1.81-2.29-3.25-3.7-2.1-.51,2.62-1.03,5.24-1.54,7.87-3.14-6.48-13.39-5.96-18.36-.76-4.97,5.2-6.07,12.88-6.93,20.03-4.86-3.12-12.25-1.03-14.76,4.18-2.51,5.21.46,12.28,5.93,14.14-2.66-.35-5.47.97-6.9,3.24,8.84,3.35,18.37,4.32,27.83,4.32l162.07-5.22Z"/>
  <path class="cls-5" d="m1188.64,1763.08c-3-4.61-9.05-6.99-14.38-5.68,1.94-2.98,3.87-5.95,5.81-8.93-6.3-1.94-12.98-2.63-19.54-2.01,1.81-2.57-.5-6.39-3.53-7.25s-6.22.25-9.17,1.35c4.15-4.32,8.29-8.64,12.44-12.97,1.62-1.68,3.36-3.84,2.74-6.08-.55-1.99-2.71-3.02-4.67-3.69-7.57-2.59-15.68-3.57-23.65-2.85-.38-2.55.09-5.23,1.31-7.5-3.14-1.73-6.86-2.38-10.4-1.82,1.8-2.05,2.75-4.82,2.59-7.54-3.2-.41-6.41-.83-9.61-1.24,3.64-2.52-.22-8.7-4.64-9.03-4.42-.33-8.52,2.26-12.9,2.87-4.95.69-12.65,1.42-11.46,6.28-7.17-4.77-18.61,1.03-19,9.63-4.64,2.53-10.33,1.07-15.61,1.34-5.28.26-11.5,4.38-9.96,9.43.26-1.81-2.29-3.25-3.7-2.1-.51,2.62-1.03,5.24-1.54,7.87-3.14-6.48-13.39-5.96-18.36-.76-4.97,5.2-6.07,12.88-6.93,20.03-4.86-3.12-12.25-1.03-14.76,4.18s.46,12.28,5.93,14.14c-2.66-.35-5.47.97-6.9,3.24,8.84,3.35,18.37,4.32,27.83,4.32l162.07-5.22Z"/>
  <path class="cls-5" d="m1087.03,1759.57c-3-4.61-9.05-6.99-14.38-5.68,1.94-2.98,3.87-5.95,5.81-8.93-6.3-1.94-12.98-2.63-19.54-2.01,1.81-2.57-.5-6.39-3.53-7.25-3.03-.86-6.22.25-9.17,1.35,4.15-4.32,8.29-8.64,12.44-12.97,1.62-1.68,3.36-3.84,2.74-6.08-.55-1.99-2.71-3.02-4.67-3.69-7.57-2.59-15.68-3.57-23.65-2.85-.38-2.55.09-5.23,1.31-7.5-3.14-1.73-6.86-2.38-10.4-1.82,1.8-2.05,2.75-4.82,2.59-7.54-3.2-.41-6.41-.83-9.61-1.24,3.64-2.52-.22-8.7-4.64-9.03-4.42-.33-8.52,2.26-12.9,2.87-4.95.69-12.65,1.42-11.46,6.28-7.17-4.77-18.61,1.03-19,9.63-4.64,2.53-10.33,1.07-15.61,1.34s-11.5,4.38-9.96,9.43c.26-1.81-2.29-3.25-3.7-2.1-.51,2.62-1.03,5.24-1.54,7.87-3.14-6.48-13.39-5.96-18.36-.76-4.97,5.2-6.07,12.88-6.93,20.03-4.86-3.12-12.25-1.03-14.76,4.18-2.51,5.21.46,12.28,5.93,14.14-2.66-.35-5.47.97-6.9,3.24,8.84,3.35,18.37,4.32,27.83,4.32l162.07-5.22Z"/>
  <path class="cls-5" d="m913.59,1759.57c-3-4.61-9.05-6.99-14.38-5.68,1.94-2.98,3.87-5.95,5.81-8.93-6.3-1.94-12.98-2.63-19.54-2.01,1.81-2.57-.5-6.39-3.53-7.25-3.03-.86-6.22.25-9.17,1.35,4.15-4.32,8.29-8.64,12.44-12.97,1.62-1.68,3.36-3.84,2.74-6.08-.55-1.99-2.71-3.02-4.67-3.69-7.57-2.59-15.68-3.57-23.65-2.85-.38-2.55.09-5.23,1.31-7.5-3.14-1.73-6.86-2.38-10.4-1.82,1.8-2.05,2.75-4.82,2.59-7.54-3.2-.41-6.41-.83-9.61-1.24,3.64-2.52-.22-8.7-4.64-9.03s-8.52,2.26-12.9,2.87c-4.95.69-12.65,1.42-11.46,6.28-7.17-4.77-18.61,1.03-19,9.63-4.64,2.53-10.33,1.07-15.61,1.34-5.28.26-11.5,4.38-9.96,9.43.26-1.81-2.29-3.25-3.7-2.1-.51,2.62-1.03,5.24-1.54,7.87-3.14-6.48-13.39-5.96-18.36-.76s-6.07,12.88-6.93,20.03c-4.86-3.12-12.25-1.03-14.76,4.18-2.51,5.21.46,12.28,5.93,14.14-2.66-.35-5.47.97-6.9,3.24,8.84,3.35,18.37,4.32,27.83,4.32l162.07-5.22Z"/>
  <path class="cls-5" d="m338.97,1663.22c-3-4.61-9.05-6.99-14.38-5.68,1.94-2.98,3.87-5.95,5.81-8.93-6.3-1.94-12.98-2.63-19.54-2.01,1.81-2.57-.5-6.39-3.53-7.25-3.03-.86-6.22.25-9.17,1.35,4.15-4.32,8.29-8.64,12.44-12.97,1.62-1.68,3.36-3.84,2.74-6.08-.55-1.99-2.71-3.02-4.67-3.69-7.57-2.59-15.68-3.57-23.65-2.85-.38-2.55.09-5.23,1.31-7.5-3.14-1.73-6.86-2.38-10.4-1.82,1.8-2.05,2.75-4.82,2.59-7.54-3.2-.41-6.41-.83-9.61-1.24,3.64-2.52-.22-8.7-4.64-9.03s-8.52,2.26-12.9,2.87c-4.95.69-12.65,1.42-11.46,6.28-7.17-4.77-18.61,1.03-19,9.63-4.64,2.53-10.33,1.07-15.61,1.34-5.28.26-11.5,4.38-9.96,9.43.26-1.81-2.29-3.25-3.7-2.1-.51,2.62-1.03,5.24-1.54,7.87-3.14-6.48-13.39-5.96-18.36-.76-4.97,5.2-6.07,12.88-6.93,20.03-4.86-3.12-12.25-1.03-14.76,4.18-2.51,5.21.46,12.28,5.93,14.14-2.66-.35-5.47.97-6.9,3.24,8.84,3.35,18.37,4.32,27.83,4.32l162.07-5.22Z"/>
  <g>
    <path class="cls-4" d="m553.67,1750.87h44.07l34.89,29.38,32.13-32.13h136.79s25.8-10.1,25.8-10.1l-.1-16.52c-1.66-.03,12.85,0,12.85,0-1.6,1.14-.61,1.19,0,12.4l59.46-24.17,73.97,42.86,13.5-.59,54.01-25.83,22.31,12.92v-7.63h9.98v12.92l12.92,7.63h62.23v-27.01l-19.37.59,11.74-12.33,8.81-1.17v-19.37h67.52l5.28,6.46,8.81,1.17,71.63-29.35,71.63,36.99h-25.83v22.9h10.57l.59-14.09h18.2s8.22,0,8.22,0v-45.21l88.65-2.35,17.61,14.68,32.88-.59,11.15,31.7h22.31v98.5h-1010.08s6.68-64.43,4.89-62.64Z"/>
    <rect class="cls-2" x="1307.74" y="1716.47" width="14.21" height="26.05" transform="translate(2629.7 3458.98) rotate(-180)"/>
    <rect class="cls-2" x="1505.24" y="1733.83" width="14.21" height="26.05" transform="translate(3024.68 3493.71) rotate(-180)"/>
    <rect class="cls-2" x="1473.7" y="1733.83" width="14.21" height="26.05" transform="translate(2961.61 3493.71) rotate(-180)"/>
    <rect class="cls-2" x="1442.17" y="1733.83" width="14.21" height="26.05" transform="translate(2898.55 3493.71) rotate(-180)"/>
    <rect class="cls-2" x="1410.63" y="1733.83" width="14.21" height="26.05" transform="translate(2835.48 3493.71) rotate(-180)"/>
  </g>
  <g>
    <polygon class="cls-4" points="490 1812.72 418.18 1782.66 324.64 1821.07 271.2 1792.68 189.35 1849.47 0 1849.47 0 1703.6 2.61 1643.32 44.04 1644.02 42.37 1593.92 107.51 1572.2 182.67 1587.24 269.53 1618.97 254.49 1625.65 256.16 1662.4 282.89 1659.06 306.27 1659.06 306.27 1639.01 321.3 1639.01 321.3 1657.39 338.01 1655.72 458.27 1684.11 459.94 1714.18 474.97 1709.16 530.09 1719.19 611.93 1755.93 613.6 1809.38 490 1812.72"/>
    <polyline class="cls-4" points="869.15 1811.05 870.82 1754.26 740.54 1715.85 623.62 1715.85 623.62 1792.68 596.9 1822.74 596.9 1846.13"/>
  </g>
  <path class="cls-5" d="m1450.99,1848.1c-3-4.61-9.05-6.99-14.38-5.68,1.94-2.98,3.87-5.95,5.81-8.93-6.3-1.94-12.98-2.63-19.54-2.01,1.81-2.57-.5-6.39-3.53-7.25-3.03-.86-6.22.25-9.17,1.35,4.15-4.32,8.29-8.64,12.44-12.97,1.62-1.68,3.36-3.84,2.74-6.08-.55-1.99-2.71-3.02-4.67-3.69-7.57-2.59-15.68-3.57-23.65-2.85-.38-2.55.09-5.23,1.31-7.5-3.14-1.73-6.86-2.38-10.4-1.82,1.8-2.05,2.75-4.82,2.59-7.54-3.2-.41-6.41-.83-9.61-1.24,3.64-2.52-.22-8.7-4.64-9.03s-8.52,2.26-12.9,2.87c-4.95.69-12.65,1.42-11.46,6.28-7.17-4.77-18.61,1.03-19,9.63-4.64,2.53-10.33,1.07-15.61,1.34-5.28.26-11.5,4.38-9.96,9.43.26-1.81-2.29-3.25-3.7-2.1-.51,2.62-1.03,5.24-1.54,7.87-3.14-6.48-13.39-5.96-18.36-.76-4.97,5.2-6.07,12.88-6.93,20.03-4.86-3.12-12.25-1.03-14.76,4.18s.46,12.28,5.93,14.14c-2.66-.35-5.47.97-6.9,3.24,8.84,3.35,18.37,4.32,27.83,4.32l162.07-5.22Z"/>
  <rect class="cls-4" x="1287.73" y="1747.64" width="1392.1" height="262.36"/>
  <path class="cls-5" d="m2319.54,1647.64c-.53-1.52-1.07-3.04-1.6-4.56,3.39-.89,6.79-1.77,10.18-2.66-.75-1.89.49-4.31,2.47-4.8-.77-1.34-1-2.98-.6-4.47.78.39,1.56.79,2.34,1.19-1.42-2.27-2.03-6.14-.17-8.52,1.4-1.78,4.53-2.11,5.85-.27.13-1.19.95-2.29,2.06-2.75-.92.38-1.69-5.66-1.62-6.26,1.29-.42,1.93.08,3.2.51.67-.79,1.38-1.55,2.13-2.27.51-.49,9.5,5.45,7.99,9.08,2.37.69,4.74,1.37,7.11,2.06.59.17,1.2.36,1.64.78.48.47.67,1.15.84,1.8.63,2.38,1.26,4.77,1.88,7.15,1.89.11,3.77.21,5.66.32-.22,1.26-.49,2.52-.8,3.76-.5,2.01,6.39,15.71,1.29,14.44,3.44,1.55,4.14,7.02,1.19,9.38,1.75.76,3.57,1.59,4.75,3.09s1.43,3.91.03,5.21c1.15-.1,2.88.73,2.16,1.64,2.64,2.09,4.05,5.64,3.54,8.97-.51,3.33-2.9,6.31-6.05,7.51,1.18.49,2.42,1.02,3.16,2.06s.71,2.74-.39,3.37c1.82-.15,3.63,1.24,3.97,3.03s-.85,3.74-2.59,4.27c.8.18,1.61.35,2.41.53.77,2.79-.98,6.03-3.73,6.91,3.59-2.54,5.93,17.76-4.29,20.97-3.29,1.03-6.84.09-10.29.03-4.59-.08-9.2,1.51-12.77,4.4-1.68,1.36-3.2,3.03-5.23,3.74-1.65.57-3.44.44-5.18.28-6.7-.65-13.34-1.81-19.86-3.47,2.23-.26,4.47-.51,6.7-.77-16.52,1.9-11.17-20.83-4.93-16.31-2.33.97-5.32-.18-6.39-2.47-1.07-2.28-.04-5.32,2.19-6.49-1.36-.24-2.48-1.46-2.61-2.83,1.17-.88,2.82-1.06,4.16-.46-2.25.06-4.44-1.58-5.03-3.75s.48-4.69,2.45-5.78c-1.22-.55-1.76-2.23-1.1-3.39s2.37-1.56,3.47-.81c-1.41-.25-2.98-.59-3.78-1.78s.13-3.33,1.51-2.95c-3.98-3.19-4.47-9.85-1.01-13.58-.17-1.02-.33-2.04-.5-3.06.98.02,1.97.04,2.95.06-2.04-1.89-2.83-5.01-1.95-7.65,1.26-.08,2.51-.15,3.77-.23-1.01-1.78-1.75-3.73-2.17-5.73,1.02-.08,2.04-.15,3.05-.23-3.19-.25-3.99-5.72-1-6.87-.16-.45-.32-.9-.47-1.35Z"/>
  <path class="cls-5" d="m2501.73,1588.08c-.53-1.52-1.07-3.04-1.6-4.56,3.39-.89,6.79-1.77,10.18-2.66-.75-1.89.49-4.31,2.47-4.8-.77-1.34-1-2.98-.6-4.47.78.39,1.56.79,2.34,1.19-1.42-2.27-2.03-6.14-.17-8.52,1.4-1.78,4.53-2.11,5.85-.27.13-1.19.95-2.29,2.06-2.75-.92.38-1.69-5.66-1.62-6.26,1.29-.42,1.93.08,3.2.51.67-.79,1.38-1.55,2.13-2.27.51-.49,9.5,5.45,7.99,9.08,2.37.69,4.74,1.37,7.11,2.06.59.17,1.2.36,1.64.78.48.47.67,1.15.84,1.8.63,2.38,1.26,4.77,1.88,7.15,1.89.11,3.77.21,5.66.32-.22,1.26-.49,2.52-.8,3.76-.5,2.01,6.39,15.71,1.29,14.44,3.44,1.55,4.14,7.02,1.19,9.38,1.75.76,3.57,1.59,4.75,3.09s1.43,3.91.03,5.21c1.15-.1,2.88.73,2.16,1.64,2.64,2.09,4.05,5.64,3.54,8.97-.51,3.33-2.9,6.31-6.05,7.51,1.18.49,2.42,1.02,3.16,2.06s.71,2.74-.39,3.37c1.82-.15,3.63,1.24,3.97,3.03.34,1.79-.85,3.74-2.59,4.27.8.18,1.61.35,2.41.53.77,2.79-.98,6.03-3.73,6.91,3.59-2.54,5.93,17.76-4.29,20.97-3.29,1.03-6.84.09-10.29.03-4.59-.08-9.2,1.51-12.77,4.4-1.68,1.36-3.2,3.03-5.23,3.74-1.65.57-3.44.44-5.18.28-6.7-.65-13.34-1.81-19.86-3.47,2.23-.26,4.47-.51,6.7-.77-16.52,1.9-11.17-20.83-4.93-16.31-2.33.97-5.32-.18-6.39-2.47s-.04-5.32,2.19-6.49c-1.36-.24-2.48-1.46-2.61-2.83,1.17-.88,2.82-1.06,4.16-.46-2.25.06-4.44-1.58-5.03-3.75s.48-4.69,2.45-5.78c-1.22-.55-1.76-2.23-1.1-3.39s2.37-1.56,3.47-.81c-1.41-.25-2.98-.59-3.78-1.78s.13-3.33,1.51-2.95c-3.98-3.19-4.47-9.85-1.01-13.58-.17-1.02-.33-2.04-.5-3.06.98.02,1.97.04,2.95.06-2.04-1.89-2.83-5.01-1.95-7.65,1.26-.08,2.51-.15,3.77-.23-1.01-1.78-1.75-3.73-2.17-5.73,1.02-.08,2.04-.15,3.05-.23-3.19-.25-3.99-5.72-1-6.87-.16-.45-.32-.9-.47-1.35Z"/>
  <path class="cls-5" d="m2266.98,1670.42c-.53-1.52-1.07-3.04-1.6-4.56,3.39-.89,6.79-1.77,10.18-2.66-.75-1.89.49-4.31,2.47-4.8-.77-1.34-1-2.98-.6-4.47.78.39,1.56.79,2.34,1.19-1.42-2.27-2.03-6.14-.17-8.52,1.4-1.78,4.53-2.11,5.85-.27.13-1.19.95-2.29,2.06-2.75-.92.38-1.69-5.66-1.62-6.26,1.29-.42,1.93.08,3.2.51.67-.79,1.38-1.55,2.13-2.27.51-.49,9.5,5.45,7.99,9.08,2.37.69,4.74,1.37,7.11,2.06.59.17,1.2.36,1.64.78.48.47.67,1.15.84,1.8.63,2.38,1.26,4.77,1.88,7.15,1.89.11,3.77.21,5.66.32-.22,1.26-.49,2.52-.8,3.76-.5,2.01,6.39,15.71,1.29,14.44,3.44,1.55,4.14,7.02,1.19,9.38,1.75.76,3.57,1.59,4.75,3.09s1.43,3.91.03,5.21c1.15-.1,2.88.73,2.16,1.64,2.64,2.09,4.05,5.64,3.54,8.97s-2.9,6.31-6.05,7.51c1.18.49,2.42,1.02,3.16,2.06s.71,2.74-.39,3.37c1.82-.15,3.63,1.24,3.97,3.03s-.85,3.74-2.59,4.27c.8.18,1.61.35,2.41.53.77,2.79-.98,6.03-3.73,6.91,3.59-2.54,5.93,17.76-4.29,20.97-3.29,1.03-6.84.09-10.29.03-4.59-.08-9.2,1.51-12.77,4.4-1.68,1.36-3.2,3.03-5.23,3.74-1.65.57-3.44.44-5.18.28-6.7-.65-13.34-1.81-19.86-3.47,2.23-.26,4.47-.51,6.7-.77-16.52,1.9-11.17-20.83-4.93-16.31-2.33.97-5.32-.18-6.39-2.47s-.04-5.32,2.19-6.49c-1.36-.24-2.48-1.46-2.61-2.83,1.17-.88,2.82-1.06,4.16-.46-2.25.06-4.44-1.58-5.03-3.75s.48-4.69,2.45-5.78c-1.22-.55-1.76-2.23-1.1-3.39s2.37-1.56,3.47-.81c-1.41-.25-2.98-.59-3.78-1.78s.13-3.33,1.51-2.95c-3.98-3.19-4.47-9.85-1.01-13.58-.17-1.02-.33-2.04-.5-3.06.98.02,1.97.04,2.95.06-2.04-1.89-2.83-5.01-1.95-7.65,1.26-.08,2.51-.15,3.77-.23-1.01-1.78-1.75-3.73-2.17-5.73,1.02-.08,2.04-.15,3.05-.23-3.19-.25-3.99-5.72-1-6.87-.16-.45-.32-.9-.47-1.35Z"/>
  <path class="cls-5" d="m1918.35,1635.38c-.53-1.52-1.07-3.04-1.6-4.56,3.39-.89,6.79-1.77,10.18-2.66-.75-1.89.49-4.31,2.47-4.8-.77-1.34-1-2.98-.6-4.47.78.39,1.56.79,2.34,1.19-1.42-2.27-2.03-6.14-.17-8.52,1.4-1.78,4.53-2.11,5.85-.27.13-1.19.95-2.29,2.06-2.75-.92.38-1.69-5.66-1.62-6.26,1.29-.42,1.93.08,3.2.51.67-.79,1.38-1.55,2.13-2.27.51-.49,9.5,5.45,7.99,9.08,2.37.69,4.74,1.37,7.11,2.06.59.17,1.2.36,1.64.78.48.47.67,1.15.84,1.8.63,2.38,1.26,4.77,1.88,7.15,1.89.11,3.77.21,5.66.32-.22,1.26-.49,2.52-.8,3.76-.5,2.01,6.39,15.71,1.29,14.44,3.44,1.55,4.14,7.02,1.19,9.38,1.75.76,3.57,1.59,4.75,3.09,1.17,1.5,1.43,3.91.03,5.21,1.15-.1,2.88.73,2.16,1.64,2.64,2.09,4.05,5.64,3.54,8.97s-2.9,6.31-6.05,7.51c1.18.49,2.42,1.02,3.16,2.06s.71,2.74-.39,3.37c1.82-.15,3.63,1.24,3.97,3.03s-.85,3.74-2.59,4.27c.8.18,1.61.35,2.41.53.77,2.79-.98,6.03-3.73,6.91,3.59-2.54,5.93,17.76-4.29,20.97-3.29,1.03-6.84.09-10.29.03-4.59-.08-9.2,1.51-12.77,4.4-1.68,1.36-3.2,3.03-5.23,3.74-1.65.57-3.44.44-5.18.28-6.7-.65-13.34-1.81-19.86-3.47,2.23-.26,4.47-.51,6.7-.77-16.52,1.9-11.17-20.83-4.93-16.31-2.33.97-5.32-.18-6.39-2.47s-.04-5.32,2.19-6.49c-1.36-.24-2.48-1.46-2.61-2.83,1.17-.88,2.82-1.06,4.16-.46-2.25.06-4.44-1.58-5.03-3.75s.48-4.69,2.45-5.78c-1.22-.55-1.76-2.23-1.1-3.39s2.37-1.56,3.47-.81c-1.41-.25-2.98-.59-3.78-1.78s.13-3.33,1.51-2.95c-3.98-3.19-4.47-9.85-1.01-13.58-.17-1.02-.33-2.04-.5-3.06.98.02,1.97.04,2.95.06-2.04-1.89-2.83-5.01-1.95-7.65,1.26-.08,2.51-.15,3.77-.23-1.01-1.78-1.75-3.73-2.17-5.73,1.02-.08,2.04-.15,3.05-.23-3.19-.25-3.99-5.72-1-6.87-.16-.45-.32-.9-.47-1.35Z"/>
  <path class="cls-5" d="m1655.56,1665.16c-.53-1.52-1.07-3.04-1.6-4.56,3.39-.89,6.79-1.77,10.18-2.66-.75-1.89.49-4.31,2.47-4.8-.77-1.34-1-2.98-.6-4.47.78.39,1.56.79,2.34,1.19-1.42-2.27-2.03-6.14-.17-8.52,1.4-1.78,4.53-2.11,5.85-.27.13-1.19.95-2.29,2.06-2.75-.92.38-1.69-5.66-1.62-6.26,1.29-.42,1.93.08,3.2.51.67-.79,1.38-1.55,2.13-2.27.51-.49,9.5,5.45,7.99,9.08,2.37.69,4.74,1.37,7.11,2.06.59.17,1.2.36,1.64.78.48.47.67,1.15.84,1.8.63,2.38,1.26,4.77,1.88,7.15,1.89.11,3.77.21,5.66.32-.22,1.26-.49,2.52-.8,3.76-.5,2.01,6.39,15.71,1.29,14.44,3.44,1.55,4.14,7.02,1.19,9.38,1.75.76,3.57,1.59,4.75,3.09s1.43,3.91.03,5.21c1.15-.1,2.88.73,2.16,1.64,2.64,2.09,4.05,5.64,3.54,8.97-.51,3.33-2.9,6.31-6.05,7.51,1.18.49,2.42,1.02,3.16,2.06.74,1.04.71,2.74-.39,3.37,1.82-.15,3.63,1.24,3.97,3.03.34,1.79-.85,3.74-2.59,4.27.8.18,1.61.35,2.41.53.77,2.79-.98,6.03-3.73,6.91,3.59-2.54,5.93,17.76-4.29,20.97-3.29,1.03-6.84.09-10.29.03-4.59-.08-9.2,1.51-12.77,4.4-1.68,1.36-3.2,3.03-5.23,3.74-1.65.57-3.44.44-5.18.28-6.7-.65-13.34-1.81-19.86-3.47,2.23-.26,4.47-.51,6.7-.77-16.52,1.9-11.17-20.83-4.93-16.31-2.33.97-5.32-.18-6.39-2.47s-.04-5.32,2.19-6.49c-1.36-.24-2.48-1.46-2.61-2.83,1.17-.88,2.82-1.06,4.16-.46-2.25.06-4.44-1.58-5.03-3.75-.59-2.18.48-4.69,2.45-5.78-1.22-.55-1.76-2.23-1.1-3.39.66-1.16,2.37-1.56,3.47-.81-1.41-.25-2.98-.59-3.78-1.78s.13-3.33,1.51-2.95c-3.98-3.19-4.47-9.85-1.01-13.58-.17-1.02-.33-2.04-.5-3.06.98.02,1.97.04,2.95.06-2.04-1.89-2.83-5.01-1.95-7.65,1.26-.08,2.51-.15,3.77-.23-1.01-1.78-1.75-3.73-2.17-5.73,1.02-.08,2.04-.15,3.05-.23-3.19-.25-3.99-5.72-1-6.87-.16-.45-.32-.9-.47-1.35Z"/>
  <path class="cls-5" d="m1469.5,1610.85c-.53-1.52-1.07-3.04-1.6-4.56,3.39-.89,6.79-1.77,10.18-2.66-.75-1.89.49-4.31,2.47-4.8-.77-1.34-1-2.98-.6-4.47.78.39,1.56.79,2.34,1.19-1.42-2.27-2.03-6.14-.17-8.52,1.4-1.78,4.53-2.11,5.85-.27.13-1.19.95-2.29,2.06-2.75-.92.38-1.69-5.66-1.62-6.26,1.29-.42,1.93.08,3.2.51.67-.79,1.38-1.55,2.13-2.27.51-.49,9.5,5.45,7.99,9.08,2.37.69,4.74,1.37,7.11,2.06.59.17,1.2.36,1.64.78.48.47.67,1.15.84,1.8.63,2.38,1.26,4.77,1.88,7.15,1.89.11,3.77.21,5.66.32-.22,1.26-.49,2.52-.8,3.76-.5,2.01,6.39,15.71,1.29,14.44,3.44,1.55,4.14,7.02,1.19,9.38,1.75.76,3.57,1.59,4.75,3.09s1.43,3.91.03,5.21c1.15-.1,2.88.73,2.16,1.64,2.64,2.09,4.05,5.64,3.54,8.97-.51,3.33-2.9,6.31-6.05,7.51,1.18.49,2.42,1.02,3.16,2.06s.71,2.74-.39,3.37c1.82-.15,3.63,1.24,3.97,3.03.34,1.79-.85,3.74-2.59,4.27.8.18,1.61.35,2.41.53.77,2.79-.98,6.03-3.73,6.91,3.59-2.54,5.93,17.76-4.29,20.97-3.29,1.03-6.84.09-10.29.03-4.59-.08-9.2,1.51-12.77,4.4-1.68,1.36-3.2,3.03-5.23,3.74-1.65.57-3.44.44-5.18.28-6.7-.65-13.34-1.81-19.86-3.47,2.23-.26,4.47-.51,6.7-.77-16.52,1.9-11.17-20.83-4.93-16.31-2.33.97-5.32-.18-6.39-2.47s-.04-5.32,2.19-6.49c-1.36-.24-2.48-1.46-2.61-2.83,1.17-.88,2.82-1.06,4.16-.46-2.25.06-4.44-1.58-5.03-3.75-.59-2.18.48-4.69,2.45-5.78-1.22-.55-1.76-2.23-1.1-3.39.66-1.16,2.37-1.56,3.47-.81-1.41-.25-2.98-.59-3.78-1.78-.8-1.19.13-3.33,1.51-2.95-3.98-3.19-4.47-9.85-1.01-13.58-.17-1.02-.33-2.04-.5-3.06.98.02,1.97.04,2.95.06-2.04-1.89-2.83-5.01-1.95-7.65,1.26-.08,2.51-.15,3.77-.23-1.01-1.78-1.75-3.73-2.17-5.73,1.02-.08,2.04-.15,3.05-.23-3.19-.25-3.99-5.72-1-6.87-.16-.45-.32-.9-.47-1.35Z"/>
  <g>
    <path class="cls-4" d="m2226.6,1734.87s-.72-166.75-5.35-191.62"/>
    <path class="cls-4" d="m2185.56,1500.55c-.48,1.13,5.72.64,5.34.77-1.69.56-2.62,2.51-4.26,3.19-.61.25-1.42.54-1.43,1.2-.01.82,1.15,1,1.96.89,1.45-.19,3.79-1.35,5.08-.71-.25.2-.54.33-.85.41-.26,1.49-1.95,2.17-3.35,2.75s-2.98,1.75-2.62,3.22c1.32-1,2.85-1.7,4.47-2.04-.06,1.53-1.45,2.6-2.57,3.64s-2.16,2.67-1.4,3.99c.88-.82,2.28-1.02,3.36-.5-2.14,2.68-3.34,6.09-3.33,9.52,2.16-1.69,3.81-4.02,4.68-6.61-.17.77-.34,1.54-.5,2.32.36-.02.71-.03,1.07-.05,1.11.96.29,2.72-.27,4.08-.93,2.27-.82,4.94.29,7.12,1.97-3.65,4.07-7.22,6.31-10.7-1.02,3.23-1.21,6.72-.54,10.04.54.03,1.08.05,1.63.08-.1,1.43,0,2.88.26,4.28,2.6-2.42,4.19-5.89,4.34-9.44.04-.95.5-2.32,1.4-1.99-.2,4.34-.4,8.68-.61,13.01.83-.72,2.21.03,2.63,1.05s.31,2.17.53,3.25,1.09,2.22,2.18,2.06c.01-2.64.52-5.28,1.47-7.74-.01,1.14-.02,2.28-.03,3.42,1.07-.33,2.19-.48,3.31-.45-.46,2.43-.12,5.01.96,7.24,1.76-1.08,1.74-3.59,1.6-5.64s.14-4.63,2.06-5.38c.16,2.84.12,6.88,1.41,9.45.65,1.3,1.92,2.38,3.37,2.4.19,0,.4-.03.51-.18.09-.13.07-.29.05-.45-.21-1.63-.99-4.03-.72-5.64.06-.37,1.67-2.93,1.8-2.43.61,2.18,1.22,4.36,1.83,6.54.42-1.85.84-3.71,1.27-5.56.16-.71.35-1.47.9-1.95.41-.36.96-.5,1.4-.82,1.76-1.26.87-4.11,1.83-6.05.68,1.7,1.31,3.43,2.05,5.09,2.61-.76,2.87-3.57,1.75-5.79-.7-1.38-1.74-2.6-2.2-4.07-.49-1.57-.27-3.29-.76-4.85-.63-2.03-2.42-3.8-2.14-5.91.02-.18.07-.37.19-.51.45-.48,1.18.17,1.52.73,2.25,3.84,5.37,7.09,8.46,10.3.33-.05.39-.5.37-.83-.16-2.23-.45-4.44-.87-6.63.26-.22.67-.04.87.23s.28.62.46.9c1.24,1.9,2.11-.66,2.95-.53-.09-1.04-.18-2.08-.27-3.12.81,1.13,1.87,2.08,3.09,2.75.23-.53.92-.79,1.44-.55-1.14-1.76-2.29-3.52-3.43-5.28.58.68,1.15,1.35,1.73,2.03.97-4.28-2.01-9.06-6.28-10.07-1.9-.45-4.25-.42-5.28-2.08,2.53-1.26,3.69,1.17,6.23.46s1.94-1.77,2.64-2.88c-1.44-.75-3.07-1.14-4.7-1.13,1.1-.94,2.98-.71,3.82.46,0-1.93-2.17-3.11-4.08-3.33-1.91-.22-3.97.06-5.67-.84,1.73-.49,5.78.72,5.7-1.05s-7.05-.38-10.47-.42c.31-2.37,2.53-4.04,4.77-4.86s4.68-1.09,6.83-2.13c-2.58-2.64-7.44-2.49-9.84.31-.69.81-1.26,1.83-2.26,2.19s-2.41-.71-1.81-1.6c2.27-1.95,4.32-4.14,6.11-6.53-2.1-.33-4.35.56-5.65,2.24.04-1.47.72-2.92,1.83-3.89-1.43.89-2.85,1.78-4.28,2.67-.01-1-.02-2-.03-3-.76.71-1.53,1.42-2.29,2.13-.45-1.26-.9-2.52-1.36-3.79-.58,1.2-1.38,2.29-2.34,3.22l-.02-3.17c-1.24,1.27-3.01,2.01-4.78,1.99l-1.84-3.74c-.31,1.03-.62,2.05-.94,3.08.45-1.09-1.24-2.06-2.24-1.43s-1.21,1.99-1.08,3.16c-.56-.49-1.25-.83-1.98-.97l-.04,2.29c-.12-.81-.76-1.51-1.55-1.7-.8,2.76-1.65,8.01-2.99,8.07s-5.61-5.05-9.29-5.26c1.57,4.1,4.25,7.78,7.67,10.54-2.06-.01-3.92-1.14-5.82-1.92s-4.28-1.17-5.88.12c-.12.82.84,1.34,1.62,1.6,2.08.69,4.16,1.39,6.24,2.08-4.3-.2-12.78-.07-12.75,1.29s7.13.33,9.5.41c.55.02,3.3.07,3.5.14.74.27,1.58.3.1.83-1.57.56-3.2.68-4.85.68,0,0-5.72-.86-6.2.27Z"/>
  </g>
  <path class="cls-4" d="m1910.63,1496.32c-.48,1.13,5.72.64,5.34.77-1.69.56-2.62,2.51-4.26,3.19-.61.25-1.42.54-1.43,1.2-.01.82,1.15,1,1.96.89,1.45-.19,3.79-1.35,5.08-.71-.25.2-.54.33-.85.41-.26,1.49-1.95,2.17-3.35,2.75s-2.98,1.75-2.62,3.22c1.32-1,2.85-1.7,4.47-2.04-.06,1.53-1.45,2.6-2.57,3.64s-2.16,2.67-1.4,3.99c.88-.82,2.28-1.02,3.36-.5-2.14,2.68-3.34,6.09-3.33,9.52,2.16-1.69,3.81-4.02,4.68-6.61-.17.77-.34,1.54-.5,2.32.36-.02.71-.03,1.07-.05,1.11.96.29,2.72-.27,4.08-.93,2.27-.82,4.94.29,7.12,1.97-3.65,4.07-7.22,6.31-10.7-1.02,3.23-1.21,6.72-.54,10.04.54.03,1.08.05,1.63.08-.1,1.43,0,2.88.26,4.28,2.6-2.42,4.19-5.89,4.34-9.44.04-.95.5-2.32,1.4-1.99-.2,4.34-.4,8.68-.61,13.01.83-.72,2.21.03,2.63,1.05s.31,2.17.53,3.25,1.09,2.22,2.18,2.06c.01-2.64.52-5.28,1.47-7.74l-.03,3.42c1.07-.33,2.19-.48,3.31-.45-.46,2.43-.12,5.01.96,7.24,1.76-1.08,1.74-3.59,1.6-5.64s.14-4.63,2.06-5.38c.16,2.84.12,6.88,1.41,9.45.65,1.3,1.92,2.38,3.37,2.4.19,0,.4-.03.51-.18.09-.13.07-.29.05-.45-.21-1.63-.99-4.03-.72-5.64.06-.37,1.67-2.93,1.8-2.43.61,2.18,1.22,4.36,1.83,6.54.42-1.85.84-3.71,1.27-5.56.16-.71.35-1.47.9-1.95.41-.36.96-.5,1.4-.82,1.76-1.26.87-4.11,1.83-6.05.68,1.7,1.31,3.43,2.05,5.09,2.61-.76,2.87-3.57,1.75-5.79-.7-1.38-1.74-2.6-2.2-4.07-.49-1.57-.27-3.29-.76-4.85-.63-2.03-2.42-3.8-2.14-5.91.02-.18.07-.37.19-.51.45-.48,1.18.17,1.52.73,2.25,3.84,5.37,7.09,8.46,10.3.33-.05.39-.5.37-.83-.16-2.23-.45-4.44-.87-6.63.26-.22.67-.04.87.23s.28.62.46.9c1.24,1.9,2.11-.66,2.95-.53-.09-1.04-.18-2.08-.27-3.12.81,1.13,1.87,2.08,3.09,2.75.23-.53.92-.79,1.44-.55-1.14-1.76-2.29-3.52-3.43-5.28.58.68,1.15,1.35,1.73,2.03.97-4.28-2.01-9.06-6.28-10.07-1.9-.45-4.25-.42-5.28-2.08,2.53-1.26,3.69,1.17,6.23.46s1.94-1.77,2.64-2.88c-1.44-.75-3.07-1.14-4.7-1.13,1.1-.94,2.98-.71,3.82.46,0-1.93-2.17-3.11-4.08-3.33s-3.97.06-5.67-.84c1.73-.49,5.78.72,5.7-1.05s-7.05-.38-10.47-.42c.31-2.37,2.53-4.04,4.77-4.86s4.68-1.09,6.83-2.13c-2.58-2.64-7.44-2.49-9.84.31-.69.81-1.26,1.83-2.26,2.19s-2.41-.71-1.81-1.6c2.27-1.95,4.32-4.14,6.11-6.53-2.1-.33-4.35.56-5.65,2.24.04-1.47.72-2.92,1.83-3.89l-4.28,2.67c-.01-1-.02-2-.03-3l-2.29,2.13c-.45-1.26-.9-2.52-1.36-3.79-.58,1.2-1.38,2.29-2.34,3.22,0-1.06-.01-2.12-.02-3.17-1.24,1.27-3.01,2.01-4.78,1.99l-1.84-3.74-.94,3.08c.45-1.09-1.24-2.06-2.24-1.43s-1.21,1.99-1.08,3.16c-.56-.49-1.25-.83-1.98-.97l-.04,2.29c-.12-.81-.76-1.51-1.55-1.7-.8,2.76-1.65,8.01-2.99,8.07s-5.61-5.05-9.29-5.26c1.57,4.1,4.25,7.78,7.67,10.54-2.06-.01-3.92-1.14-5.82-1.92s-4.28-1.17-5.88.12c-.12.82.84,1.34,1.62,1.6,2.08.69,4.16,1.39,6.24,2.08-4.3-.2-12.78-.07-12.75,1.29s7.13.33,9.5.41c.55.02,3.3.07,3.5.14.74.27,1.58.3.1.83-1.57.56-3.2.68-4.85.68,0,0-5.72-.86-6.2.27Z"/>
  <path class="cls-4" d="m1946.77,1716s-.72-166.75-5.35-191.62"/>
  <g>
    <path class="cls-4" d="m1953.46,1526.6c-.48,1.13,5.72.64,5.34.77-1.69.56-2.62,2.51-4.26,3.19-.61.25-1.42.54-1.43,1.2-.01.82,1.15,1,1.96.89,1.45-.19,3.79-1.35,5.08-.71-.25.2-.54.33-.85.41-.26,1.49-1.95,2.17-3.35,2.75s-2.98,1.75-2.62,3.22c1.32-1,2.85-1.7,4.47-2.04-.06,1.53-1.45,2.6-2.57,3.64s-2.16,2.67-1.4,3.99c.88-.82,2.28-1.02,3.36-.5-2.14,2.68-3.34,6.09-3.33,9.52,2.16-1.69,3.81-4.02,4.68-6.61-.17.77-.34,1.54-.5,2.32.36-.02.71-.03,1.07-.05,1.11.96.29,2.72-.27,4.08-.93,2.27-.82,4.94.29,7.12,1.97-3.65,4.07-7.22,6.31-10.7-1.02,3.23-1.21,6.72-.54,10.04.54.03,1.08.05,1.63.08-.1,1.43,0,2.88.26,4.28,2.6-2.42,4.19-5.89,4.34-9.44.04-.95.5-2.32,1.4-1.99-.2,4.34-.4,8.68-.61,13.01.83-.72,2.21.03,2.63,1.05s.31,2.17.53,3.25,1.09,2.22,2.18,2.06c.01-2.64.52-5.28,1.47-7.74-.01,1.14-.02,2.28-.03,3.42,1.07-.33,2.19-.48,3.31-.45-.46,2.43-.12,5.01.96,7.24,1.76-1.08,1.74-3.59,1.6-5.64s.14-4.63,2.06-5.38c.16,2.84.12,6.88,1.41,9.45.65,1.3,1.92,2.38,3.37,2.4.19,0,.4-.03.51-.18.09-.13.07-.29.05-.45-.21-1.63-.99-4.03-.72-5.64.06-.37,1.67-2.93,1.8-2.43.61,2.18,1.22,4.36,1.83,6.54.42-1.85.84-3.71,1.27-5.56.16-.71.35-1.47.9-1.95.41-.36.96-.5,1.4-.82,1.76-1.26.87-4.11,1.83-6.05.68,1.7,1.31,3.43,2.05,5.09,2.61-.76,2.87-3.57,1.75-5.79-.7-1.38-1.74-2.6-2.2-4.07-.49-1.57-.27-3.29-.76-4.85-.63-2.03-2.42-3.8-2.14-5.91.02-.18.07-.37.19-.51.45-.48,1.18.17,1.52.73,2.25,3.84,5.37,7.09,8.46,10.3.33-.05.39-.5.37-.83-.16-2.23-.45-4.44-.87-6.63.26-.22.67-.04.87.23s.28.62.46.9c1.24,1.9,2.11-.66,2.95-.53-.09-1.04-.18-2.08-.27-3.12.81,1.13,1.87,2.08,3.09,2.75.23-.53.92-.79,1.44-.55-1.14-1.76-2.29-3.52-3.43-5.28.58.68,1.15,1.35,1.73,2.03.97-4.28-2.01-9.06-6.28-10.07-1.9-.45-4.25-.42-5.28-2.08,2.53-1.26,3.69,1.17,6.23.46s1.94-1.77,2.64-2.88c-1.44-.75-3.07-1.14-4.7-1.13,1.1-.94,2.98-.71,3.82.46,0-1.93-2.17-3.11-4.08-3.33-1.91-.22-3.97.06-5.67-.84,1.73-.49,5.78.72,5.7-1.05s-7.05-.38-10.47-.42c.31-2.37,2.53-4.04,4.77-4.86s4.68-1.09,6.83-2.13c-2.58-2.64-7.44-2.49-9.84.31-.69.81-1.26,1.83-2.26,2.19s-2.41-.71-1.81-1.6c2.27-1.95,4.32-4.14,6.11-6.53-2.1-.33-4.35.56-5.65,2.24.04-1.47.72-2.92,1.83-3.89-1.43.89-2.85,1.78-4.28,2.67-.01-1-.02-2-.03-3l-2.29,2.13-1.36-3.79c-.58,1.2-1.38,2.29-2.34,3.22l-.02-3.17c-1.24,1.27-3.01,2.01-4.78,1.99l-1.84-3.74-.94,3.08c.45-1.09-1.24-2.06-2.24-1.43s-1.21,1.99-1.08,3.16c-.56-.49-1.25-.83-1.98-.97l-.04,2.29c-.12-.81-.76-1.51-1.55-1.7-.8,2.76-1.65,8.01-2.99,8.07s-5.61-5.05-9.29-5.26c1.57,4.1,4.25,7.78,7.67,10.54-2.06-.01-3.92-1.14-5.82-1.92s-4.28-1.17-5.88.12c-.12.82.84,1.34,1.62,1.6l6.24,2.08c-4.3-.2-12.78-.07-12.75,1.29s7.13.33,9.5.41c.55.02,3.3.07,3.5.14.74.27,1.58.3.1.83-1.57.56-3.2.68-4.85.68,0,0-5.72-.86-6.2.27Z"/>
    <path class="cls-4" d="m1989.6,1746.29s-.72-166.75-5.35-191.62"/>
  </g>
  <g>
    <path class="cls-4" d="m1633.72,1524.24c-.48,1.13,5.72.64,5.34.77-1.69.56-2.62,2.51-4.26,3.19-.61.25-1.42.54-1.43,1.2-.01.82,1.15,1,1.96.89,1.45-.19,3.79-1.35,5.08-.71-.25.2-.54.33-.85.41-.26,1.49-1.95,2.17-3.35,2.75s-2.98,1.75-2.62,3.22c1.32-1,2.85-1.7,4.47-2.04-.06,1.53-1.45,2.6-2.57,3.64-1.13,1.03-2.16,2.67-1.4,3.99.88-.82,2.28-1.02,3.36-.5-2.14,2.68-3.34,6.09-3.33,9.52,2.16-1.69,3.81-4.02,4.68-6.61-.17.77-.34,1.54-.5,2.32.36-.02.71-.03,1.07-.05,1.11.96.29,2.72-.27,4.08-.93,2.27-.82,4.94.29,7.12,1.97-3.65,4.07-7.22,6.31-10.7-1.02,3.23-1.21,6.72-.54,10.04.54.03,1.08.05,1.63.08-.1,1.43,0,2.88.26,4.28,2.6-2.42,4.19-5.89,4.34-9.44.04-.95.5-2.32,1.4-1.99-.2,4.34-.4,8.68-.61,13.01.83-.72,2.21.03,2.63,1.05s.31,2.17.53,3.25c.23,1.08,1.09,2.22,2.18,2.06.01-2.64.52-5.28,1.47-7.74l-.03,3.42c1.07-.33,2.19-.48,3.31-.45-.46,2.43-.12,5.01.96,7.24,1.76-1.08,1.74-3.59,1.6-5.64s.14-4.63,2.06-5.38c.16,2.84.12,6.88,1.41,9.45.65,1.3,1.92,2.38,3.37,2.4.19,0,.4-.03.51-.18.09-.13.07-.29.05-.45-.21-1.63-.99-4.03-.72-5.64.06-.37,1.67-2.93,1.8-2.43.61,2.18,1.22,4.36,1.83,6.54.42-1.85.84-3.71,1.27-5.56.16-.71.35-1.47.9-1.95.41-.36.96-.5,1.4-.82,1.76-1.26.87-4.11,1.83-6.05.68,1.7,1.31,3.43,2.05,5.09,2.61-.76,2.87-3.57,1.75-5.79-.7-1.38-1.74-2.6-2.2-4.07-.49-1.57-.27-3.29-.76-4.85-.63-2.03-2.42-3.8-2.14-5.91.02-.18.07-.37.19-.51.45-.48,1.18.17,1.52.73,2.25,3.84,5.37,7.09,8.46,10.3.33-.05.39-.5.37-.83-.16-2.23-.45-4.44-.87-6.63.26-.22.67-.04.87.23s.28.62.46.9c1.24,1.9,2.11-.66,2.95-.53-.09-1.04-.18-2.08-.27-3.12.81,1.13,1.87,2.08,3.09,2.75.23-.53.92-.79,1.44-.55-1.14-1.76-2.29-3.52-3.43-5.28.58.68,1.15,1.35,1.73,2.03.97-4.28-2.01-9.06-6.28-10.07-1.9-.45-4.25-.42-5.28-2.08,2.53-1.26,3.69,1.17,6.23.46s1.94-1.77,2.64-2.88c-1.44-.75-3.07-1.14-4.7-1.13,1.1-.94,2.98-.71,3.82.46,0-1.93-2.17-3.11-4.08-3.33s-3.97.06-5.67-.84c1.73-.49,5.78.72,5.7-1.05s-7.05-.38-10.47-.42c.31-2.37,2.53-4.04,4.77-4.86,2.24-.82,4.68-1.09,6.83-2.13-2.58-2.64-7.44-2.49-9.84.31-.69.81-1.26,1.83-2.26,2.19s-2.41-.71-1.81-1.6c2.27-1.95,4.32-4.14,6.11-6.53-2.1-.33-4.35.56-5.65,2.24.04-1.47.72-2.92,1.83-3.89-1.43.89-2.85,1.78-4.28,2.67-.01-1-.02-2-.03-3l-2.29,2.13-1.36-3.79c-.58,1.2-1.38,2.29-2.34,3.22,0-1.06-.01-2.12-.02-3.17-1.24,1.27-3.01,2.01-4.78,1.99-.61-1.25-1.23-2.49-1.84-3.74-.31,1.03-.62,2.05-.94,3.08.45-1.09-1.24-2.06-2.24-1.43s-1.21,1.99-1.08,3.16c-.56-.49-1.25-.83-1.98-.97-.01.76-.03,1.53-.04,2.29-.12-.81-.76-1.51-1.55-1.7-.8,2.76-1.65,8.01-2.99,8.07s-5.61-5.05-9.29-5.26c1.57,4.1,4.25,7.78,7.67,10.54-2.06-.01-3.92-1.14-5.82-1.92s-4.28-1.17-5.88.12c-.12.82.84,1.34,1.62,1.6,2.08.69,4.16,1.39,6.24,2.08-4.3-.2-12.78-.07-12.75,1.29s7.13.33,9.5.41c.55.02,3.3.07,3.5.14.74.27,1.58.3.1.83-1.57.56-3.2.68-4.85.68,0,0-5.72-.86-6.2.27Z"/>
    <path class="cls-4" d="m1669.86,1743.92s-.72-166.75-5.35-191.62"/>
  </g>
  <g>
    <g>
      <line class="cls-4" x1="2541.78" y1="1692.07" x2="2545.22" y2="1479.85"/>
      <rect class="cls-4" x="2437.38" y="1583.26" width="212.25" height="5.4" transform="translate(916.36 4103.31) rotate(-89.07)"/>
    </g>
    <path class="cls-4" d="m2553.07,1476.81c-1.27,3.34-4.7,5.74-8.28,5.78-3.57.04-7.06-2.28-8.4-5.6-1.08-2.68-.81-5.68-.74-8.57.15-5.97-.62-11.96-2.27-17.69-2.22,3.52-3.55,7.6-3.83,11.76-3.32-1.95-4.58-6.07-5.4-9.84-1.79-8.24-2.57-17.69,2.65-24.32-1.98-.28-3.92.99-5.01,2.66s-1.53,3.67-1.93,5.63c-.85-.32-1.71-.64-2.56-.97-.05,1.56-.97,3.06-2.34,3.81.52-1.44-1.29-2.84-2.8-2.56s-2.61,1.54-3.59,2.72c-2.02,2.45-4.04,4.89-6.06,7.34-.31-4.89-.63-9.78-.94-14.68-.32-4.93.23-9.55,3.99-13.17,1.3-1.26,2.84-2.24,4.38-3.19,1.63-1,3.34-2.02,5.18-2.58,1.36-.4,3.22-.14,4.29-.87-3.35-2.21-7.75-2.95-11.71-2.82-2.74.1-5.53.75-7.78,2.32-.3.21-.67.45-1.01.32-.59-.23-.35-1.11,0-1.64,3.29-4.94,7.86-9.02,13.14-11.72.03-1.17-.17-2.48.68-3.28,1.46,1.67,3.46,2.45,5.68,2.43,2.25-.01,4.46-.67,6.71-.78,3.25-.17,6.56.81,9.19,2.74-1.6-1.17-2.41-3.27-4.3-4.41s-4.1-1.81-6.32-1.86-3.56.97-3.32-1.67c.18-2.05,2.69-3.97,4.48-4.51.8-.24,1.65-.33,2.48-.38,3.96-.24,8.63.33,11.9,2.8,2.16,1.63,1.86,2.33,4.59.91,2.35-1.22,4.61-2.67,6.9-4-1.11,1.82-2,3.99-2.16,6.12,1.3-2.12,2.93-3.52,5.02-4.86.72-.46,1.45-.93,2.25-1.21,1.03-.37,2.15-.42,3.24-.47,2.44-.11,4.96-.21,7.24.65,1.21.45,2.31,1.16,3.49,1.7,1.42.65,4.29.79,5.01,2.17-3.03.58-6.08.76-8.99,1.93-3.06,1.23-5.88,3.47-7.03,6.56.27-.73,6.37-.46,7.18-.39,2.15.2,5.07.81,6.73,2.28,1.21,1.08,2.43,2.16,3.64,3.23.76.67,1.52,1.35,2.15,2.14,1.07,1.33,1.73,2.94,2.36,4.52,1.39,3.51,3.05,7.71,2.28,11.54-1.8-1.94-2.01-4.58-3.8-6.45-2.02-2.1-5.36-3-8.12-2,2.25.93,4.03,2.94,4.68,5.29.59,2.13.29,4.42.78,6.57.35,1.54,1.09,2.96,1.52,4.48,1.43,5.08-.74,10.41-2.86,15.24,1.15-5.12-1-10.83-5.25-13.91-1.16-.84-2.89-1.45-3.92-.46,3.06,6.51,3.52,14.19,1.26,21.02-.92-3.12-2.7-5.99-5.09-8.2.56.92.07,2.3-.94,2.66.39-2.44.72-4.97.03-7.34s-2.67-4.54-5.13-4.66c-.57,6.03.82,12.26-.78,18.11-.48,1.74-1.21,3.39-1.7,5.12-2.07,7.22.12,15.06-1.42,22.41"/>
  </g>
  <g>
    <g>
      <line class="cls-4" x1="2612.92" y1="1693.87" x2="2616.36" y2="1481.65"/>
      <rect class="cls-4" x="2508.51" y="1585.06" width="212.25" height="5.4" transform="translate(984.54 4176.21) rotate(-89.07)"/>
    </g>
    <path class="cls-4" d="m2624.2,1478.61c-1.27,3.34-4.7,5.74-8.28,5.78s-7.06-2.28-8.4-5.6c-1.08-2.68-.81-5.68-.74-8.57.15-5.97-.62-11.96-2.27-17.69-2.22,3.52-3.55,7.6-3.83,11.76-3.32-1.95-4.58-6.07-5.4-9.84-1.79-8.24-2.57-17.69,2.65-24.32-1.98-.28-3.92.99-5.01,2.66s-1.53,3.67-1.93,5.63c-.85-.32-1.71-.64-2.56-.97-.05,1.56-.97,3.06-2.34,3.81.52-1.44-1.29-2.84-2.8-2.56s-2.61,1.54-3.59,2.72c-2.02,2.45-4.04,4.89-6.06,7.34-.31-4.89-.63-9.78-.94-14.68-.32-4.93.23-9.55,3.99-13.17,1.3-1.26,2.84-2.24,4.38-3.19,1.63-1,3.34-2.02,5.18-2.58,1.36-.4,3.22-.14,4.29-.87-3.35-2.21-7.75-2.95-11.71-2.82-2.74.1-5.53.75-7.78,2.32-.3.21-.67.45-1.01.32-.59-.23-.35-1.11,0-1.64,3.29-4.94,7.86-9.02,13.14-11.72.03-1.17-.17-2.48.68-3.28,1.46,1.67,3.46,2.45,5.68,2.43,2.25-.01,4.46-.67,6.71-.78,3.25-.17,6.56.81,9.19,2.74-1.6-1.17-2.41-3.27-4.3-4.41s-4.1-1.81-6.32-1.86-3.56.97-3.32-1.67c.18-2.05,2.69-3.97,4.48-4.51.8-.24,1.65-.33,2.48-.38,3.96-.24,8.63.33,11.9,2.8,2.16,1.63,1.86,2.33,4.59.91,2.35-1.22,4.61-2.67,6.9-4-1.11,1.82-2,3.99-2.16,6.12,1.3-2.12,2.93-3.52,5.02-4.86.72-.46,1.45-.93,2.25-1.21,1.03-.37,2.15-.42,3.24-.47,2.44-.11,4.96-.21,7.24.65,1.21.45,2.31,1.16,3.49,1.7,1.42.65,4.29.79,5.01,2.17-3.03.58-6.08.76-8.99,1.93-3.06,1.23-5.88,3.47-7.03,6.56.27-.73,6.37-.46,7.18-.39,2.15.2,5.07.81,6.73,2.28,1.21,1.08,2.43,2.16,3.64,3.23.76.67,1.52,1.35,2.15,2.14,1.07,1.33,1.73,2.94,2.36,4.52,1.39,3.51,3.05,7.71,2.28,11.54-1.8-1.94-2.01-4.58-3.8-6.45-2.02-2.1-5.36-3-8.12-2,2.25.93,4.03,2.94,4.68,5.29.59,2.13.29,4.42.78,6.57.35,1.54,1.09,2.96,1.52,4.48,1.43,5.08-.74,10.41-2.86,15.24,1.15-5.12-1-10.83-5.25-13.91-1.16-.84-2.89-1.45-3.92-.46,3.06,6.51,3.52,14.19,1.26,21.02-.92-3.12-2.7-5.99-5.09-8.2.56.92.07,2.3-.94,2.66.39-2.44.72-4.97.03-7.34s-2.67-4.54-5.13-4.66c-.57,6.03.82,12.26-.78,18.11-.48,1.74-1.21,3.39-1.7,5.12-2.07,7.22.12,15.06-1.42,22.41"/>
  </g>
  <g>
    <g>
      <line class="cls-4" x1="1347.4" y1="1709.61" x2="1350.84" y2="1497.39"/>
      <rect class="cls-4" x="1242.99" y="1600.8" width="212.25" height="5.4" transform="translate(-276.12 2926.34) rotate(-89.07)"/>
    </g>
    <path class="cls-4" d="m1358.68,1494.35c-1.27,3.34-4.7,5.74-8.28,5.78s-7.06-2.28-8.4-5.6c-1.08-2.68-.81-5.68-.74-8.57.15-5.97-.62-11.96-2.27-17.69-2.22,3.52-3.55,7.6-3.83,11.76-3.32-1.95-4.58-6.07-5.4-9.84-1.79-8.24-2.57-17.69,2.65-24.32-1.98-.28-3.92.99-5.01,2.66-1.1,1.67-1.53,3.67-1.93,5.63-.85-.32-1.71-.64-2.56-.97-.05,1.56-.97,3.06-2.34,3.81.52-1.44-1.29-2.84-2.8-2.56s-2.61,1.54-3.59,2.72c-2.02,2.45-4.04,4.89-6.06,7.34-.31-4.89-.63-9.78-.94-14.68-.32-4.93.23-9.55,3.99-13.17,1.3-1.26,2.84-2.24,4.38-3.19,1.63-1,3.34-2.02,5.18-2.58,1.36-.4,3.22-.14,4.29-.87-3.35-2.21-7.75-2.95-11.71-2.82-2.74.1-5.53.75-7.78,2.32-.3.21-.67.45-1.01.32-.59-.23-.35-1.11,0-1.64,3.29-4.94,7.86-9.02,13.14-11.72.03-1.17-.17-2.48.68-3.28,1.46,1.67,3.46,2.45,5.68,2.43,2.25-.01,4.46-.67,6.71-.78,3.25-.17,6.56.81,9.19,2.74-1.6-1.17-2.41-3.27-4.3-4.41s-4.1-1.81-6.32-1.86-3.56.97-3.32-1.67c.18-2.05,2.69-3.97,4.48-4.51.8-.24,1.65-.33,2.48-.38,3.96-.24,8.63.33,11.9,2.8,2.16,1.63,1.86,2.33,4.59.91,2.35-1.22,4.61-2.67,6.9-4-1.11,1.82-2,3.99-2.16,6.12,1.3-2.12,2.93-3.52,5.02-4.86.72-.46,1.45-.93,2.25-1.21,1.03-.37,2.15-.42,3.24-.47,2.44-.11,4.96-.21,7.24.65,1.21.45,2.31,1.16,3.49,1.7,1.42.65,4.29.79,5.01,2.17-3.03.58-6.08.76-8.99,1.93-3.06,1.23-5.88,3.47-7.03,6.56.27-.73,6.37-.46,7.18-.39,2.15.2,5.07.81,6.73,2.28,1.21,1.08,2.43,2.16,3.64,3.23.76.67,1.52,1.35,2.15,2.14,1.07,1.33,1.73,2.94,2.36,4.52,1.39,3.51,3.05,7.71,2.28,11.54-1.8-1.94-2.01-4.58-3.8-6.45-2.02-2.1-5.36-3-8.12-2,2.25.93,4.03,2.94,4.68,5.29.59,2.13.29,4.42.78,6.57.35,1.54,1.09,2.96,1.52,4.48,1.43,5.08-.74,10.41-2.86,15.24,1.15-5.12-1-10.83-5.25-13.91-1.16-.84-2.89-1.45-3.92-.46,3.06,6.51,3.52,14.19,1.26,21.02-.92-3.12-2.7-5.99-5.09-8.2.56.92.07,2.3-.94,2.66.39-2.44.72-4.97.03-7.34s-2.67-4.54-5.13-4.66c-.57,6.03.82,12.26-.78,18.11-.48,1.74-1.21,3.39-1.7,5.12-2.07,7.22.12,15.06-1.42,22.41"/>
  </g>
  <path class="cls-5" d="m2128.83,1772.77c3-4.61,9.05-6.99,14.38-5.68-1.94-2.98-3.87-5.95-5.81-8.93,6.3-1.94,12.98-2.63,19.54-2.01-1.81-2.57.5-6.39,3.53-7.25,3.03-.86,6.22.25,9.17,1.35-4.15-4.32-8.29-8.64-12.44-12.97-1.62-1.68-3.36-3.84-2.74-6.08.55-1.99,2.71-3.02,4.67-3.69,7.57-2.59,15.68-3.57,23.65-2.85.38-2.55-.09-5.23-1.31-7.5,3.14-1.73,6.86-2.38,10.4-1.82-1.8-2.05-2.75-4.82-2.59-7.54,3.2-.41,6.41-.83,9.61-1.24-3.64-2.52.22-8.7,4.64-9.03s8.52,2.26,12.9,2.87c4.95.69,12.65,1.42,11.46,6.28,7.17-4.77,18.61,1.03,19,9.63,4.64,2.53,10.33,1.07,15.61,1.34,5.28.26,11.5,4.38,9.96,9.43-.26-1.81,2.29-3.25,3.7-2.1.51,2.62,1.03,5.24,1.54,7.87,3.14-6.48,13.39-5.96,18.36-.76,4.97,5.2,6.07,12.88,6.93,20.03,4.86-3.12,12.25-1.03,14.76,4.18s-.46,12.28-5.93,14.14c2.66-.35,5.47.97,6.9,3.24-8.84,3.35-18.37,4.32-27.83,4.32l-162.07-5.22Z"/>
  <path class="cls-5" d="m1654.36,1763.08c3-4.61,9.05-6.99,14.38-5.68-1.94-2.98-3.87-5.95-5.81-8.93,6.3-1.94,12.98-2.63,19.54-2.01-1.81-2.57.5-6.39,3.53-7.25s6.22.25,9.17,1.35c-4.15-4.32-8.29-8.64-12.44-12.97-1.62-1.68-3.36-3.84-2.74-6.08.55-1.99,2.71-3.02,4.67-3.69,7.57-2.59,15.68-3.57,23.65-2.85.38-2.55-.09-5.23-1.31-7.5,3.14-1.73,6.86-2.38,10.4-1.82-1.8-2.05-2.75-4.82-2.59-7.54,3.2-.41,6.41-.83,9.61-1.24-3.64-2.52.22-8.7,4.64-9.03s8.52,2.26,12.9,2.87c4.95.69,12.65,1.42,11.46,6.28,7.17-4.77,18.61,1.03,19,9.63,4.64,2.53,10.33,1.07,15.61,1.34s11.5,4.38,9.96,9.43c-.26-1.81,2.29-3.25,3.7-2.1.51,2.62,1.03,5.24,1.54,7.87,3.14-6.48,13.39-5.96,18.36-.76,4.97,5.2,6.07,12.88,6.93,20.03,4.86-3.12,12.25-1.03,14.76,4.18,2.51,5.21-.46,12.28-5.93,14.14,2.66-.35,5.47.97,6.9,3.24-8.84,3.35-18.37,4.32-27.83,4.32l-162.07-5.22Z"/>
  <path class="cls-5" d="m1755.98,1759.57c3-4.61,9.05-6.99,14.38-5.68-1.94-2.98-3.87-5.95-5.81-8.93,6.3-1.94,12.98-2.63,19.54-2.01-1.81-2.57.5-6.39,3.53-7.25,3.03-.86,6.22.25,9.17,1.35-4.15-4.32-8.29-8.64-12.44-12.97-1.62-1.68-3.36-3.84-2.74-6.08.55-1.99,2.71-3.02,4.67-3.69,7.57-2.59,15.68-3.57,23.65-2.85.38-2.55-.09-5.23-1.31-7.5,3.14-1.73,6.86-2.38,10.4-1.82-1.8-2.05-2.75-4.82-2.59-7.54,3.2-.41,6.41-.83,9.61-1.24-3.64-2.52.22-8.7,4.64-9.03s8.52,2.26,12.9,2.87c4.95.69,12.65,1.42,11.46,6.28,7.17-4.77,18.61,1.03,19,9.63,4.64,2.53,10.33,1.07,15.61,1.34,5.28.26,11.5,4.38,9.96,9.43-.26-1.81,2.29-3.25,3.7-2.1.51,2.62,1.03,5.24,1.54,7.87,3.14-6.48,13.39-5.96,18.36-.76,4.97,5.2,6.07,12.88,6.93,20.03,4.86-3.12,12.25-1.03,14.76,4.18,2.51,5.21-.46,12.28-5.93,14.14,2.66-.35,5.47.97,6.9,3.24-8.84,3.35-18.37,4.32-27.83,4.32l-162.07-5.22Z"/>
  <path class="cls-5" d="m1929.41,1759.57c3-4.61,9.05-6.99,14.38-5.68-1.94-2.98-3.87-5.95-5.81-8.93,6.3-1.94,12.98-2.63,19.54-2.01-1.81-2.57.5-6.39,3.53-7.25,3.03-.86,6.22.25,9.17,1.35-4.15-4.32-8.29-8.64-12.44-12.97-1.62-1.68-3.36-3.84-2.74-6.08.55-1.99,2.71-3.02,4.67-3.69,7.57-2.59,15.68-3.57,23.65-2.85.38-2.55-.09-5.23-1.31-7.5,3.14-1.73,6.86-2.38,10.4-1.82-1.8-2.05-2.75-4.82-2.59-7.54,3.2-.41,6.41-.83,9.61-1.24-3.64-2.52.22-8.7,4.64-9.03s8.52,2.26,12.9,2.87c4.95.69,12.65,1.42,11.46,6.28,7.17-4.77,18.61,1.03,19,9.63,4.64,2.53,10.33,1.07,15.61,1.34,5.28.26,11.5,4.38,9.96,9.43-.26-1.81,2.29-3.25,3.7-2.1.51,2.62,1.03,5.24,1.54,7.87,3.14-6.48,13.39-5.96,18.36-.76,4.97,5.2,6.07,12.88,6.93,20.03,4.86-3.12,12.25-1.03,14.76,4.18s-.46,12.28-5.93,14.14c2.66-.35,5.47.97,6.9,3.24-8.84,3.35-18.37,4.32-27.83,4.32l-162.07-5.22Z"/>
  <path class="cls-5" d="m2680.25,1667.53c-4.67.66-9.42.9-14.14.9l-162.07-5.22c3-4.61,9.05-6.99,14.38-5.68-1.94-2.98-3.87-5.95-5.81-8.93,6.3-1.94,12.98-2.63,19.54-2.01-1.81-2.57.5-6.39,3.53-7.25s6.22.25,9.17,1.35c-4.15-4.32-8.29-8.64-12.44-12.97-1.62-1.68-3.36-3.84-2.74-6.08.55-1.99,2.71-3.02,4.67-3.69,7.57-2.59,15.68-3.57,23.65-2.85.38-2.55-.09-5.23-1.31-7.5,3.14-1.73,6.86-2.38,10.4-1.82-1.8-2.05-2.75-4.82-2.59-7.54,3.2-.41,6.41-.83,9.61-1.24-3.64-2.52.22-8.7,4.64-9.03s8.52,2.26,12.9,2.87c4.95.69,12.65,1.42,11.46,6.28,7.17-4.77,18.61,1.03,19,9.63,4.64,2.53,10.33,1.07,15.61,1.34,5.28.26,11.5,4.38,9.96,9.43-.26-1.81,2.29-3.25,3.7-2.1.51,2.62,1.03,5.24,1.54,7.87,3.14-6.48,13.39-5.96,18.36-.76,4.97,5.2,6.07,12.88,6.93,20.03"/>
  <path class="cls-4" d="m2289.34,1750.87h-44.07s-34.89,29.38-34.89,29.38l-32.13-32.13h-136.79s-25.8-10.1-25.8-10.1l.1-16.52c1.66-.03-12.85,0-12.85,0,1.6,1.14.61,1.19,0,12.4l-59.46-24.17-73.97,42.86-13.5-.59-54.01-25.83-22.31,12.92v-7.63s-9.98,0-9.98,0v12.92s-12.92,7.63-12.92,7.63h-62.23v-27.01s19.37.59,19.37.59l-11.74-12.33-8.81-1.17v-19.37s-67.52,0-67.52,0l-5.28,6.46-8.81,1.17-71.63-29.35-71.63,36.99h25.83v22.9h-10.57s-.59-14.09-.59-14.09h-18.2s-8.22,0-8.22,0v-45.21s-88.65-2.35-88.65-2.35l-17.61,14.68-32.88-.59-11.15,31.7h-22.31s0,98.5,0,98.5h1010.08s-6.68-64.43-4.89-62.64Z"/>
  <g>
    <polyline class="cls-4" points="2679.9 1583.3 2660.21 1587.24 2573.36 1618.97 2588.39 1625.65 2586.72 1662.4 2559.99 1659.06 2536.61 1659.06 2536.61 1639.01 2521.58 1639.01 2521.58 1657.39 2504.88 1655.72 2384.62 1684.11 2382.95 1714.18 2367.92 1709.16 2312.8 1719.19 2230.95 1755.93 2229.28 1809.38 2352.88 1812.72 2424.7 1782.66 2518.24 1821.07 2571.69 1792.68 2653.53 1849.47 2679.83 1849.47"/>
    <polyline class="cls-4" points="1973.74 1811.05 1972.07 1754.26 2102.35 1715.85 2219.26 1715.85 2219.26 1792.68 2245.99 1822.74 2245.99 1846.13"/>
  </g>
  <path class="cls-5" d="m1343.79,1697.4c3-4.61,9.05-6.99,14.38-5.68-1.94-2.98-3.87-5.95-5.81-8.93,6.3-1.94,12.98-2.63,19.54-2.01-1.81-2.57.5-6.39,3.53-7.25,3.03-.86,6.22.25,9.17,1.35-4.15-4.32-8.29-8.64-12.44-12.97-1.62-1.68-3.36-3.84-2.74-6.08.55-1.99,2.71-3.02,4.67-3.69,7.57-2.59,15.68-3.57,23.65-2.85.38-2.55-.09-5.23-1.31-7.5,3.14-1.73,6.86-2.38,10.4-1.82-1.8-2.05-2.75-4.82-2.59-7.54,3.2-.41,6.41-.83,9.61-1.24-3.64-2.52.22-8.7,4.64-9.03s8.52,2.26,12.9,2.87c4.95.69,12.65,1.42,11.46,6.28,7.17-4.77,18.61,1.03,19,9.63,4.64,2.53,10.33,1.07,15.61,1.34,5.28.26,11.5,4.38,9.96,9.43-.26-1.81,2.29-3.25,3.7-2.1.51,2.62,1.03,5.24,1.54,7.87,3.14-6.48,13.39-5.96,18.36-.76,4.97,5.2,6.07,12.88,6.93,20.03,4.86-3.12,12.25-1.03,14.76,4.18,2.51,5.21-.46,12.28-5.93,14.14,2.66-.35,5.47.97,6.9,3.24-8.84,3.35-18.37,4.32-27.83,4.32l-162.07-5.22Z"/>
  <path class="cls-5" d="m1385.56,1610.85c.53-1.52,1.07-3.04,1.6-4.56-3.39-.89-6.79-1.77-10.18-2.66.75-1.89-.49-4.31-2.47-4.8.77-1.34,1-2.98.6-4.47-.78.39-1.56.79-2.34,1.19,1.42-2.27,2.03-6.14.17-8.52-1.4-1.78-4.53-2.11-5.85-.27-.13-1.19-.95-2.29-2.06-2.75.92.38,1.69-5.66,1.62-6.26-1.29-.42-1.93.08-3.2.51-.67-.79-1.38-1.55-2.13-2.27-.51-.49-9.5,5.45-7.99,9.08-2.37.69-4.74,1.37-7.11,2.06-.59.17-1.2.36-1.64.78-.48.47-.67,1.15-.84,1.8-.63,2.38-1.26,4.77-1.88,7.15-1.89.11-3.77.21-5.66.32.22,1.26.49,2.52.8,3.76.5,2.01-6.39,15.71-1.29,14.44-3.44,1.55-4.14,7.02-1.19,9.38-1.75.76-3.57,1.59-4.75,3.09-1.17,1.5-1.43,3.91-.03,5.21-1.15-.1-2.88.73-2.16,1.64-2.64,2.09-4.05,5.64-3.54,8.97.51,3.33,2.9,6.31,6.05,7.51-1.18.49-2.42,1.02-3.16,2.06s-.71,2.74.39,3.37c-1.82-.15-3.63,1.24-3.97,3.03s.85,3.74,2.59,4.27c-.8.18-1.61.35-2.41.53-.77,2.79.98,6.03,3.73,6.91-3.59-2.54-5.93,17.76,4.29,20.97,3.29,1.03,6.84.09,10.29.03,4.59-.08,9.2,1.51,12.77,4.4,1.68,1.36,3.2,3.03,5.23,3.74,1.65.57,3.44.44,5.18.28,6.7-.65,13.34-1.81,19.86-3.47-2.23-.26-4.47-.51-6.7-.77,16.52,1.9,11.17-20.83,4.93-16.31,2.33.97,5.32-.18,6.39-2.47s.04-5.32-2.19-6.49c1.36-.24,2.48-1.46,2.61-2.83-1.17-.88-2.82-1.06-4.16-.46,2.25.06,4.44-1.58,5.03-3.75s-.48-4.69-2.45-5.78c1.22-.55,1.76-2.23,1.1-3.39s-2.37-1.56-3.47-.81c1.41-.25,2.98-.59,3.78-1.78s-.13-3.33-1.51-2.95c3.98-3.19,4.47-9.85,1.01-13.58.17-1.02.33-2.04.5-3.06-.98.02-1.97.04-2.95.06,2.04-1.89,2.83-5.01,1.95-7.65-1.26-.08-2.51-.15-3.77-.23,1.01-1.78,1.75-3.73,2.17-5.73-1.02-.08-2.04-.15-3.05-.23,3.19-.25,3.99-5.72,1-6.87.16-.45.32-.9.47-1.35Z"/>
  <rect class="cls-4" x="1219.51" y="1799.52" width="111.5" height="51.33"/>
  <rect class="cls-1" width="2680" height="1340"/>
</svg>