<?xml version="1.0" encoding="UTF-8"?>
<svg id="_2_Skyscraper_front" data-name="2_Skyscraper_front" xmlns="http://www.w3.org/2000/svg" xmlns:xlink="http://www.w3.org/1999/xlink" viewBox="0 0 2680.14 2010">
  <defs>
    <style>
      .cls-1, .cls-2, .cls-3, .cls-4, .cls-5 {
        fill: none;
      }

      .cls-6 {
        fill: url(#linear-gradient);
      }

      .cls-2 {
        clip-path: url(#clippath-3);
      }

      .cls-3 {
        clip-path: url(#clippath-2);
      }

      .cls-4 {
        clip-path: url(#clippath-1);
      }

      .cls-7, .cls-8 {
        fill: #001e7e;
      }

      .cls-9 {
        fill: #001455;
      }

      .cls-10, .cls-11 {
        fill: #f2a830;
      }

      .cls-12 {
        fill: #b7dbe7;
      }

      .cls-13 {
        fill: #1e4cc2;
      }

      .cls-14 {
        fill: #1942ba;
      }

      .cls-15, .cls-16 {
        fill: #0b319e;
      }

      .cls-17 {
        fill: #2b66de;
      }

      .cls-18 {
        fill: #2c63d9;
      }

      .cls-11 {
        stroke: #f2a830;
        stroke-width: 2px;
      }

      .cls-11, .cls-16, .cls-19, .cls-20 {
        stroke-miterlimit: 10;
      }

      .cls-16 {
        stroke: #0b319e;
      }

      .cls-19 {
        fill: url(#linear-gradient-3);
        stroke: url(#linear-gradient-4);
      }

      .cls-21 {
        fill: url(#linear-gradient-2);
      }

      .cls-22 {
        fill: url(#linear-gradient-6);
      }

      .cls-23 {
        fill: url(#linear-gradient-5);
      }

      .cls-20 {
        fill: red;
        stroke: red;
        stroke-width: 3px;
      }

      .cls-24 {
        fill: url(#linear-gradient-10);
      }

      .cls-25 {
        fill: url(#linear-gradient-11);
      }

      .cls-26 {
        fill: url(#linear-gradient-9);
      }

      .cls-26, .cls-27, .cls-28, .cls-8 {
        opacity: .6;
      }

      .cls-27 {
        fill: url(#linear-gradient-8);
      }

      .cls-28 {
        fill: url(#linear-gradient-7);
      }

      .cls-5 {
        clip-path: url(#clippath);
      }
    </style>
    <clipPath id="clippath">
      <polygon class="cls-1" points="1503 986.28 1503 1004.03 1499.62 1005.41 1499.75 1054.37 1494.5 1057.03 1494.5 1212.78 1489.75 1215.03 1489.75 1537.03 1457.5 1537.03 1457.5 1211.03 1469.4 1207.78 1469.4 1065.03 1476.1 1062.28 1476.1 1013.28 1480.3 1010.53 1480.05 995.78 1503 986.28"/>
    </clipPath>
    <linearGradient id="linear-gradient" x1="1755.25" y1="983.45" x2="1755.25" y2="1455.99" gradientUnits="userSpaceOnUse">
      <stop offset="0" stop-color="#7daec0"/>
      <stop offset="1" stop-color="#4a719d"/>
    </linearGradient>
    <linearGradient id="linear-gradient-2" x1="1705.76" y1="1567.67" x2="1705.76" y2="1106.32" gradientUnits="userSpaceOnUse">
      <stop offset="0" stop-color="#114f6e"/>
      <stop offset="1" stop-color="#2d80a0"/>
    </linearGradient>
    <linearGradient id="linear-gradient-3" x1="1423.25" y1="1044.63" x2="1423.25" y2="1455.01" gradientUnits="userSpaceOnUse">
      <stop offset="0" stop-color="#fff"/>
      <stop offset="1" stop-color="#48a5c2"/>
    </linearGradient>
    <linearGradient id="linear-gradient-4" x1="1359" y1="1417.21" x2="1487.5" y2="1417.21" gradientUnits="userSpaceOnUse">
      <stop offset="0" stop-color="#fff"/>
      <stop offset="1" stop-color="#48a5c2"/>
    </linearGradient>
    <linearGradient id="linear-gradient-5" x1="1294.87" y1="894.97" x2="1294.87" y2="1291.35" xlink:href="#linear-gradient-3"/>
    <linearGradient id="linear-gradient-6" x1="1540.25" y1="948.65" x2="1540.25" y2="1570.62" gradientUnits="userSpaceOnUse">
      <stop offset="0" stop-color="#ffd8c5"/>
      <stop offset="1" stop-color="#48a5c2"/>
    </linearGradient>
    <clipPath id="clippath-1">
      <path class="cls-1" d="m1506,1557.21l68.49,8.21v-335.67l-5.23-.62v-159.67l-6.35-1.13v-45.89l-3.73-.62v-11.79l-40.29-7.09v10.75l-3.14-.46v47.72l-5.35-.72v162.97h-4.4v334.01Z"/>
    </clipPath>
    <linearGradient id="linear-gradient-7" x1="1234.3" y1="1112.58" x2="1234.3" y2="1082.53" gradientUnits="userSpaceOnUse">
      <stop offset="0" stop-color="#24698c"/>
      <stop offset="1" stop-color="#3789aa"/>
    </linearGradient>
    <linearGradient id="linear-gradient-8" x1="1236.77" y1="1080.28" x2="1236.77" y2="1050.09" xlink:href="#linear-gradient-7"/>
    <linearGradient id="linear-gradient-9" x1="1240.33" y1="1048.02" x2="1240.33" y2="1012.6" xlink:href="#linear-gradient-7"/>
    <clipPath id="clippath-2">
      <polygon class="cls-1" points="1477.5 1547.03 1477.5 1212.36 1401.5 1205.03 1401.5 1545.7 1477.5 1547.03"/>
    </clipPath>
    <linearGradient id="linear-gradient-10" x1="1911.85" y1="1316.18" x2="1925.28" y2="1377.87" xlink:href="#linear-gradient-3"/>
    <linearGradient id="linear-gradient-11" x1="2019.26" y1="1400.56" x2="2029.3" y2="1446.68" xlink:href="#linear-gradient-3"/>
    <clipPath id="clippath-3">
      <polygon class="cls-1" points="1270.75 987.03 1271.21 999.03 1267.12 998.78 1267 1009.28 1262.56 1007.28 1262.43 1047.03 1258.86 1046.78 1258.86 1082.03 1256.42 1081.31 1256.42 1115.06 1252.13 1115.1 1252.13 1533.7 1333.08 1533.03 1333.08 1123.72 1329.79 1123.11 1329.79 1090.79 1326.96 1089.98 1326.96 1055.44 1324.94 1054.43 1324.94 1020.89 1319.28 1019.27 1319.28 1007.56 1315.44 1006.55 1315.44 994.02 1270.75 987.03"/>
    </clipPath>
  </defs>
  <polygon class="cls-13" points="8.93 1457.03 124.09 1457.03 124.09 1447.03 179.89 1447.03 179.89 1463.03 201.81 1463.03 212.27 1452.53 254.62 1452.53 254.62 1444.03 288.5 1444.03 288.5 1453.03 397.12 1453.03 397.12 1466.03 422.03 1466.03 436.97 1466.03 436.97 1490.03 460.89 1490.03 460.89 1477.03 472.85 1477.03 472.85 1442.03 502.74 1442.03 502.74 1432.03 525.66 1432.03 525.66 1441.03 562.53 1441.03 562.53 1421.03 732.92 1421.03 732.92 1402.03 762.82 1402.03 762.82 1389.03 850.5 1389.03 850.5 1405.03 862.46 1405.03 862.46 1421.03 897.34 1421.03 897.34 1355.03 914.28 1355.03 914.28 1348.03 928.23 1348.03 991 1348.03 991 1449.03 1084.34 1449.03 1162.06 1449.03 1860.91 1449.03 1860.91 1368.43 1880.18 1368.43 1880.18 1361.17 1890.14 1342.36 1912.09 1342.36 1922.79 1361.17 1922.79 1368.43 1945.28 1368.43 1945.28 1440.36 1949.93 1440.36 2074.15 1440.36 2074.15 1469.03 2118.66 1469.03 2118.66 1325.25 2201.03 1325.25 2201.03 1407.7 2208.34 1407.7 2208.34 1391.7 2271.45 1391.7 2271.45 1447.03 2281.42 1447.03 2284.74 1443.7 2319.94 1443.7 2319.94 1433.7 2397.67 1433.7 2397.67 1449.7 2410.29 1449.7 2410.29 1462.36 2432.21 1462.36 2432.21 1467.7 2459.45 1467.7 2459.45 1478.53 2479.21 1478.53 2479.21 1466.03 2486.19 1466.03 2486.19 1461.03 2519.07 1461.03 2519.07 1464.53 2528.54 1464.53 2528.54 1479.03 2558.43 1479.03 2558.43 1405.03 2564.91 1405.03 2564.91 1383.53 2628.68 1383.53 2628.68 1391.03 2635.66 1391.03 2635.66 1451.53 2664.55 1451.53 2664.55 1456.03 2679.57 1456.03 2679.57 1649.62 8.93 1649.62 8.93 1457.03"/>
  <rect class="cls-7" x="1801.48" y="1613.86" width="239.68" height="58.49"/>
  <rect class="cls-13" x="1811.21" y="1623.1" width="221.5" height="28.4"/>
  <rect class="cls-7" x="1816.73" y="1628.26" width="18.34" height="18.34"/>
  <rect class="cls-7" x="1840.73" y="1628.26" width="18.34" height="18.34"/>
  <rect class="cls-7" x="1864.73" y="1628.26" width="18.34" height="18.34"/>
  <rect class="cls-7" x="1888.73" y="1628.26" width="18.34" height="18.34"/>
  <rect class="cls-7" x="1912.73" y="1628.26" width="18.34" height="18.34"/>
  <rect class="cls-7" x="1936.73" y="1628.26" width="18.34" height="18.34"/>
  <rect class="cls-7" x="1960.73" y="1628.26" width="18.34" height="18.34"/>
  <rect class="cls-7" x="1984.73" y="1628.26" width="18.34" height="18.34"/>
  <rect class="cls-7" x="2008.73" y="1628.26" width="18.34" height="18.34"/>
  <path class="cls-15" d="m658.62,1602.41v4l-127.81-.06-4.84-7.31h-164.79v-4h85.32v-10h128v17.38h84.12Z"/>
  <g id="Layer_2" data-name="Layer 2">
    <polygon class="cls-13" points="0 1457.03 115.56 1457.03 115.56 1447.03 171.56 1447.03 171.56 1463.03 193.56 1463.03 204.06 1452.53 246.55 1452.53 246.55 1444.03 280.55 1444.03 280.55 1453.03 389.55 1453.03 389.55 1466.03 414.54 1466.03 429.54 1466.03 429.54 1490.03 453.54 1490.03 453.54 1477.03 465.54 1477.03 465.54 1442.03 495.54 1442.03 495.54 1432.03 518.54 1432.03 518.54 1441.03 555.54 1441.03 555.54 1421.03 726.53 1421.03 726.53 1402.03 756.53 1402.03 756.53 1389.03 844.52 1389.03 844.52 1405.03 856.52 1405.03 856.52 1421.03 891.52 1421.03 891.52 1355.03 908.52 1355.03 908.52 1348.03 922.52 1348.03 985.52 1348.03 985.52 1449.03 1079.18 1449.03 1157.17 1449.03 1858.47 1449.03 1858.47 1368.43 1877.8 1368.43 1877.8 1361.17 1887.8 1342.36 1909.83 1342.36 1920.57 1361.17 1920.57 1368.43 1943.13 1368.43 1943.13 1440.36 1947.8 1440.36 2072.46 1440.36 2072.46 1469.03 2117.12 1469.03 2117.12 1325.25 2199.78 1325.25 2199.78 1407.7 2207.12 1407.7 2207.12 1391.7 2270.45 1391.7 2270.45 1447.03 2280.45 1447.03 2283.78 1443.7 2319.11 1443.7 2319.11 1433.7 2397.11 1433.7 2397.11 1449.7 2409.77 1449.7 2409.77 1462.36 2431.77 1462.36 2431.77 1467.7 2459.1 1467.7 2459.1 1478.53 2478.94 1478.53 2478.94 1466.03 2485.94 1466.03 2485.94 1461.03 2518.94 1461.03 2518.94 1464.53 2528.43 1464.53 2528.43 1479.03 2558.43 1479.03 2558.43 1405.03 2564.93 1405.03 2564.93 1383.53 2628.93 1383.53 2628.93 1391.03 2635.93 1391.03 2635.93 1451.53 2664.93 1451.53 2664.93 1456.03 2680 1456.03 2680 1730 0 1730 0 1457.03"/>
    <rect class="cls-9" y="1610" width="2680" height="400"/>
    <rect class="cls-7" x="485" y="1541.53" width="352.5" height="79.39"/>
    <rect class="cls-15" x="883" y="1541.53" width="144" height="93.5"/>
    <rect class="cls-17" x="1361.99" y="1558.54" width="161.51" height="85.49"/>
    <rect class="cls-15" x="2052.83" y="1530.36" width="50.67" height="95.33"/>
    <rect class="cls-15" x="2070.16" y="1518.36" width="57.33" height="124"/>
    <rect class="cls-7" x="2158.69" y="1525.84" width="272.1" height="88.15"/>
    <polygon class="cls-13" points="1084.43 1312.75 1137.28 1308.86 1137.28 1285.7 1148.78 1284.42 1148.78 1266.86 1215.98 1259.48 1215.98 1119.14 1219.26 1118.43 1219.26 1086.75 1221.3 1086.16 1221.3 1055.65 1223.79 1054.92 1223.79 1026.31 1225.83 1025.5 1225.83 1018.71 1230.95 1016.98 1230.95 1013.71 1234.28 1012.65 1234.28 1005.63 1237.62 1004.7 1237.62 997.42 1268.97 986.68 1318.16 994.31 1318 1001.7 1321.58 1002.65 1321.58 1010.37 1324.91 1010.98 1324.91 1016.03 1330.04 1016.98 1330.04 1025.87 1332.07 1026.31 1332.07 1055.28 1334.56 1055.65 1334.56 1089.58 1336.6 1090.31 1336.6 1123.62 1339.88 1124.31 1339.88 1307.48 1394.16 1315.99 1405.08 1577.03 1085.52 1577.03 1084.43 1312.75"/>
    <polygon class="cls-13" points="1584.5 1566.08 1584.5 1223.82 1579.27 1223.82 1579.27 1064.98 1572.92 1064.98 1572.92 1014.31 1569.19 1014.31 1569.19 1001.65 1509 991.03 1475.47 1001.65 1475.47 1014.31 1471.73 1015.46 1471.73 1059.78 1465.38 1061.85 1465.38 1223.82 1460.16 1223.82 1460.16 1566.08 1584.5 1566.08"/>
    <g class="cls-5">
      <path class="cls-15" d="m1464.1,1015.55l-1.93-5.68,47.69-16.17,1.93,5.68-47.69,16.17Zm-1.97,5.87l1.9,5.69,47.46-15.82-1.9-5.69-47.46,15.82Zm-.05,11.55l1.87,5.7,47.23-15.47-1.87-5.7-47.23,15.47Zm-.05,11.55l1.84,5.71,46.99-15.12-1.84-5.71-46.99,15.12Zm-.05,11.55l1.81,5.72,46.76-14.77-1.81-5.72-46.76,14.77Zm-.05,11.55l1.78,5.73,46.53-14.42-1.78-5.73-46.53,14.41Zm-.05,11.55l1.74,5.74,46.3-14.06-1.74-5.74-46.3,14.06Zm-.05,11.55l1.71,5.75,46.07-13.71-1.71-5.75-46.07,13.71Zm-.05,11.55l1.68,5.76,45.83-13.36-1.68-5.76-45.84,13.36Zm-.04,11.55l1.65,5.77,45.6-13.01-1.65-5.77-45.6,13.01Zm-.04,11.55l1.61,5.78,45.37-12.66-1.61-5.78-45.37,12.66Zm-.04,11.55l1.58,5.79,45.14-12.3-1.58-5.79-45.14,12.3Zm-.04,11.55l1.54,5.8,44.91-11.95-1.54-5.8-44.91,11.95Zm-.04,11.55l1.51,5.81,44.67-11.6-1.51-5.81-44.67,11.6Zm-.04,11.55l1.47,5.82,44.44-11.25-1.47-5.82-44.44,11.25Zm-.04,11.55l1.44,5.83,44.21-10.9-1.44-5.83-44.21,10.9Zm-.04,11.55l1.4,5.83,43.98-10.54-1.4-5.83-43.98,10.54Zm-.04,11.55l1.36,5.84,43.75-10.19-1.36-5.84-43.75,10.19Zm-.04,11.55l1.32,5.85,43.51-9.84-1.32-5.85-43.51,9.84Zm-.04,11.55l1.29,5.86,43.28-9.49-1.29-5.86-43.28,9.49Zm-.04,11.55l1.25,5.87,43.05-9.14-1.25-5.87-43.05,9.14Zm-.04,11.55l1.21,5.88,42.82-8.79-1.21-5.88-42.82,8.79Zm-.04,11.55l1.17,5.89,42.58-8.43-1.17-5.89-42.58,8.43Zm-.04,11.55l1.12,5.89,42.35-8.08-1.12-5.89-42.35,8.08Zm-.04,11.55l1.08,5.9,42.12-7.73-1.08-5.9-42.12,7.73Zm-.04,11.55l1.04,5.91,41.89-7.38-1.04-5.91-41.89,7.38Zm-.04,11.55l1,5.92,41.66-7.03-1-5.92-41.66,7.03Zm-.04,11.55l.95,5.92,41.43-6.67-.95-5.92-41.43,6.67Zm-.04,11.55l.91,5.93,41.19-6.32-.91-5.93-41.19,6.32Zm-.04,11.55l.87,5.94,40.96-5.97-.87-5.94-40.96,5.97Zm-.04,11.55l.82,5.94,40.73-5.62-.82-5.94-40.73,5.62Zm-.04,11.55l.77,5.95,40.5-5.27-.77-5.95-40.5,5.27Zm-.04,11.55l.73,5.96,40.27-4.92-.73-5.96-40.27,4.91Zm-.04,11.55l.68,5.96,40.03-4.56-.68-5.96-40.03,4.56Zm-.04,11.55l.63,5.97,39.8-4.21-.63-5.97-39.8,4.21Zm-.04,11.55l.58,5.97,39.57-3.86-.58-5.97-39.57,3.86Zm-.04,11.55l.53,5.98,39.34-3.51-.53-5.98-39.34,3.51Zm-.04,11.55l.48,5.98,39.11-3.16-.48-5.98-39.11,3.16Zm-.04,11.55l.43,5.98,38.87-2.8-.43-5.98-38.87,2.8Zm-.04,11.55l.38,5.99,38.64-2.45-.38-5.99-38.64,2.45Zm-.03,11.55l.33,5.99,38.41-2.1-.33-5.99-38.41,2.1Zm-.04,11.55l.27,5.99,38.18-1.75-.27-5.99-38.18,1.75Zm-.03,11.55l.22,6,37.95-1.4-.22-6-37.95,1.4Zm-.04,11.55l.17,6,37.71-1.04-.17-6-37.71,1.04Zm-.03,11.55l.11,6,37.48-.69-.11-6-37.48.69Zm-.03,11.55l.05,6,37.25-.34-.05-6-37.25.34Z"/>
    </g>
    <rect class="cls-15" x="343.25" y="1475.78" width="94.25" height="87"/>
    <rect class="cls-15" x="433.75" y="1490.53" width="89" height="72.25"/>
    <polygon class="cls-15" points="51.05 1543.78 51.05 1512.53 78.82 1512.53 78.82 1502.53 137.38 1502.53 137.38 1490.53 293.87 1490.53 293.87 1505.03 343.85 1505.03 343.85 1540.03 349.4 1540.03 349.4 1532.53 401.4 1532.53 401.4 1546.03 486.21 1546.03 486.21 1587.53 0 1587.53 0 1543.78 51.05 1543.78"/>
    <rect class="cls-7" x="835" y="1502.03" width="133" height="48"/>
    <rect class="cls-7" x="819.5" y="1532.03" width="76" height="66.5"/>
    <rect class="cls-15" x="1010" y="1519.03" width="83.5" height="59.43"/>
    <rect class="cls-13" x="1960.83" y="1419.03" width="67.33" height="148.58"/>
    <path class="cls-6" d="m1722.28,1033.98l29.91-4.82,41.56,9.1c12.81,80.84,12.13,111.89,12.13,185.89v310.55h-101.26l17.66-500.72Z"/>
    <path class="cls-21" d="m1739.11,1109.14c0,24.25-.12,436.63-.12,436.63h-76.69s-2.76-412.38-2.76-436.63c0-41.27,12.88-75.73,12.88-75.73l79.57-4.82s-12.88,39.28-12.88,80.55Z"/>
    <path class="cls-14" d="m1739.11,1109.14c0,24.25-.12,436.63-.12,436.63h-76.69s-2.76-412.38-2.76-436.63c0-41.27,12.88-75.73,12.88-75.73l79.57-4.82s-12.88,39.28-12.88,80.55Z"/>
    <rect class="cls-13" x="1790.66" y="1469.69" width="44.28" height="84.68"/>
    <polygon class="cls-19" points="1359.5 1643.04 1359.5 1209.87 1393 1202.03 1400.25 1191.41 1454 1195.25 1459.33 1205.87 1487 1208.87 1487 1643.04 1359.5 1643.04"/>
    <polygon class="cls-16" points="1392.83 1202.03 1359.5 1209.87 1359.5 1645.28 1392.83 1645.28 1392.83 1202.03"/>
    <polygon class="cls-23" points="1339.88 1307.48 1339.88 1124.31 1336.6 1123.62 1336.6 1090.31 1334.56 1089.58 1334.56 1055.65 1332.07 1055.28 1332.07 1026.31 1330.04 1025.87 1330.04 1016.98 1324.91 1016.03 1324.91 1010.98 1321.58 1010.37 1321.58 1002.65 1318 1001.7 1318.16 994.31 1269.67 986.82 1268.75 986.76 1267.83 987.09 1267.83 996.03 1265 995.37 1265 1004.78 1261 1003.87 1261 1009.03 1256.5 1008.03 1256.5 1047.03 1252.16 1046.53 1252.16 1079.53 1249 1078.87 1249 1113.37 1244.33 1113.03 1244.33 1538.63 1345.41 1538.63 1345.41 1308.21 1339.88 1307.48"/>
    <path class="cls-15" d="m1748.5,1064.03l21.96-3.35,25.04,3.35v474h-32v-413c0-38-15-61-15-61Z"/>
    <polygon class="cls-13" points="1770.5 1538.03 1795.5 1538.03 1795.5 1064.03 1770.5 1060.68 1770.5 1538.03"/>
    <polygon class="cls-22" points="1579.27 1222.8 1579.27 1064.98 1572.92 1064.03 1572.92 1014.31 1569.19 1013.53 1569.19 1001.65 1508.9 991.03 1508.9 1003.7 1505.75 1003.16 1505.75 1054.37 1500.4 1053.37 1500.4 1213.57 1496 1213.21 1496 1601.7 1584.5 1601.37 1584.5 1223.38 1579.27 1222.8"/>
    <g class="cls-4">
      <path class="cls-15" d="m1584.74,1020.93l-96.41-16.64,1.02-5.91,96.41,16.64-1.02,5.91Zm1.19,5.52l-96.59-16.28-1,5.92,96.59,16.28,1-5.92Zm.17,11.44l-96.76-15.92-.97,5.92,96.76,15.92.97-5.92Zm.17,11.44l-96.93-15.56-.95,5.92,96.93,15.56.95-5.92Zm.17,11.44l-97.1-15.2-.93,5.93,97.1,15.2.93-5.93Zm.17,11.44l-97.27-14.83-.9,5.93,97.27,14.83.9-5.93Zm.17,11.44l-97.45-14.47-.88,5.93,97.45,14.47.88-5.93Zm.17,11.44l-97.62-14.11-.86,5.94,97.62,14.11.86-5.94Zm.17,11.44l-97.79-13.75-.83,5.94,97.79,13.75.83-5.94Zm.17,11.44l-97.96-13.38-.81,5.94,97.96,13.38.81-5.94Zm.17,11.44l-98.14-13.02-.79,5.95,98.14,13.02.79-5.95Zm.17,11.44l-98.31-12.66-.77,5.95,98.31,12.66.77-5.95Zm.17,11.44l-98.48-12.3-.74,5.95,98.48,12.3.74-5.95Zm.17,11.44l-98.65-11.93-.72,5.96,98.65,11.93.72-5.96Zm.17,11.44l-98.82-11.57-.7,5.96,98.83,11.57.7-5.96Zm.17,11.44l-99-11.21-.68,5.96,99,11.21.67-5.96Zm.17,11.44l-99.17-10.85-.65,5.96,99.17,10.85.65-5.96Zm.17,11.44l-99.34-10.48-.63,5.97,99.34,10.48.63-5.97Zm.17,11.44l-99.51-10.12-.61,5.97,99.51,10.12.61-5.97Zm.17,11.44l-99.69-9.76-.58,5.97,99.69,9.76.59-5.97Zm.17,11.44l-99.86-9.4-.56,5.97,99.86,9.4.56-5.97Zm.17,11.44l-100.03-9.04-.54,5.97,100.03,9.04.54-5.98Zm.17,11.44l-100.2-8.67-.52,5.98,100.2,8.67.52-5.98Zm.17,11.44l-100.38-8.31-.49,5.98,100.37,8.31.5-5.98Zm.17,11.44l-100.55-7.95-.47,5.98,100.55,7.95.47-5.98Zm.17,11.44l-100.72-7.59-.45,5.98,100.72,7.59.45-5.98Zm.17,11.44l-100.89-7.22-.43,5.98,100.89,7.22.43-5.98Zm.17,11.44l-101.06-6.86-.41,5.99,101.06,6.86.41-5.99Zm.17,11.44l-101.24-6.5-.38,5.99,101.24,6.5.38-5.99Zm.17,11.44l-101.41-6.14-.36,5.99,101.41,6.14.36-5.99Zm.17,11.44l-101.58-5.78-.34,5.99,101.58,5.78.34-5.99Zm.17,11.44l-101.75-5.41-.32,5.99,101.75,5.41.32-5.99Zm.17,11.44l-101.92-5.05-.3,5.99,101.92,5.05.3-5.99Zm.17,11.44l-102.1-4.69-.28,5.99,102.1,4.69.28-5.99Zm.17,11.44l-102.27-4.33-.25,5.99,102.27,4.33.25-6Zm.17,11.44l-102.44-3.96-.23,6,102.44,3.96.23-6Zm.17,11.44l-102.61-3.6-.21,6,102.61,3.6.21-6Zm.17,11.44l-102.79-3.24-.19,6,102.79,3.24.19-6Zm.17,11.44l-102.96-2.88-.17,6,102.96,2.88.17-6Zm.17,11.44l-103.13-2.51-.15,6,103.13,2.51.15-6Zm.17,11.44l-103.3-2.15-.12,6,103.3,2.15.12-6Zm.17,11.44l-103.47-1.79-.1,6,103.47,1.79.1-6Zm.17,11.44l-103.65-1.43-.08,6,103.65,1.43.08-6Zm.17,11.44l-103.82-1.07-.06,6,103.82,1.07.06-6Zm.17,11.44l-103.99-.7-.04,6,103.99.7.04-6Zm-103.99,11.1l-.02,6,104.16.34.02-6-104.16-.34Z"/>
    </g>
    <path class="cls-15" d="m1096.86,1336.71l-.43-6.99,129.92-7.94.43,6.99-129.92,7.94Zm-.4,17.89l.38,6.99,129.92-6.97-.38-6.99-129.92,6.97Zm.03,24.87l.32,6.99,129.92-6-.32-6.99-129.92,6Zm.03,24.87l.27,7,129.92-5.03-.27-7-129.92,5.03Zm.03,24.87l.22,7,129.92-4.06-.22-7-129.92,4.06Zm.03,24.87l.17,7,129.92-3.09-.17-7-129.92,3.09Zm.03,24.87l.11,7,129.92-2.12-.11-7-129.92,2.12Zm.03,24.87l.06,7,129.92-1.15-.06-7-129.92,1.15Zm.03,24.87v7s129.93-.18,129.93-.18v-7s-129.93.18-129.93.18Z"/>
    <polygon class="cls-15" points="1227.63 1301.78 1149.99 1307.84 1149.99 1291.6 1227.63 1284.03 1227.63 1301.78"/>
    <g>
      <polygon class="cls-15" points="1149.99 1291.66 1155.37 1295.41 1155.37 1307.42 1160.62 1307.01 1160.62 1290.56 1149.99 1291.6 1149.99 1291.66"/>
      <polygon class="cls-15" points="1222.75 1288.91 1222.75 1302.17 1227.63 1301.78 1227.63 1284.03 1217.2 1285.05 1222.75 1288.91"/>
      <polygon class="cls-15" points="1173.75 1305.99 1173.75 1289.28 1163.15 1290.31 1168.5 1294.03 1168.5 1306.4 1173.75 1305.99"/>
      <polygon class="cls-15" points="1214.87 1302.78 1214.87 1285.27 1203.95 1286.34 1209.62 1290.28 1209.62 1303.19 1214.87 1302.78"/>
      <polygon class="cls-15" points="1200.87 1303.87 1200.87 1286.64 1190.26 1287.67 1195.62 1291.41 1195.62 1304.28 1200.87 1303.87"/>
      <polygon class="cls-15" points="1187.5 1304.92 1187.5 1287.94 1176.79 1288.99 1182.25 1292.78 1182.25 1305.33 1187.5 1304.92"/>
    </g>
    <polygon class="cls-28" points="1219.26 1086.75 1249.33 1078.87 1248.83 1113.53 1245.5 1113.2 1219.26 1118.43 1219.26 1086.75"/>
    <polygon class="cls-27" points="1221.3 1055.65 1252.25 1046.41 1252 1079.53 1249.33 1078.87 1221.3 1086.16 1221.3 1055.65"/>
    <polygon class="cls-26" points="1223.79 1054.92 1223.79 1026.31 1225.83 1025.5 1225.83 1018.71 1256.87 1008.28 1256.5 1047.16 1252.25 1046.41 1223.79 1054.92"/>
    <rect class="cls-8" x="2318.37" y="1509.24" width="263.16" height="75.37"/>
    <rect class="cls-7" x="2245.55" y="1495.19" width="118.8" height="56.21"/>
    <rect class="cls-7" x="2544.48" y="1533.51" width="137.26" height="39.6"/>
    <polygon class="cls-15" points="1457.16 1205.87 1453.12 1197.03 1401.75 1193.66 1395.62 1202.03 1457.16 1205.87"/>
    <polygon class="cls-7" points="608.27 1494.03 608.27 1499.53 613.89 1499.53 613.89 1496.37 638.89 1496.37 638.89 1499.53 644.52 1499.53 644.52 1494.03 608.27 1494.03"/>
    <polygon class="cls-7" points="608.27 1501.37 608.27 1506.87 613.89 1506.87 613.89 1503.7 638.89 1503.7 638.89 1506.87 644.52 1506.87 644.52 1501.37 608.27 1501.37"/>
    <polygon class="cls-7" points="608.27 1508.7 608.27 1514.2 613.89 1514.2 613.89 1511.03 638.89 1511.03 638.89 1514.2 644.52 1514.2 644.52 1508.7 608.27 1508.7"/>
    <polygon class="cls-7" points="608.27 1516.03 608.27 1521.53 613.89 1521.53 613.89 1518.37 638.89 1518.37 638.89 1521.53 644.52 1521.53 644.52 1516.03 608.27 1516.03"/>
    <polygon class="cls-7" points="608.27 1523.37 608.27 1528.87 613.89 1528.87 613.89 1525.7 638.89 1525.7 638.89 1528.87 644.52 1528.87 644.52 1523.37 608.27 1523.37"/>
    <polygon class="cls-7" points="608.27 1530.7 608.27 1536.2 613.89 1536.2 613.89 1533.03 638.89 1533.03 638.89 1536.2 644.52 1536.2 644.52 1530.7 608.27 1530.7"/>
    <polygon class="cls-7" points="608.27 1538.03 608.27 1543.53 613.89 1543.53 613.89 1540.37 638.89 1540.37 638.89 1543.53 644.52 1543.53 644.52 1538.03 608.27 1538.03"/>
    <polygon class="cls-7" points="647.1 1494.03 647.1 1499.53 655.7 1499.53 655.7 1496.37 693.92 1496.37 693.92 1499.53 702.52 1499.53 702.52 1494.03 647.1 1494.03"/>
    <polygon class="cls-7" points="647.1 1501.37 647.1 1506.87 655.7 1506.87 655.7 1503.7 693.92 1503.7 693.92 1506.87 702.52 1506.87 702.52 1501.37 647.1 1501.37"/>
    <polygon class="cls-7" points="647.1 1508.7 647.1 1514.2 655.7 1514.2 655.7 1511.03 693.92 1511.03 693.92 1514.2 702.52 1514.2 702.52 1508.7 647.1 1508.7"/>
    <polygon class="cls-7" points="647.1 1516.03 647.1 1521.53 655.7 1521.53 655.7 1518.37 693.92 1518.37 693.92 1521.53 702.52 1521.53 702.52 1516.03 647.1 1516.03"/>
    <polygon class="cls-7" points="647.1 1523.37 647.1 1528.87 655.7 1528.87 655.7 1525.7 693.92 1525.7 693.92 1528.87 702.52 1528.87 702.52 1523.37 647.1 1523.37"/>
    <polygon class="cls-7" points="647.1 1530.7 647.1 1536.2 655.7 1536.2 655.7 1533.03 693.92 1533.03 693.92 1536.2 702.52 1536.2 702.52 1530.7 647.1 1530.7"/>
    <polygon class="cls-7" points="647.1 1538.03 647.1 1543.53 655.7 1543.53 655.7 1540.37 693.92 1540.37 693.92 1543.53 702.52 1543.53 702.52 1538.03 647.1 1538.03"/>
    <polygon class="cls-7" points="704.93 1494.03 704.93 1499.53 707.11 1499.53 707.11 1496.37 792.44 1496.37 792.44 1499.53 808.52 1499.53 808.52 1494.03 704.93 1494.03"/>
    <polygon class="cls-7" points="704.93 1501.37 704.93 1506.87 707.11 1506.87 707.11 1503.7 792.44 1503.7 792.44 1506.87 808.52 1506.87 808.52 1501.37 704.93 1501.37"/>
    <polygon class="cls-7" points="704.93 1508.7 704.93 1514.2 707.11 1514.2 707.11 1511.03 792.44 1511.03 792.44 1514.2 808.52 1514.2 808.52 1508.7 704.93 1508.7"/>
    <polygon class="cls-7" points="704.93 1516.03 704.93 1521.53 707.11 1521.53 707.11 1518.37 792.44 1518.37 792.44 1521.53 808.52 1521.53 808.52 1516.03 704.93 1516.03"/>
    <polygon class="cls-7" points="704.93 1523.37 704.93 1528.87 707.11 1528.87 707.11 1525.7 792.44 1525.7 792.44 1528.87 808.52 1528.87 808.52 1523.37 704.93 1523.37"/>
    <polygon class="cls-7" points="704.93 1530.7 704.93 1536.2 707.11 1536.2 707.11 1533.03 792.44 1533.03 792.44 1536.2 808.52 1536.2 808.52 1530.7 704.93 1530.7"/>
    <polygon class="cls-7" points="704.93 1538.03 704.93 1543.53 707.11 1543.53 707.11 1540.37 792.44 1540.37 792.44 1543.53 808.52 1543.53 808.52 1538.03 704.93 1538.03"/>
    <path class="cls-7" d="m256.25,1535.38v21.31h-48.4l-.12-7.31h-79.47v-14h128Z"/>
    <rect class="cls-7" x="105.21" y="1535.38" width="14.88" height="14"/>
    <g class="cls-3">
      <path class="cls-15" d="m1485.72,1233.41l-99.51-7.03.42-13.99,99.51,7.03-.42,13.99Zm.6,5.45l-99.69-6.78-.41,5.99,99.69,6.78.41-5.99Zm.18,11.44l-99.86-6.53-.39,5.99,99.86,6.54.39-5.99Zm.18,11.44l-100.03-6.29-.38,5.99,100.03,6.29.38-5.99Zm.18,11.44l-100.2-6.04-.36,5.99,100.2,6.04.36-5.99Zm.18,11.44l-100.37-5.79-.35,5.99,100.37,5.79.35-5.99Zm.18,11.44l-100.55-5.54-.33,5.99,100.55,5.54.33-5.99Zm.17,11.44l-100.72-5.3-.32,5.99,100.72,5.3.32-5.99Zm.18,11.44l-100.89-5.05-.3,5.99,100.89,5.05.3-5.99Zm.18,11.44l-101.06-4.8-.28,5.99,101.06,4.8.29-5.99Zm.17,11.44l-101.24-4.55-.27,5.99,101.24,4.55.27-5.99Zm.18,11.44l-101.41-4.31-.25,5.99,101.41,4.31.25-5.99Zm.18,11.44l-101.58-4.06-.24,6,101.58,4.06.24-6Zm.18,11.44l-101.75-3.81-.22,6,101.75,3.81.22-6Zm.18,11.44l-101.92-3.56-.21,6,101.92,3.56.21-6Zm.18,11.44l-102.1-3.31-.19,6,102.1,3.31.2-6Zm.18,11.44l-102.27-3.07-.18,6,102.27,3.07.18-6Zm.18,11.44l-102.44-2.82-.16,6,102.44,2.82.17-6Zm.18,11.44l-102.61-2.57-.15,6,102.61,2.57.15-6Zm.18,11.44l-102.79-2.32-.13,6,102.78,2.32.14-6Zm.18,11.44l-102.96-2.07-.12,6,102.96,2.08.12-6Zm.18,11.44l-103.13-1.83-.11,6,103.13,1.83.11-6Zm.18,11.44l-103.3-1.58-.09,6,103.3,1.58.09-6Zm.18,11.44l-103.47-1.33-.08,6,103.47,1.33.08-6Zm.17,11.44l-103.65-1.08-.06,6,103.65,1.08.06-6Zm.18,11.44l-103.82-.84-.05,6,103.82.84.05-6Zm.18,11.44l-103.99-.59-.03,6,103.99.59.03-6Zm-103.99,11.1l-.02,6,104.16.34.02-6-104.16-.34Z"/>
    </g>
    <polygon class="cls-24" points="1929.6 1368.08 1929.6 1361.17 1918.86 1342.36 1909.61 1342.36 1916.69 1361.66 1916.69 1368.08 1929.6 1368.08"/>
    <rect class="cls-25" x="2023" y="1418.96" width="5.18" height="21.35"/>
    <g>
      <path class="cls-7" d="m1667.6,1404.19c.01,2.01.03,4.01.04,6l63.73-1.39c0-1.99,0-3.99,0-6l-63.77,1.39Z"/>
      <path class="cls-7" d="m1667.52,1392.61c.01,2.01.03,4.01.04,6l63.81-1.49c0-1.99,0-3.99,0-6l-63.85,1.49Z"/>
      <path class="cls-7" d="m1667.45,1381.02c.01,2.01.03,4.01.04,6l63.89-1.59c0-1.99,0-4,0-6l-63.93,1.59Z"/>
      <path class="cls-7" d="m1667.67,1415.78c.01,2.01.03,4.01.04,6l63.65-1.29c0-1.99,0-3.99,0-6l-63.69,1.29Z"/>
      <path class="cls-7" d="m1667.29,1357.85c.01,2,.03,4.01.04,6l64.05-1.79c0-2,0-4,0-6l-64.09,1.79Z"/>
      <path class="cls-7" d="m1667.14,1334.68c.01,2,.03,4,.04,6l64.21-1.98c0-2,0-4,0-6l-64.25,1.98Z"/>
      <path class="cls-7" d="m1667.37,1369.43c.01,2,.03,4.01.04,6l63.97-1.69c0-2,0-4,0-6l-64.01,1.69Z"/>
      <path class="cls-7" d="m1667.07,1323.1c.01,2,.03,4,.04,6l64.28-2.08c0-2,0-4,0-6l-64.32,2.08Z"/>
      <path class="cls-7" d="m1667.22,1346.27c.01,2,.03,4,.04,6l64.12-1.88c0-2,0-4,0-6l-64.17,1.89Z"/>
      <path class="cls-7" d="m1667.75,1427.37c.01,2.02.03,4.01.04,6l63.57-1.19c0-1.98,0-3.99,0-6l-63.61,1.19Z"/>
      <path class="cls-7" d="m1666.99,1311.52c.01,2,.03,4,.04,6l64.36-2.18c0-2,0-4,0-6l-64.4,2.18Z"/>
      <path class="cls-7" d="m1668.36,1520.11c.01,2.12.03,4.12.04,6l62.93-.39c0-1.88,0-3.89,0-6l-62.97.39Z"/>
      <path class="cls-7" d="m1668.21,1496.92c.01,2.05.03,4.05.04,6l63.09-.59c0-1.95,0-3.95,0-6l-63.13.59Z"/>
      <path class="cls-7" d="m1668.29,1508.52c.01,2.08.03,4.08.04,6l63.01-.49c0-1.93,0-3.93,0-6l-63.05.49Z"/>
      <path class="cls-7" d="m1668.44,1531.71c.01,2.26.03,4.26.04,6l62.85-.29c0-1.75,0-3.75,0-6l-62.89.29Z"/>
      <path class="cls-7" d="m1668.52,1543.3c.01,1.61.02,2.46.02,2.46h62.79s0-.91,0-2.65l-62.81.19Z"/>
      <path class="cls-7" d="m1668.06,1473.73c.01,2.03.03,4.03.04,6l63.25-.79c0-1.97,0-3.97,0-6l-63.29.79Z"/>
      <path class="cls-7" d="m1667.98,1462.14c.01,2.03.03,4.02.04,6l63.33-.89c0-1.98,0-3.97,0-6l-63.37.89Z"/>
      <path class="cls-7" d="m1668.13,1485.33c.01,2.04.03,4.04.04,6l63.17-.69c0-1.96,0-3.96,0-6l-63.21.69Z"/>
      <path class="cls-7" d="m1667.9,1450.55c.01,2.02.03,4.02.04,6l63.41-.99c0-1.98,0-3.98,0-6l-63.45.99Z"/>
      <path class="cls-7" d="m1667.83,1438.96c.01,2.02.03,4.02.04,6l63.49-1.09c0-1.98,0-3.98,0-6l-63.53,1.09Z"/>
      <path class="cls-7" d="m1666.19,1184.16c.01,1.97.02,3.98.04,6.01l65.21-3.27c0-2.03,0-4.03,0-6.01l-65.25,3.27Z"/>
      <path class="cls-7" d="m1665.85,1126.3c0,1.88.02,3.88.03,6.01l65.56-3.76c0-2.16,0-4.16,0-6.01l-65.6,3.76Z"/>
      <path class="cls-7" d="m1665.87,1103.15c-.06,1.98-.1,3.97-.1,5.99v.03l65.71-3.96c.04-2.02.11-4.03.2-6.02l-65.82,3.96Z"/>
      <path class="cls-7" d="m1665.79,1114.73c0,1.7.02,3.71.03,6.01l65.63-3.86c0-2.53,0-4.54,0-6.01l-65.66,3.86Z"/>
      <path class="cls-7" d="m1665.98,1149.44c.01,1.95.02,3.95.04,6.01l65.43-3.56c0-2.06,0-4.07,0-6.01l-65.46,3.57Z"/>
      <path class="cls-7" d="m1665.91,1137.87c.01,1.92.02,3.93.03,6.01l65.5-3.66c0-2.1,0-4.09,0-6.01l-65.53,3.67Z"/>
      <path class="cls-7" d="m1667.79,1079.89c-.26,1.98-.51,4-.73,6.06l66.08-4.17c.24-2.05.5-4.08.78-6.06l-66.13,4.17Z"/>
      <path class="cls-7" d="m1666.53,1091.54c-.17,1.99-.31,4-.43,6.04l65.92-4.06c.14-2.03.31-4.05.51-6.04l-66,4.07Z"/>
      <path class="cls-7" d="m1672.07,1056.45c-.45,1.94-.89,3.98-1.33,6.1l66.16-4.36c.42-2.12.85-4.15,1.27-6.1l-66.1,4.36Z"/>
      <path class="cls-7" d="m1669.64,1068.19c-.36,1.97-.71,4-1.03,6.08l66.16-4.27c.33-2.08.68-4.11,1.03-6.08l-66.16,4.27Z"/>
      <path class="cls-7" d="m1666.05,1161.02c.01,1.96.02,3.96.04,6.01l65.35-3.47c0-2.05,0-4.05,0-6.01l-65.39,3.47Z"/>
      <path class="cls-7" d="m1666.12,1172.59c.01,1.97.02,3.97.04,6.01l65.28-3.37c0-2.04,0-4.04,0-6.01l-65.32,3.37Z"/>
      <path class="cls-7" d="m1666.62,1253.62c.01,1.99.03,3.99.04,6l64.75-2.68c0-2.01,0-4.01,0-6.01l-64.79,2.68Z"/>
      <path class="cls-7" d="m1666.55,1242.04c.01,1.99.03,3.99.04,6l64.83-2.78c0-2.01,0-4.02,0-6.01l-64.87,2.78Z"/>
      <path class="cls-7" d="m1666.7,1265.2c.01,1.99.03,3.99.04,6l64.67-2.58c0-2.01,0-4.01,0-6l-64.71,2.58Z"/>
      <path class="cls-7" d="m1666.92,1299.94c.01,2,.03,4,.04,6l64.44-2.28c0-2,0-4.01,0-6l-64.48,2.28Z"/>
      <path class="cls-7" d="m1666.77,1276.78c.01,2,.03,4,.04,6l64.59-2.48c0-2.01,0-4.01,0-6l-64.63,2.48Z"/>
      <path class="cls-7" d="m1666.84,1288.35c.01,2,.03,4,.04,6l64.52-2.38c0-2.01,0-4.01,0-6l-64.56,2.38Z"/>
      <path class="cls-7" d="m1666.26,1195.74c.01,1.98.02,3.98.04,6.01l65.13-3.17c0-2.03,0-4.03,0-6.01l-65.17,3.17Z"/>
      <path class="cls-7" d="m1666.47,1230.46c.01,1.99.03,3.99.04,6l64.9-2.87c0-2.02,0-4.02,0-6.01l-64.94,2.88Z"/>
      <path class="cls-7" d="m1666.33,1207.31c.01,1.98.02,3.98.04,6l65.06-3.07c0-2.02,0-4.03,0-6.01l-65.09,3.08Z"/>
      <path class="cls-7" d="m1666.4,1218.89c.01,1.99.02,3.99.04,6l64.98-2.97c0-2.02,0-4.02,0-6.01l-65.02,2.98Z"/>
    </g>
    <polygon class="cls-18" points="1700.26 1601.7 1584.51 1601.7 1584.51 1349.97 1700.66 1351.17 1700.26 1601.7"/>
    <path class="cls-1" d="m1731.45,1109.14c0,24.25-.12,436.63-.12,436.63h-62.79s-2.76-412.38-2.76-436.63c0-41.27,12.88-75.73,12.88-75.73l65.67-4.82s-12.88,39.28-12.88,80.55Z"/>
    <g>
      <path class="cls-1" d="m1696.52,1060.86l2.96-.2c.51-2.1,1.06-4.15,1.68-6.12l-2.76.18c-.68,1.9-1.31,3.96-1.88,6.14Z"/>
      <path class="cls-1" d="m1710.9,1053.89c-.71,1.89-1.37,3.96-1.96,6.14l2.94-.19c.53-2.11,1.11-4.15,1.75-6.13l-2.73.18Z"/>
      <path class="cls-10" d="m1705.53,1077.5c-.28,2.03-.53,4.06-.75,6.06l3.17-.2c.21-1.99.45-4.02.72-6.06l-3.14.2Z"/>
      <path class="cls-1" d="m1704.23,1089.21c-.18,2.09-.33,4.11-.46,6.04l3.19-.2c.12-1.93.27-3.94.44-6.04l-3.18.2Z"/>
      <path class="cls-1" d="m1682.48,1096.57s0-.09,0-.14c.11-1.87.25-3.85.41-5.9l-3.19.2c-.17,2.1-.31,4.12-.42,6.04l3.19-.2Z"/>
      <path class="cls-1" d="m1684.1,1061.67l2.98-.2c.49-2.09,1.04-4.14,1.63-6.12l-2.81.19c-.65,1.91-1.26,3.97-1.81,6.13Z"/>
      <path class="cls-1" d="m1682.01,1108.19c.04-1.67.1-3.7.19-6.02l-3.2.19c-.1,2.33-.16,4.37-.19,6.02l3.2-.19Z"/>
      <path class="cls-1" d="m1683.4,1084.91c.2-1.99.42-4.01.67-6.05l-3.15.2c-.26,2.04-.49,4.06-.69,6.06l3.17-.2Z"/>
      <path class="cls-1" d="m1703.46,1100.89c-.11,2.27-.17,4.29-.22,6.02l3.2-.19c.05-1.73.12-3.76.22-6.02l-3.2.19Z"/>
      <polygon class="cls-10" points="1703.15 1159.05 1703.15 1165.06 1706.35 1164.89 1706.35 1158.88 1703.15 1159.05"/>
      <polygon class="cls-10" points="1703.15 1182.31 1703.15 1188.32 1706.35 1188.16 1706.35 1182.15 1703.15 1182.31"/>
      <polygon class="cls-1" points="1703.15 1170.68 1703.15 1176.69 1706.35 1176.52 1706.35 1170.51 1703.15 1170.68"/>
      <polygon class="cls-1" points="1703.15 1124.16 1703.15 1130.17 1706.35 1129.99 1706.35 1123.98 1703.15 1124.16"/>
      <polygon class="cls-10" points="1703.15 1147.42 1703.15 1153.43 1706.35 1153.25 1706.35 1147.24 1703.15 1147.42"/>
      <polygon class="cls-1" points="1703.15 1135.79 1703.15 1141.8 1706.35 1141.62 1706.35 1135.61 1703.15 1135.79"/>
      <polygon class="cls-1" points="1681.95 1131.39 1681.95 1125.38 1678.76 1125.56 1678.76 1131.57 1681.95 1131.39"/>
      <polygon class="cls-1" points="1681.95 1235.78 1681.95 1229.78 1678.76 1229.92 1678.76 1235.93 1681.95 1235.78"/>
      <polygon class="cls-10" points="1681.95 1224.18 1681.95 1218.18 1678.76 1218.32 1678.76 1224.33 1681.95 1224.18"/>
      <polygon class="cls-10" points="1681.95 1200.98 1681.95 1194.97 1678.76 1195.13 1678.76 1201.14 1681.95 1200.98"/>
      <polygon class="cls-1" points="1681.95 1212.58 1681.95 1206.57 1678.76 1206.73 1678.76 1212.73 1681.95 1212.58"/>
      <polygon class="cls-1" points="1681.95 1282.2 1681.95 1276.19 1678.76 1276.31 1678.76 1282.32 1681.95 1282.2"/>
      <polygon class="cls-1" points="1681.95 1247.39 1681.95 1241.38 1678.76 1241.52 1678.76 1247.52 1681.95 1247.39"/>
      <polygon class="cls-1" points="1681.95 1258.99 1681.95 1252.98 1678.76 1253.12 1678.76 1259.12 1681.95 1258.99"/>
      <polygon class="cls-1" points="1681.95 1142.98 1681.95 1136.98 1678.76 1137.15 1678.76 1143.16 1681.95 1142.98"/>
      <polygon class="cls-1" points="1681.95 1119.79 1681.95 1113.78 1678.76 1113.97 1678.76 1119.98 1681.95 1119.79"/>
      <polygon class="cls-10" points="1703.15 1193.94 1703.15 1199.95 1706.35 1199.79 1706.35 1193.78 1703.15 1193.94"/>
      <polygon class="cls-1" points="1681.95 1154.58 1681.95 1148.57 1678.76 1148.75 1678.76 1154.76 1681.95 1154.58"/>
      <polygon class="cls-10" points="1681.95 1177.78 1681.95 1171.77 1678.76 1171.94 1678.76 1177.94 1681.95 1177.78"/>
      <polygon class="cls-10" points="1681.95 1166.18 1681.95 1160.17 1678.76 1160.34 1678.76 1166.35 1681.95 1166.18"/>
      <polygon class="cls-1" points="1681.95 1293.8 1681.95 1287.8 1678.76 1287.92 1678.76 1293.92 1681.95 1293.8"/>
      <polygon class="cls-1" points="1681.95 1189.38 1681.95 1183.37 1678.76 1183.53 1678.76 1189.54 1681.95 1189.38"/>
      <polygon class="cls-1" points="1694.15 1119.07 1694.15 1113.06 1694.15 1113.06 1690.95 1113.25 1690.95 1119.26 1694.15 1119.07"/>
      <path class="cls-1" d="m1694.23,1107.46c.04-1.7.11-3.74.21-6.02l-3.2.19c-.1,2.29-.17,4.33-.21,6.02l3.2-.19Z"/>
      <polygon class="cls-10" points="1694.15 1177.15 1694.15 1171.14 1690.95 1171.31 1690.95 1177.32 1694.15 1177.15"/>
      <polygon class="cls-1" points="1694.15 1165.53 1694.15 1159.53 1690.95 1159.69 1690.95 1165.7 1694.15 1165.53"/>
      <path class="cls-1" d="m1694.73,1095.81c.12-1.92.26-3.94.43-6.04l-3.18.2c-.17,2.09-.32,4.11-.44,6.04l3.19-.2Z"/>
      <polygon class="cls-1" points="1694.15 1142.3 1694.15 1136.29 1690.95 1136.47 1690.95 1142.48 1694.15 1142.3"/>
      <polygon class="cls-1" points="1694.15 1153.92 1694.15 1147.91 1690.95 1148.08 1690.95 1154.09 1694.15 1153.92"/>
      <polygon class="cls-1" points="1694.15 1130.69 1694.15 1124.68 1690.95 1124.86 1690.95 1130.87 1694.15 1130.69"/>
      <path class="cls-1" d="m1715.35,1111.82c0,.44,0,.78,0,.97v.23s0,4.81,0,4.81l3.2-.19v-4.57s0-.1,0-.27c0-.24,0-.63,0-1.16l-3.2.19Z"/>
      <path class="cls-1" d="m1719.92,1064.95c-.26,1.18-.51,2.38-.75,3.6-.16.82-.29,1.66-.43,2.49l3.08-.2c.22-1.33.46-2.66.71-3.98.14-.7.28-1.4.42-2.1l-3.03.2Z"/>
      <path class="cls-1" d="m1684.86,1073.22c.31-2.03.65-4.07,1.03-6.08l-3.06.2c-.08.4-.17.8-.24,1.21-.31,1.6-.59,3.23-.85,4.87l3.13-.2Z"/>
      <path class="cls-1" d="m1695.68,1084.14c.2-1.99.43-4.01.69-6.06l-3.15.2c-.27,2.04-.5,4.06-.71,6.06l3.17-.2Z"/>
      <path class="cls-1" d="m1697.18,1072.43c.29-1.87.6-3.73.96-5.57.03-.17.07-.34.1-.51l-3.06.2c-.14.67-.27,1.33-.4,2.01-.26,1.34-.49,2.71-.71,4.08l3.11-.2Z"/>
      <path class="cls-10" d="m1703.15,1112.53c0,.09,0,.19,0,.26v.16s0,.04,0,.04v5.55l3.2-.19v-5.29s0-.1,0-.27c0-.11,0-.27,0-.44l-3.2.19Z"/>
      <path class="cls-1" d="m1707.55,1065.75c-.2.93-.39,1.86-.57,2.8-.21,1.08-.39,2.18-.57,3.28l3.1-.2c.26-1.6.53-3.2.83-4.78.08-.44.17-.87.26-1.3l-3.05.2Z"/>
      <polygon class="cls-1" points="1703.15 1252.11 1703.15 1258.11 1706.35 1257.98 1706.35 1251.98 1703.15 1252.11"/>
      <polygon class="cls-1" points="1703.15 1205.57 1703.15 1211.58 1706.35 1211.43 1706.35 1205.42 1703.15 1205.57"/>
      <polygon class="cls-1" points="1703.15 1263.74 1703.15 1269.75 1706.35 1269.62 1706.35 1263.61 1703.15 1263.74"/>
      <polygon class="cls-1" points="1706.35 1275.26 1703.15 1275.38 1703.15 1281.38 1706.35 1281.26 1706.35 1275.26"/>
      <polygon class="cls-1" points="1694.15 1281.73 1694.15 1275.72 1690.95 1275.85 1690.95 1281.85 1694.15 1281.73"/>
      <polygon class="cls-1" points="1703.15 1240.47 1703.15 1246.48 1706.35 1246.34 1706.35 1240.34 1703.15 1240.47"/>
      <polygon class="cls-10" points="1703.15 1217.21 1703.15 1223.21 1706.35 1223.06 1706.35 1217.06 1703.15 1217.21"/>
      <polygon class="cls-10" points="1703.15 1228.84 1703.15 1234.84 1706.35 1234.7 1706.35 1228.7 1703.15 1228.84"/>
      <polygon class="cls-1" points="1694.15 1235.24 1694.15 1229.24 1690.95 1229.38 1690.95 1235.38 1694.15 1235.24"/>
      <polygon class="cls-1" points="1694.15 1212 1694.15 1206 1690.95 1206.15 1690.95 1212.15 1694.15 1212"/>
      <polygon class="cls-10" points="1694.15 1270.11 1694.15 1264.1 1690.95 1264.23 1690.95 1270.23 1694.15 1270.11"/>
      <polygon class="cls-1" points="1694.15 1223.62 1694.15 1217.62 1690.95 1217.76 1690.95 1223.77 1694.15 1223.62"/>
      <polygon class="cls-1" points="1694.15 1200.39 1694.15 1194.38 1690.95 1194.53 1690.95 1200.54 1694.15 1200.39"/>
      <polygon class="cls-1" points="1694.15 1258.48 1694.15 1252.48 1690.95 1252.61 1690.95 1258.62 1694.15 1258.48"/>
      <polygon class="cls-1" points="1694.15 1246.86 1694.15 1240.86 1690.95 1240.99 1690.95 1247 1694.15 1246.86"/>
      <polygon class="cls-10" points="1694.15 1188.77 1694.15 1182.76 1690.95 1182.92 1690.95 1188.93 1694.15 1188.77"/>
      <polygon class="cls-1" points="1681.95 1270.59 1681.95 1264.59 1678.76 1264.72 1678.76 1270.72 1681.95 1270.59"/>
      <path class="cls-1" d="m1727.55,1280.45l3.86-.15c0-2.01,0-4.01,0-6l-3.86.15v6Z"/>
      <path class="cls-1" d="m1727.55,1233.76l3.87-.17c0-2.02,0-4.02,0-6.01l-3.87.17v6.01Z"/>
      <path class="cls-1" d="m1669.76,1288.25l-2.91.11c.01,2,.03,4,.04,6l2.87-.11v-6Z"/>
      <path class="cls-1" d="m1727.55,1292.12l3.85-.14c0-2.01,0-4.01,0-6l-3.86.14v6Z"/>
      <path class="cls-10" d="m1727.55,1245.43l3.87-.17c0-2.01,0-4.02,0-6.01l-3.87.16v6.01Z"/>
      <path class="cls-1" d="m1727.55,1257.1l3.87-.16c0-2.01,0-4.01,0-6.01l-3.87.16v6.01Z"/>
      <path class="cls-1" d="m1727.55,1268.77l3.86-.15c0-2.01,0-4.01,0-6l-3.86.15v6Z"/>
      <path class="cls-1" d="m1669.76,1276.66l-2.99.12c.01,2,.03,4,.04,6l2.95-.11v-6Z"/>
      <path class="cls-10" d="m1669.76,1218.73l-3.35.15c.01,1.99.02,3.99.04,6l3.32-.15v-6.01Z"/>
      <path class="cls-1" d="m1669.76,1207.15l-3.43.16c.01,1.98.02,3.98.04,6l3.39-.16v-6.01Z"/>
      <path class="cls-1" d="m1669.76,1195.57l-3.5.17c.01,1.98.02,3.98.04,6.01l3.46-.17v-6.01Z"/>
      <path class="cls-1" d="m1669.76,1183.98l-3.57.18c.01,1.97.02,3.98.04,6.01l3.53-.18v-6.01Z"/>
      <path class="cls-1" d="m1669.76,1230.32l-3.28.15c.01,1.99.03,3.99.04,6l3.24-.14v-6.01Z"/>
      <path class="cls-1" d="m1669.76,1253.49l-3.13.13c.01,1.99.03,3.99.04,6l3.1-.13v-6Z"/>
      <path class="cls-1" d="m1669.76,1241.9l-3.21.14c.01,1.99.03,3.99.04,6l3.17-.13v-6.01Z"/>
      <path class="cls-1" d="m1669.76,1265.07l-3.06.12c.01,1.99.03,3.99.04,6l3.02-.12v-6Z"/>
      <path class="cls-10" d="m1727.68,1105.44l3.81-.23c.04-2.02.11-4.03.2-6.02l-3.76.23c-.11,2.22-.2,4.25-.25,6.03Z"/>
      <path class="cls-1" d="m1728.73,1088.02c-.18,1.97-.33,3.88-.46,5.73l3.75-.23c.14-2.03.31-4.05.51-6.04l-3.77.23c0,.1-.02.21-.03.31Z"/>
      <path class="cls-1" d="m1727.54,1112.79v.23s0,4.09,0,4.09l3.9-.23c0-2.53,0-4.54,0-6.01l-3.89.23c0,.82-.01,1.4-.01,1.69Z"/>
      <path class="cls-1" d="m1735.95,1052.24c-.78,1.86-1.5,3.93-2.15,6.15l3.1-.2c.42-2.12.85-4.15,1.27-6.1l-2.22.15Z"/>
      <path class="cls-1" d="m1729.36,1082.01l3.78-.24c.24-2.05.5-4.08.78-6.06l-3.77.24c-.29,2.03-.56,4.05-.79,6.06Z"/>
      <path class="cls-1" d="m1727.55,1128.77l3.9-.22c0-2.16,0-4.16,0-6.01l-3.9.22v6.01Z"/>
      <path class="cls-1" d="m1731.37,1068.55c-.11.56-.2,1.13-.3,1.69l3.7-.24c.33-2.08.68-4.11,1.03-6.08l-3.51.23c-.33,1.44-.64,2.91-.92,4.4Z"/>
      <path class="cls-10" d="m1727.55,1198.76l3.88-.19c0-2.03,0-4.03,0-6.01l-3.88.19v6.01Z"/>
      <path class="cls-1" d="m1727.55,1187.09l3.88-.19c0-2.03,0-4.03,0-6.01l-3.89.2v6.01Z"/>
      <path class="cls-10" d="m1727.55,1222.09l3.88-.18c0-2.02,0-4.02,0-6.01l-3.88.18v6.01Z"/>
      <path class="cls-1" d="m1727.55,1210.43l3.88-.18c0-2.02,0-4.03,0-6.01l-3.88.18v6.01Z"/>
      <path class="cls-1" d="m1727.55,1175.43l3.89-.2c0-2.04,0-4.04,0-6.01l-3.89.2v6.01Z"/>
      <path class="cls-10" d="m1727.55,1152.1l3.89-.21c0-2.06,0-4.07,0-6.01l-3.9.21v6.01Z"/>
      <path class="cls-1" d="m1727.55,1163.76l3.89-.21c0-2.05,0-4.05,0-6.01l-3.89.21v6.01Z"/>
      <path class="cls-1" d="m1727.55,1140.43l3.9-.22c0-2.1,0-4.09,0-6.01l-3.9.22v6.01Z"/>
      <polygon class="cls-10" points="1715.35 1181.7 1715.35 1187.7 1718.55 1187.54 1718.55 1181.54 1715.35 1181.7"/>
      <polygon class="cls-1" points="1715.35 1193.35 1715.35 1199.35 1718.55 1199.2 1718.55 1193.19 1715.35 1193.35"/>
      <polygon class="cls-10" points="1715.35 1205 1715.35 1211 1718.55 1210.85 1718.55 1204.85 1715.35 1205"/>
      <polygon class="cls-1" points="1694.15 1287.35 1690.95 1287.47 1690.95 1293.47 1694.15 1293.35 1694.15 1287.35"/>
      <polygon class="cls-10" points="1715.35 1216.65 1715.35 1222.65 1718.55 1222.51 1718.55 1216.5 1715.35 1216.65"/>
      <polygon class="cls-10" points="1715.35 1135.11 1715.35 1141.12 1718.55 1140.94 1718.55 1134.93 1715.35 1135.11"/>
      <polygon class="cls-1" points="1715.35 1158.4 1715.35 1164.41 1718.55 1164.24 1718.55 1158.23 1715.35 1158.4"/>
      <polygon class="cls-1" points="1715.35 1170.05 1715.35 1176.06 1718.55 1175.89 1718.55 1169.88 1715.35 1170.05"/>
      <polygon class="cls-1" points="1715.35 1146.75 1715.35 1152.76 1718.55 1152.59 1718.55 1146.58 1715.35 1146.75"/>
      <polygon class="cls-1" points="1718.55 1286.45 1715.35 1286.56 1715.35 1292.57 1718.55 1292.45 1718.55 1286.45"/>
      <polygon class="cls-1" points="1706.35 1286.9 1703.15 1287.02 1703.15 1293.02 1706.35 1292.9 1706.35 1286.9"/>
      <polygon class="cls-1" points="1715.35 1274.91 1715.35 1280.91 1718.55 1280.79 1718.55 1274.79 1715.35 1274.91"/>
      <polygon class="cls-1" points="1715.35 1228.3 1715.35 1234.3 1718.55 1234.16 1718.55 1228.16 1715.35 1228.3"/>
      <polygon class="cls-1" points="1715.35 1239.95 1715.35 1245.96 1718.55 1245.82 1718.55 1239.81 1715.35 1239.95"/>
      <polygon class="cls-1" points="1715.35 1251.6 1715.35 1257.61 1718.55 1257.48 1718.55 1251.47 1715.35 1251.6"/>
      <polygon class="cls-1" points="1715.35 1263.26 1715.35 1269.26 1718.55 1269.13 1718.55 1263.13 1715.35 1263.26"/>
      <path class="cls-1" d="m1715.7,1100.15c-.11,2.24-.19,4.27-.24,6.03l3.2-.19c.05-1.76.13-3.79.23-6.02l-3.2.19Z"/>
      <path class="cls-1" d="m1669.76,1114.5l-3.96.23c0,1.7.02,3.71.03,6.01l3.94-.23v-6.01Z"/>
      <path class="cls-1" d="m1670.29,1096.43c.1-1.64.22-3.37.35-5.15l-4.12.25c-.17,1.99-.31,4-.43,6.04l4.14-.26c.02-.3.03-.59.05-.89Z"/>
      <path class="cls-1" d="m1669.98,1102.91l-4.1.25c-.06,1.98-.1,3.97-.1,5.99v.03l4.02-.24c.03-1.62.08-3.66.18-6.02Z"/>
      <path class="cls-10" d="m1669.76,1126.08l-3.91.22c0,1.88.02,3.88.03,6.01l3.88-.22v-6.01Z"/>
      <path class="cls-1" d="m1669.76,1160.82l-3.71.2c.01,1.96.02,3.96.04,6.01l3.67-.19v-6.01Z"/>
      <path class="cls-1" d="m1669.76,1149.24l-3.78.21c.01,1.95.02,3.95.04,6.01l3.74-.2v-6.01Z"/>
      <path class="cls-1" d="m1669.76,1137.66l-3.84.21c.01,1.92.02,3.93.03,6.01l3.81-.21v-6.01Z"/>
      <path class="cls-1" d="m1723.41,1053.07c-.74,1.88-1.43,3.95-2.06,6.15l2.92-.19c.55-2.11,1.15-4.16,1.82-6.13l-2.69.18Z"/>
      <path class="cls-1" d="m1716.5,1088.46c-.19,2.08-.34,4.11-.47,6.04l3.19-.2c.13-1.93.28-3.95.46-6.04l-3.18.2Z"/>
      <path class="cls-1" d="m1669.76,1172.4l-3.64.19c.01,1.97.02,3.97.04,6.01l3.6-.19v-6.01Z"/>
      <path class="cls-1" d="m1717.84,1076.73c-.29,2.03-.55,4.06-.77,6.06l3.16-.2c.22-1.99.47-4.02.74-6.06l-3.13.2Z"/>
      <polygon class="cls-10" points="1715.35 1123.46 1715.35 1129.47 1718.55 1129.29 1718.55 1123.28 1715.35 1123.46"/>
      <path class="cls-1" d="m1673.55,1067.94l-3.9.25c-.36,1.97-.71,4-1.03,6.08l3.92-.25c.3-2.03.64-4.06,1.01-6.08Z"/>
      <path class="cls-1" d="m1671.78,1079.63l-3.99.25c-.26,1.98-.51,4-.73,6.06l4.06-.26c.19-1.98.41-4.01.66-6.05Z"/>
      <path class="cls-1" d="m1676.28,1056.18l-4.21.28c-.45,1.94-.89,3.98-1.33,6.1l3.96-.26c.47-2.09,1-4.13,1.58-6.12Z"/>
    </g>
    <g>
      <path class="cls-15" d="m199.59,1519.7c-5.59-4.57-15.77-9.12-23.25-8.57-8.53.62-11.2,11.89-11.62,18.69-.58,9.26,1.11,18.46,4.92,26.96,2.84,6.34,7.93,11.54,15.18,12.06,7.68.55,13.79-5.56,19.23-10.18,5.09-4.33,9.22-8.48,8.56-15.6-.79-8.6-6.4-17.93-13.03-23.35Z"/>
      <path class="cls-15" d="m170.32,1556.76c4.58-8.99-7.93-17.11-15.48-17.74-9.5-.8-15.19,11.33-9.26,18.8,6,7.56,20.15,7.92,24.73-1.06Z"/>
      <path class="cls-7" d="m70.22,1531.58c11.04-2.56,20.92-1.01,29.48,6.73,5.17,4.67,10.47,13.45,5.36,19.97-9.8,12.5-31.37,12.78-45.59,11.23-7.14-.78-12.62-5.42-12.71-12.51-.19-15.21,9.63-22.21,23.47-25.42Z"/>
      <path class="cls-7" d="m257.3,1540.46c9.61-2.22,18.2-.88,25.65,5.85,4.5,4.06,9.11,11.7,4.66,17.38-8.52,10.87-27.29,11.12-39.67,9.77-6.21-.67-10.98-4.71-11.06-10.88-.17-13.24,8.38-19.32,20.42-22.12Z"/>
      <path class="cls-15" d="m49.19,1561.86c1.77-6.19-7.67-9.65-12.02-8.46-5.8,1.58-12.73,8.26-5.51,13.19,4.02,2.74,15.94.85,17.53-4.72Z"/>
      <path class="cls-15" d="m127.12,1544.61c-4.36-1.82-14.21.64-16.65,4.96-1.92,3.4,1.76,9.75,4.76,11.66,5.08,3.24,12.72,3.79,16.38-1.99,3.03-4.81.78-12.43-4.49-14.63Z"/>
      <path class="cls-7" d="m339.94,1560.16c-3.45-1.44-11.25.5-13.18,3.92-1.52,2.7,1.39,7.72,3.76,9.23,4.03,2.57,10.08,3,12.97-1.58,2.4-3.8.62-9.84-3.55-11.58Z"/>
      <path class="cls-7" d="m222.5,1535.64c-6.64-.18-14.99,6.64-17.11,12.79-1.56,4.5,1.53,8.67,4.89,11.37,7.28,5.84,21.76,8.52,25.31-2.72,2.25-7.12-5.18-21.23-13.09-21.44Z"/>
      <path class="cls-15" d="m322.46,1546.9c-10.7-3.24-40.71,9.75-27.01,23.67,8.5,8.64,22.6,5.44,31.06-1.26,8.69-6.89,7.61-18.88-4.04-22.41Z"/>
      <path class="cls-15" d="m296.6,1547.1c-7.54-2.28-28.66,6.87-19.02,16.67,5.98,6.08,15.91,3.83,21.87-.89,6.12-4.85,5.36-13.29-2.85-15.78Z"/>
    </g>
    <g>
      <path class="cls-15" d="m2277.59,1527.7c-5.59-4.57-15.77-9.12-23.25-8.57-8.53.62-11.2,11.89-11.62,18.69-.58,9.26,1.11,18.46,4.92,26.96,2.84,6.34,7.93,11.54,15.18,12.06,7.68.55,13.79-5.56,19.23-10.18,5.09-4.33,9.22-8.48,8.56-15.6-.79-8.6-6.4-17.93-13.03-23.35Z"/>
      <path class="cls-15" d="m2248.32,1564.76c4.58-8.99-7.93-17.11-15.48-17.74-9.5-.8-15.19,11.33-9.26,18.8,6,7.56,20.15,7.92,24.73-1.06Z"/>
      <path class="cls-7" d="m2148.22,1539.58c11.04-2.56,20.92-1.01,29.48,6.73,5.17,4.67,10.47,13.45,5.36,19.97-9.8,12.5-31.37,12.78-45.59,11.23-7.14-.78-12.62-5.42-12.71-12.51-.19-15.21,9.63-22.21,23.47-25.42Z"/>
      <path class="cls-7" d="m2335.3,1548.46c9.61-2.22,18.2-.88,25.65,5.85,4.5,4.06,9.11,11.7,4.66,17.38-8.52,10.87-27.29,11.12-39.67,9.77-6.21-.67-10.98-4.71-11.06-10.88-.17-13.24,8.38-19.32,20.42-22.12Z"/>
      <path class="cls-15" d="m2127.19,1569.86c1.77-6.19-7.67-9.65-12.02-8.46-5.8,1.58-12.73,8.26-5.51,13.19,4.02,2.74,15.94.85,17.53-4.72Z"/>
      <path class="cls-15" d="m2205.12,1552.61c-4.36-1.82-14.21.64-16.65,4.96-1.92,3.4,1.76,9.75,4.76,11.66,5.08,3.24,12.72,3.79,16.38-1.99,3.03-4.81.78-12.43-4.49-14.63Z"/>
      <path class="cls-7" d="m2417.94,1568.16c-3.45-1.44-11.25.5-13.18,3.92-1.52,2.7,1.39,7.72,3.76,9.23,4.03,2.57,10.08,3,12.97-1.58,2.4-3.8.62-9.84-3.55-11.58Z"/>
      <path class="cls-7" d="m2300.5,1543.64c-6.64-.18-14.99,6.64-17.11,12.79-1.56,4.5,1.53,8.67,4.89,11.37,7.28,5.84,21.76,8.52,25.31-2.72,2.25-7.12-5.18-21.23-13.09-21.44Z"/>
      <path class="cls-15" d="m2085.21,1558.32c-7.54-2.28-28.66,6.87-19.02,16.67,5.98,6.08,15.91,3.83,21.87-.89,6.12-4.85,5.36-13.29-2.85-15.78Z"/>
      <path class="cls-15" d="m2400.46,1554.9c-10.7-3.24-40.71,9.75-27.01,23.67,8.5,8.64,22.6,5.44,31.06-1.26,8.69-6.89,7.61-18.88-4.04-22.41Z"/>
      <path class="cls-15" d="m2374.6,1555.1c-7.54-2.28-28.66,6.87-19.02,16.67,5.98,6.08,15.91,3.83,21.87-.89,6.12-4.85,5.36-13.29-2.85-15.78Z"/>
    </g>
    <g>
      <path class="cls-15" d="m2423.64,1529.86c-5.59-4.57-15.77-9.12-23.25-8.57-8.53.62-11.2,11.9-11.62,18.69-.58,9.26,1.11,18.46,4.92,26.96,2.84,6.34,7.93,11.54,15.18,12.06,7.68.55,13.79-5.56,19.23-10.18,5.08-4.33,9.22-8.48,8.56-15.6-.79-8.6-6.4-17.93-13.03-23.35Z"/>
      <path class="cls-15" d="m2394.37,1566.91c4.58-8.99-7.93-17.11-15.48-17.74-9.5-.79-15.19,11.33-9.26,18.8,6,7.56,20.15,7.92,24.73-1.06Z"/>
      <path class="cls-15" d="m2294.27,1541.73c11.04-2.56,20.92-1.01,29.48,6.73,5.17,4.67,10.47,13.45,5.36,19.97-9.8,12.5-31.37,12.78-45.59,11.23-7.14-.78-12.62-5.42-12.71-12.51-.19-15.21,9.63-22.21,23.47-25.42Z"/>
      <path class="cls-7" d="m2481.36,1550.61c9.61-2.22,18.2-.88,25.65,5.85,4.5,4.06,9.11,11.7,4.66,17.38-8.52,10.87-27.29,11.12-39.67,9.77-6.21-.67-10.98-4.72-11.06-10.89-.16-13.24,8.38-19.32,20.42-22.12Z"/>
      <path class="cls-15" d="m2273.25,1572.01c1.77-6.19-7.67-9.65-12.02-8.46-5.8,1.58-12.73,8.26-5.51,13.19,4.02,2.74,15.94.85,17.53-4.72Z"/>
      <path class="cls-15" d="m2351.17,1554.76c-4.36-1.82-14.21.64-16.65,4.96-1.92,3.4,1.76,9.75,4.76,11.66,5.08,3.24,12.72,3.79,16.38-2,3.03-4.8.78-12.43-4.49-14.62Z"/>
      <path class="cls-7" d="m2563.99,1570.31c-3.45-1.44-11.25.5-13.18,3.92-1.52,2.7,1.39,7.72,3.76,9.23,4.03,2.57,10.08,3,12.97-1.58,2.4-3.81.62-9.85-3.55-11.58Z"/>
      <path class="cls-7" d="m2446.55,1545.79c-6.64-.18-14.99,6.64-17.11,12.79-1.56,4.5,1.53,8.67,4.89,11.37,7.28,5.84,21.76,8.52,25.31-2.72,2.25-7.12-5.18-21.23-13.09-21.44Z"/>
      <path class="cls-15" d="m2231.26,1560.48c-7.54-2.28-28.66,6.87-19.02,16.67,5.98,6.08,15.91,3.83,21.87-.89,6.12-4.85,5.36-13.29-2.85-15.78Z"/>
      <path class="cls-15" d="m2546.51,1557.05c-10.7-3.24-40.71,9.75-27.01,23.67,8.5,8.64,22.6,5.44,31.06-1.26,8.69-6.89,7.61-18.88-4.04-22.41Z"/>
      <path class="cls-15" d="m2520.65,1557.25c-7.54-2.28-28.66,6.87-19.02,16.66,5.98,6.08,15.91,3.83,21.87-.89,6.12-4.85,5.36-13.29-2.85-15.78Z"/>
    </g>
    <path class="cls-20" d="m1714.85,1023.03c0-1.19.97-2.16,2.16-2.16s2.16.97,2.16,2.16-.97,2.16-2.16,2.16-2.16-.97-2.16-2.16Z"/>
    <path class="cls-20" d="m1733.32,1021.88c0-1.19.97-2.16,2.16-2.16s2.16.97,2.16,2.16-.97,2.16-2.16,2.16-2.16-.97-2.16-2.16Z"/>
    <path class="cls-20" d="m1376.09,1196.16c0-1.19.97-2.16,2.16-2.16s2.16.97,2.16,2.16-.97,2.16-2.16,2.16-2.16-.97-2.16-2.16Z"/>
    <g class="cls-2">
      <path class="cls-15" d="m1348.7,1008.93l-107.33-16.64.92-5.93,107.33,16.64-.92,5.93Zm1.09,5.51l-107.5-16.28-.9,5.93,107.5,16.28.9-5.93Zm.17,11.44l-107.67-15.92-.88,5.94,107.67,15.92.88-5.94Zm.17,11.44l-107.84-15.56-.86,5.94,107.84,15.56.86-5.94Zm.17,11.44l-108.02-15.2-.84,5.94,108.02,15.2.84-5.94Zm.17,11.44l-108.19-14.83-.82,5.94,108.19,14.83.82-5.94Zm.17,11.44l-108.36-14.47-.79,5.95,108.36,14.47.79-5.95Zm.17,11.44l-108.53-14.11-.77,5.95,108.53,14.11.77-5.95Zm.17,11.44l-108.71-13.75-.75,5.95,108.71,13.75.75-5.95Zm.17,11.44l-108.88-13.38-.73,5.96,108.88,13.38.73-5.96Zm.17,11.44l-109.05-13.02-.71,5.96,109.05,13.02.71-5.96Zm.17,11.44l-109.22-12.66-.69,5.96,109.22,12.66.69-5.96Zm.17,11.44l-109.39-12.3-.67,5.96,109.39,12.3.67-5.96Zm.17,11.44l-109.57-11.93-.65,5.96,109.57,11.93.65-5.96Zm.17,11.44l-109.74-11.57-.63,5.97,109.74,11.57.63-5.97Zm.17,11.44l-109.91-11.21-.61,5.97,109.91,11.21.61-5.97Zm.17,11.44l-110.08-10.85-.59,5.97,110.08,10.85.59-5.97Zm.17,11.44l-110.26-10.49-.57,5.97,110.26,10.49.57-5.97Zm.17,11.44l-110.43-10.12-.55,5.97,110.43,10.12.55-5.97Zm.17,11.44l-110.6-9.76-.53,5.98,110.6,9.76.53-5.98Zm.17,11.44l-110.77-9.4-.51,5.98,110.77,9.4.51-5.98Zm.17,11.44l-110.95-9.04-.49,5.98,110.94,9.04.49-5.98Zm.17,11.44l-111.12-8.67-.47,5.98,111.12,8.67.47-5.98Zm.17,11.44l-111.29-8.31-.45,5.98,111.29,8.31.45-5.98Zm.17,11.44l-111.46-7.95-.43,5.98,111.46,7.95.43-5.98Zm.17,11.44l-111.63-7.59-.41,5.99,111.63,7.59.41-5.99Zm.17,11.44l-111.81-7.22-.39,5.99,111.81,7.22.39-5.99Zm.17,11.44l-111.98-6.86-.37,5.99,111.98,6.86.37-5.99Zm.17,11.44l-112.15-6.5-.35,5.99,112.15,6.5.35-5.99Zm.17,11.44l-112.32-6.14-.33,5.99,112.32,6.14.33-5.99Zm.17,11.44l-112.49-5.78-.31,5.99,112.49,5.78.31-5.99Zm.17,11.44l-112.67-5.41-.29,5.99,112.67,5.41.29-5.99Zm.17,11.44l-112.84-5.05-.27,5.99,112.84,5.05.27-5.99Zm.17,11.44l-113.01-4.69-.25,6,113.01,4.69.25-5.99Zm.17,11.44l-113.18-4.33-.23,6,113.18,4.33.23-6Zm.17,11.44l-113.36-3.96-.21,6,113.36,3.96.21-6Zm.17,11.44l-113.53-3.6-.19,6,113.53,3.6.19-6Zm.17,11.44l-113.7-3.24-.17,6,113.7,3.24.17-6Zm.17,11.44l-113.87-2.88-.15,6,113.87,2.88.15-6Zm.17,11.44l-114.04-2.51-.13,6,114.04,2.51.13-6Zm.17,11.44l-114.22-2.15-.11,6,114.22,2.15.11-6Zm.17,11.44l-114.39-1.79-.09,6,114.39,1.79.09-6Zm.17,11.44l-114.56-1.43-.08,6,114.56,1.43.07-6Zm.17,11.44l-114.73-1.07-.06,6,114.73,1.07.06-6Zm.17,11.44l-114.91-.7-.04,6,114.91.7.04-6Zm-114.9,11.1l-.02,6,115.08.34.02-6-115.08-.34Z"/>
    </g>
    <path class="cls-10" d="m1821.97,1590.42c0,2.05-1.66,3.71-3.7,3.71s-3.71-1.66-3.71-3.71,1.66-3.7,3.71-3.7,3.7,1.66,3.7,3.7Z"/>
    <path class="cls-10" d="m1872.1,1590.42c0,2.05-1.66,3.71-3.7,3.71s-3.71-1.66-3.71-3.71,1.66-3.7,3.71-3.7,3.7,1.66,3.7,3.7Z"/>
    <path class="cls-10" d="m1922.22,1590.42c0,2.05-1.66,3.71-3.7,3.71s-3.71-1.66-3.71-3.71,1.66-3.7,3.71-3.7,3.7,1.66,3.7,3.7Z"/>
    <path class="cls-10" d="m1972.35,1590.42c0,2.05-1.66,3.71-3.7,3.71s-3.71-1.66-3.71-3.71,1.66-3.7,3.71-3.7,3.7,1.66,3.7,3.7Z"/>
    <path class="cls-11" d="m628.13,1517.62c0,2.05-1.66,3.71-3.7,3.71s-3.71-1.66-3.71-3.71,1.66-3.7,3.71-3.7,3.7,1.66,3.7,3.7Z"/>
    <path class="cls-11" d="m678.25,1517.62c0,2.05-1.66,3.71-3.7,3.71s-3.71-1.66-3.71-3.71,1.66-3.7,3.71-3.7,3.7,1.66,3.7,3.7Z"/>
    <path class="cls-11" d="m728.38,1517.62c0,2.05-1.66,3.71-3.7,3.71s-3.71-1.66-3.71-3.71,1.66-3.7,3.71-3.7,3.7,1.66,3.7,3.7Z"/>
    <path class="cls-11" d="m778.5,1517.62c0,2.05-1.66,3.71-3.7,3.71s-3.71-1.66-3.71-3.71,1.66-3.7,3.71-3.7,3.7,1.66,3.7,3.7Z"/>
    <path class="cls-10" d="m2022.47,1590.42c0,2.05-1.66,3.71-3.7,3.71s-3.71-1.66-3.71-3.71,1.66-3.7,3.71-3.7,3.7,1.66,3.7,3.7Z"/>
  </g>
  <g>
    <path class="cls-13" d="m1159.33,1284.56h4v26.41h-4v-26.41Zm13.53,25.44h4v-26.41h-4v26.41Zm13.53-.97h4v-26.41h-4v26.41Zm13.53-.97h4v-26.41h-4v26.41Zm13.53-27.38v26.41h4v-26.41h-4Z"/>
    <path class="cls-12" d="m1419.5,1207.53h6v23.75h-6v-23.75Zm33.25,3.25v23.75h6v-23.75h-6Z"/>
  </g>
  <polygon class="cls-15" points="2010.93 1342.82 1998.43 1342.82 1998.43 1270.82 1966.5 1271.1 1966.5 1263.1 1955.76 1244.82 1943.1 1244.82 1933.1 1264.15 1933.1 1270.82 1900.23 1270.82 1900.23 1572.04 2010.93 1572.04 2010.93 1342.82"/>
</svg>