<?xml version="1.0" encoding="UTF-8"?>
<svg id="_3_skyscraper_bkdrop" data-name="3_skyscraper bkdrop" xmlns="http://www.w3.org/2000/svg" xmlns:xlink="http://www.w3.org/1999/xlink" viewBox="0 0 2680.14 2010">
  <defs>
    <style>
      .cls-1 {
        fill: url(#linear-gradient);
      }

      .cls-2 {
        fill: #66a9cc;
      }

      .cls-3 {
        fill: #6ab6cd;
      }

      .cls-4 {
        fill: #114f6e;
      }

      .cls-5 {
        fill: #196b99;
      }

      .cls-6 {
        fill: #48a5c2;
      }

      .cls-7 {
        fill: url(#linear-gradient-3);
      }

      .cls-8 {
        fill: url(#linear-gradient-4);
      }

      .cls-9 {
        fill: url(#linear-gradient-2);
      }

      .cls-10 {
        fill: red;
        stroke: red;
        stroke-miterlimit: 10;
        stroke-width: 3px;
      }
    </style>
    <linearGradient id="linear-gradient" x1="850.03" y1="1329.45" x2="850.03" y2="1476.05" gradientUnits="userSpaceOnUse">
      <stop offset="0" stop-color="#fff"/>
      <stop offset="1" stop-color="#48a5c2"/>
    </linearGradient>
    <linearGradient id="linear-gradient-2" x1="1207.67" y1="1344.91" x2="1204.03" y2="932.31" gradientUnits="userSpaceOnUse">
      <stop offset="0" stop-color="#114f6e"/>
      <stop offset="1" stop-color="#66a9cc"/>
    </linearGradient>
    <linearGradient id="linear-gradient-3" x1="1434.59" y1="1105.01" x2="1392.94" y2="1008.32" gradientUnits="userSpaceOnUse">
      <stop offset="0" stop-color="#114f6e"/>
      <stop offset="1" stop-color="#66a9cc"/>
    </linearGradient>
    <linearGradient id="linear-gradient-4" x1="1626.73" y1="825.09" x2="1626.73" y2="1191.21" gradientUnits="userSpaceOnUse">
      <stop offset="0" stop-color="#afd8e5"/>
      <stop offset="1" stop-color="#48a5c2"/>
    </linearGradient>
  </defs>
  <polygon class="cls-2" points="0 1457.03 115.56 1457.03 115.56 1447.03 171.56 1447.03 171.56 1463.03 193.56 1463.03 204.06 1452.53 246.55 1452.53 246.55 1444.03 280.55 1444.03 280.55 1453.03 389.55 1453.03 389.55 1466.03 414.54 1466.03 429.54 1466.03 429.54 1490.03 453.54 1490.03 453.54 1477.03 465.54 1477.03 465.54 1442.03 495.54 1442.03 495.54 1432.03 518.54 1432.03 518.54 1441.03 555.54 1441.03 555.54 1421.03 726.53 1421.03 726.53 1402.03 756.53 1402.03 756.53 1389.03 844.52 1389.03 844.52 1405.03 856.52 1405.03 856.52 1421.03 891.52 1421.03 891.52 1355.03 908.52 1355.03 908.52 1348.03 922.52 1348.03 985.52 1348.03 985.52 1449.03 1079.18 1449.03 1157.17 1449.03 1858.47 1449.03 1858.47 1368.43 1877.8 1368.43 1877.8 1361.17 1887.8 1342.36 1909.83 1342.36 1920.57 1361.17 1920.57 1368.43 1943.13 1368.43 1943.13 1440.36 1947.8 1440.36 2072.46 1440.36 2072.46 1469.03 2117.12 1469.03 2117.12 1325.25 2199.78 1325.25 2199.78 1407.7 2207.12 1407.7 2207.12 1391.7 2270.45 1391.7 2270.45 1447.03 2280.45 1447.03 2283.78 1443.7 2319.11 1443.7 2319.11 1433.7 2397.11 1433.7 2397.11 1449.7 2409.77 1449.7 2409.77 1462.36 2431.77 1462.36 2431.77 1467.7 2459.1 1467.7 2459.1 1478.53 2478.94 1478.53 2478.94 1466.03 2485.94 1466.03 2485.94 1461.03 2518.94 1461.03 2518.94 1464.53 2528.43 1464.53 2528.43 1479.03 2558.43 1479.03 2558.43 1405.03 2564.93 1405.03 2564.93 1383.53 2628.93 1383.53 2628.93 1391.03 2635.93 1391.03 2635.93 1451.53 2664.93 1451.53 2664.93 1456.03 2680 1456.03 2680 1730 0 1730 0 1457.03"/>
  <rect class="cls-5" x="1976.16" y="1361.7" width="111" height="118"/>
  <polygon class="cls-2" points="422.25 1363.03 463.5 1363.03 463.5 1357.03 489.5 1357.03 496 1357.03 496 1348.03 510.5 1348.03 510.5 1356.03 543 1356.03 543 1362.03 550 1362.03 550 1358.03 559.5 1358.03 559.5 1362.53 568.5 1362.53 568.5 1520.53 422.25 1520.53 422.25 1363.03"/>
  <rect class="cls-2" x="620" y="1264.53" width="127" height="344.68"/>
  <rect class="cls-5" x="658.62" y="1264.72" width="6.39" height="344.93"/>
  <rect class="cls-5" x="700.8" y="1264.72" width="6.39" height="344.93"/>
  <polygon class="cls-5" points="978 1216.74 978 1185.4 1001 1185.4 1001 1181.48 1047 1181.48 1047 1186.52 1069 1186.52 1069 1515.05 1069 1571.9 978.5 1571.9 978 1216.74"/>
  <rect class="cls-2" x="931" y="1202.98" width="118.5" height="368.77"/>
  <rect class="cls-5" x="1002.67" y="1219.34" width="24.29" height="377.1"/>
  <polygon class="cls-5" points="979.66 1596.56 955.38 1596.56 955.38 1219.34 979.66 1243.72 979.66 1596.56"/>
  <path class="cls-1" d="m865.67,1404.93v58.05h-11.17v13.73s-5.38,18.99-5.38,18.99v-76.21h-14.71v-30.44h19.25v15.88h12.02Z"/>
  <path class="cls-5" d="m1149.67,950.55v33.68c0,1.1-.9,2-2,2s-2-.9-2-2v-33.68c0-.74.4-1.38,1-1.72v-18.64c0-.55.45-1,1-1s1,.45,1,1v18.64c.6.35,1,.98,1,1.72Z"/>
  <path class="cls-5" d="m1255.67,951.7v51.2c0,1.1-.9,2-2,2s-2-.9-2-2v-51.2c0-.74.4-1.38,1-1.72v-38.94c0-.55.45-1,1-1s1,.45,1,1v38.94c.6.35,1,.98,1,1.72Z"/>
  <polygon class="cls-9" points="1287.28 977.11 1180.25 956.73 1127.15 977.11 1127.15 1610.31 1287.28 1610.31 1287.28 977.11"/>
  <polygon class="cls-5" points="1178.83 957.11 1127.15 976.95 1127.15 1573.14 1178.83 1573.14 1178.83 957.11"/>
  <path class="cls-5" d="m1217.25,977.11l-26.29-3.48s-3.95-.48-3.95-4.7,3.75-3.44,3.75-3.44l26.46,3.51s3.4.45,3.4,4.41c0,4.29-3.38,3.7-3.38,3.7Z"/>
  <path class="cls-10" d="m1252.87,959.43c0-1.19.97-2.16,2.16-2.16s2.16.97,2.16,2.16-.97,2.16-2.16,2.16-2.16-.97-2.16-2.16Z"/>
  <path class="cls-10" d="m1143.77,961.14c0-1.19.97-2.16,2.16-2.16s2.16.97,2.16,2.16-.97,2.16-2.16,2.16-2.16-.97-2.16-2.16Z"/>
  <path class="cls-6" d="m1476.16,933.36v33.68c0,1.1-.9,2-2,2s-2-.9-2-2v-33.68c0-.74.41-1.38,1-1.72v-30.42c0-.55.45-1,1-1s1,.45,1,1v30.42c.6.35,1,.98,1,1.72Z"/>
  <path class="cls-6" d="m1411.5,916.69v33.68c0,1.1-.9,2-2,2s-2-.9-2-2v-33.68c0-.74.4-1.38,1-1.72v-30.42c0-.55.45-1,1-1s1,.45,1,1v30.42c.6.35,1,.98,1,1.72Z"/>
  <polygon class="cls-5" points="1352.6 966.96 1399.61 942.62 1502.83 966.96 1502.83 1611.4 1352.6 1611.4 1352.6 966.96"/>
  <polygon class="cls-7" points="1399.69 1321.77 1502.83 1321.77 1502.83 965.65 1399.69 942.64 1399.69 1321.77"/>
  <polygon class="cls-4" points="1324.66 1102.83 1366.17 1085.7 1459.16 1103.66 1459.16 1611.71 1324.66 1611.71 1324.66 1102.83"/>
  <path class="cls-10" d="m1404.92,928.29c0-1.19.97-2.16,2.16-2.16s2.16.97,2.16,2.16-.97,2.16-2.16,2.16-2.16-.97-2.16-2.16Z"/>
  <path class="cls-10" d="m1470.21,945.47c0-1.19.97-2.16,2.16-2.16s2.16.97,2.16,2.16-.97,2.16-2.16,2.16-2.16-.97-2.16-2.16Z"/>
  <g>
    <polygon class="cls-5" points="1449.19 967.52 1453.65 968.49 1453.63 960.37 1448.7 959.3 1449.19 967.52"/>
    <polygon class="cls-5" points="1419.82 953.01 1409.01 950.66 1409.04 958.77 1417.69 960.66 1419.82 953.01"/>
    <polygon class="cls-5" points="1437.44 964.96 1435.21 956.36 1421.77 953.44 1419.65 961.08 1437.44 964.96"/>
    <polygon class="cls-5" points="1446.67 958.86 1444.59 958.41 1443.57 966.3 1447.16 967.08 1446.67 958.86"/>
  </g>
  <path class="cls-10" d="m1003.29,1192.27c0-1.19.97-2.16,2.16-2.16s2.16.97,2.16,2.16-.97,2.16-2.16,2.16-2.16-.97-2.16-2.16Z"/>
  <polygon class="cls-5" points="1904.66 1610.17 1790.96 1610.17 1794.6 988.18 1908.3 999.48 1904.66 1610.17"/>
  <polygon class="cls-4" points="1900.43 1021.72 1865.78 1017.42 1865.78 1612.36 1900.43 1612.36 1900.43 1021.72"/>
  <polygon class="cls-4" points="1853.69 1016.37 1803.56 1011.3 1803.56 1611.34 1853.69 1611.34 1853.69 1016.37"/>
  <polygon class="cls-5" points="1679.11 1610.41 1679.11 930.35 1672.92 928.36 1672.92 812.48 1665.41 810.49 1665.41 765.44 1660.99 763.45 1660.99 738.29 1589.67 719.73 1550.02 738.29 1550.02 763.45 1545.6 765.72 1545.6 810.49 1538.09 812.76 1538.09 928.36 1531.9 930.63 1531.9 1610.41 1679.11 1610.41"/>
  <polygon class="cls-8" points="1672.92 928.36 1672.92 812.48 1665.41 810.49 1665.41 765.44 1660.99 763.45 1660.99 738.29 1589.61 719.73 1589.61 746.31 1585.88 744.9 1585.88 793.35 1579.55 791.93 1579.55 918.03 1574.34 916.61 1574.34 1557.52 1679.11 1557.52 1679.11 930.35 1672.92 928.36"/>
  <polygon class="cls-5" points="1584.51 1375.02 1584.51 1610.76 1608.67 1611.02 1608.67 1399.41 1584.51 1375.02"/>
  <rect class="cls-4" x="1624.93" y="896.7" width="6.07" height="114.37" transform="translate(405.13 2390.84) rotate(-79.97)"/>
  <rect class="cls-4" x="1624.97" y="910.75" width="6.13" height="114.2" transform="translate(399.49 2409.35) rotate(-80.29)"/>
  <polygon class="cls-4" points="1572.63 747.53 1684.1 773.72 1685.48 767.88 1682.28 767.13 1683.88 760.78 1570.63 732.13 1567.94 742.8 1573.41 744.18 1572.63 747.53"/>
  <rect class="cls-4" x="1625.01" y="924.8" width="6.2" height="114.03" transform="translate(393.89 2427.99) rotate(-80.61)"/>
  <rect class="cls-4" x="1624.9" y="882.65" width="6" height="114.54" transform="translate(410.8 2372.46) rotate(-79.65)"/>
  <rect class="cls-4" x="1625.08" y="952.89" width="6.33" height="113.72" transform="translate(382.81 2465.66) rotate(-81.26)"/>
  <rect class="cls-4" x="1625.04" y="938.84" width="6.27" height="113.87" transform="translate(388.34 2446.76) rotate(-80.94)"/>
  <rect class="cls-4" x="1627.52" y="729.61" width="6" height="111.01" transform="translate(520.62 2214.49) rotate(-77.88)"/>
  <rect class="cls-4" x="1625.15" y="980.97" width="6.47" height="113.41" transform="translate(371.88 2503.83) rotate(-81.91)"/>
  <rect class="cls-4" x="1625.19" y="995.01" width="6.53" height="113.27" transform="translate(366.47 2523.12) rotate(-82.24)"/>
  <rect class="cls-4" x="1625.12" y="966.93" width="6.4" height="113.56" transform="translate(377.32 2484.68) rotate(-81.58)"/>
  <rect class="cls-4" x="1627.1" y="825.93" width="6" height="111.36" transform="translate(458.02 2317.11) rotate(-79.17)"/>
  <rect class="cls-4" x="1626.79" y="715.03" width="6" height="112.76" transform="translate(519.58 2192.23) rotate(-77.33)"/>
  <rect class="cls-4" x="1626.89" y="812.66" width="6" height="111.9" transform="translate(463.21 2300.35) rotate(-78.88)"/>
  <rect class="cls-4" x="1625.23" y="1009.05" width="6.6" height="113.12" transform="translate(361.11 2542.53) rotate(-82.56)"/>
  <rect class="cls-4" x="1627.31" y="839.19" width="6" height="110.83" transform="translate(452.81 2333.95) rotate(-79.47)"/>
  <rect class="cls-4" x="1626.68" y="799.4" width="6" height="112.44" transform="translate(468.92 2284.1) rotate(-78.6)"/>
  <rect class="cls-4" x="1626.05" y="759.6" width="6" height="114.07" transform="translate(485.28 2235.26) rotate(-77.75)"/>
  <rect class="cls-4" x="1623.55" y="743.1" width="11" height="114.07" transform="translate(501.48 2222.32) rotate(-77.75)"/>
  <rect class="cls-4" x="1626.47" y="786.13" width="6" height="112.98" transform="translate(473.91 2267.36) rotate(-78.3)"/>
  <rect class="cls-4" x="1626.26" y="772.86" width="6" height="113.53" transform="translate(479.82 2251.44) rotate(-78.03)"/>
  <rect class="cls-4" x="1627.52" y="852.45" width="6" height="110.29" transform="translate(447.45 2350.75) rotate(-79.76)"/>
  <rect class="cls-4" x="1625.85" y="1247.39" width="7.73" height="111.27" transform="translate(277.14 2891.87) rotate(-88.24)"/>
  <rect class="cls-4" x="1625.78" y="1219.38" width="7.6" height="111.44" transform="translate(286.23 2848.89) rotate(-87.56)"/>
  <rect class="cls-4" x="1625.81" y="1233.39" width="7.67" height="111.35" transform="translate(281.67 2870.33) rotate(-87.9)"/>
  <rect class="cls-4" x="1625.74" y="1205.37" width="7.53" height="111.52" transform="translate(290.89 2827.61) rotate(-87.22)"/>
  <rect class="cls-4" x="1625.7" y="1191.36" width="7.47" height="111.61" transform="translate(295.59 2806.44) rotate(-86.89)"/>
  <rect class="cls-4" x="1624.89" y="866.13" width="11" height="115.11" transform="translate(429.94 2362.52) rotate(-79.69)"/>
  <rect class="cls-4" x="1625.89" y="1261.4" width="7.8" height="111.2" transform="translate(272.67 2913.53) rotate(-88.57)"/>
  <rect class="cls-4" x="1625.67" y="1177.35" width="7.4" height="111.7" transform="translate(300.33 2785.39) rotate(-86.55)"/>
  <rect class="cls-4" x="1626" y="1303.39" width="8" height="111" transform="translate(259.59 2979.23) rotate(-89.59)"/>
  <rect class="cls-4" x="1625.96" y="1289.4" width="7.93" height="111.06" transform="translate(263.9 2957.21) rotate(-89.25)"/>
  <rect class="cls-4" x="1625.92" y="1275.4" width="7.87" height="111.13" transform="translate(268.25 2935.31) rotate(-88.91)"/>
  <rect class="cls-4" x="1625.37" y="1065.18" width="6.87" height="112.59" transform="translate(340.09 2621.45) rotate(-83.88)"/>
  <rect class="cls-4" x="1625.45" y="1093.23" width="7" height="112.35" transform="translate(329.86 2661.68) rotate(-84.54)"/>
  <rect class="cls-4" x="1625.26" y="1023.08" width="6.67" height="112.99" transform="translate(355.79 2562.07) rotate(-82.89)"/>
  <rect class="cls-4" x="1625.41" y="1079.21" width="6.93" height="112.47" transform="translate(334.95 2641.5) rotate(-84.21)"/>
  <rect class="cls-4" x="1625.34" y="1051.15" width="6.8" height="112.72" transform="translate(345.29 2601.54) rotate(-83.55)"/>
  <rect class="cls-4" x="1625.3" y="1037.12" width="6.73" height="112.85" transform="translate(350.52 2581.74) rotate(-83.22)"/>
  <rect class="cls-4" x="1625.48" y="1107.26" width="7.07" height="112.23" transform="translate(324.82 2681.99) rotate(-84.88)"/>
  <rect class="cls-4" x="1625.59" y="1149.32" width="7.27" height="111.9" transform="translate(309.96 2743.64) rotate(-85.88)"/>
  <rect class="cls-4" x="1625.56" y="1135.3" width="7.2" height="112.01" transform="translate(314.85 2722.96) rotate(-85.54)"/>
  <rect class="cls-4" x="1625.52" y="1121.28" width="7.13" height="112.12" transform="translate(319.81 2702.41) rotate(-85.21)"/>
  <rect class="cls-4" x="1625.63" y="1163.33" width="7.33" height="111.8" transform="translate(305.12 2764.45) rotate(-86.21)"/>
  <polygon class="cls-5" points="1694.1 1611.71 1694.1 968.03 1709.76 963.31 1709.76 937.34 1712.1 937.66 1712.1 924.32 1797.76 935.95 1797.76 949.95 1797.76 1611.21 1694.1 1611.71"/>
  <polygon class="cls-2" points="1712.1 935.99 1745.76 940.56 1745.76 1600.11 1752.1 1600.11 1752.1 941.75 1797.76 947.95 1797.76 935.95 1712.1 924.32 1712.1 935.99"/>
  <path class="cls-6" d="m1578.83,700.02v33.68c0,1.1-.9,2-2,2s-2-.9-2-2v-33.68c0-.74.4-1.38,1-1.72v-30.42c0-.55.45-1,1-1s1,.45,1,1v30.42c.59.35,1,.98,1,1.72Z"/>
  <polygon class="cls-3" points="1940.64 1465.7 1952.19 1486.28 1952.19 1368.32 1867.35 1368.32 1870.95 1370.35 1940.64 1370.65 1940.64 1465.7"/>
  <rect class="cls-4" y="1610.87" width="2680" height="399.13"/>
</svg>