<?xml version="1.0" encoding="UTF-8"?>
<svg id="_4_mountain_4_dark_blue" data-name="4_mountain 4_dark blue" xmlns="http://www.w3.org/2000/svg" viewBox="0 0 2680.14 2010">
  <defs>
    <style>
      .cls-1 {
        fill: #114f6e;
      }
    </style>
  </defs>
  <path class="cls-1" d="m0,1400.03l14.89.9c8.38.51,16.61,2.51,24.28,5.92l6.4,2.84,27-14,33-5,39,5,11,12,27-7h20c3,0,35,17,35,17l19,13,26-11h26c3,0,27,8,27,8l30,1,35-2,15,6,105.99,7,40-5,27,8,16,3,9-2,111.99-24,14,4,125.99,3,23,4,15,3,85-1,66-8,113.99,12,733.96,33,39-9,28-5,29-5s41-7,46-7,66-3,66-3l65,1,88,6,34,14,23,2,13,2,22-2,16,6,17-8s6-4,9-3,14,5,14,5c0,0,16-6,19-7s20,0,23,0,33,2,33,2l22-12,12-2,10,10s14,1,17,1,33-2,33-2l54,8,25-7,20.57,7v548.3l-2680-.22v-609.75Z"/>
</svg>