<?xml version="1.0" encoding="UTF-8"?>
<svg id="_5_mountain_3_mid_blue" data-name="5_mountain 3_mid blue" xmlns="http://www.w3.org/2000/svg" viewBox="0 0 2680.14 2010">
  <defs>
    <style>
      .cls-1 {
        fill: #4e6fe3;
      }
    </style>
  </defs>
  <path class="cls-1" d="m706.32,1186.37l-84.42,17.97-30.26,13.07-26.1-3.34-3.13,2.83-10.13.37-9.75-5.13v-1.03s-11.99-1.54-11.99-1.54l-8.09,7.32-10.13.37-32.54-1.76-4.16.12-42.26-1.57h-4.21s0,.28,0,.28l-27.32.09.02-.4h-2.62s-27.36.37-27.36.37l-18.74.66-10.12.37-9.73-5.2-3.8,1.39-19.31,7.09-9.49-2.14-18.04-4.07-52.56,3.27-20.71,3.27-27.08-1.63h-38.23L0,1236.31v769.38c67.71.45,2679.69,7.44,2679.69,2.64s0-272.6,0-288.24c0-52.94.7-105.94,0-158.87-.37-27.79,3.46-49.95-24.16-60.6-32.22-12.42-99.76,5.33-134.58,7.3-30.89,1.74-62.63,3.37-92-6.61-13.73-4.67-26.6-11.78-40.43-16.1-43.43-13.55-90.01,1.76-135.39.85-32.31-.64-65.06-9.53-96.51-1.96-20.32,4.89-38.56,16.35-58.49,22.7-53.56,17.05-110.53-4.44-166.17-11.61-37.54-4.84-75.61-3.07-113.28-6.78-59.32-5.85-117.31-25.52-168.35-57.09-10.75-6.65-21.78-14.03-34.31-15.03-13.23-1.05-26.14,5.24-39.41,4.94-23.66-.55-44.12-21.73-67.67-19.42-12.61,1.24-23.91,9.19-36.54,10.25-11.77.99-23.13-4.11-33.89-9.09-59.51-27.54-127.5-50.04-182.82-85.59-35.33-22.7-51.07-29.73-93.85-31.36l-47.78-4.9-38.23,1.63-97.16-24.51h-25.48l-11.15-1.63-31.86-14.7-117.87-31.04-25.49-4.9-15.93-3.27-7.96-9.8-36.63-6.53Z"/>
</svg>