<?xml version="1.0" encoding="UTF-8"?>
<svg id="_6_mountain_pale_blue" data-name="6_mountain_pale blue" xmlns="http://www.w3.org/2000/svg" viewBox="0 0 2680.14 2010">
  <defs>
    <style>
      .cls-1 {
        fill: #6586e9;
      }
    </style>
  </defs>
  <path class="cls-1" d="m2596.8,1289.13h-68.04l-52.03-2-52.03-32-56.04-2-58.04-12-76.05-6-50.03,2-66.04,4h-90.06l-104.07-24-120.08-26-100.06-16-122.08-34h-150.09l-46.03-16-60.04-6-64.04-10-40.02-20h-86.05l-24.02,18h-88.06l-68.04,16h-128.08l-60.04,2-100.06,26h-28.02c-28.02,0-78.05-8-78.05-8l-118.07-20s-132.08-40-140.09-40-74.05-8-74.05-8l-106.07,12-115.01,16H0v904.23l2680,2.64v-722.87l-83.2,2Z"/>
</svg>