<?xml version="1.0" encoding="UTF-8"?>
<svg id="_7_white_cap_mountain" data-name="7_white cap mountain" xmlns="http://www.w3.org/2000/svg" viewBox="0 0 2680.14 2010">
  <defs>
    <style>
      .cls-1 {
        fill: #f7f6f5;
      }

      .cls-2 {
        fill: #a1bdef;
      }
    </style>
  </defs>
  <polygon class="cls-2" points="2.03 956.34 0 2010 2677.39 2010 2680 948.05 2510.43 969.38 2316.54 925.55 2217.1 925.55 2008.48 841.38 1822.5 883.38 1735.35 843.49 1552.53 929.38 1288.89 892.61 1202.5 867.54 1052.14 907.79 861.54 956.34 678.03 1004.88 540.64 977.38 366.66 973.38 287.35 953.97 227.37 962.14 2.03 956.34"/>
  <g>
    <polygon class="cls-1" points="1015.22 963.6 1009.31 969.69 1013.47 972.91 1019.87 968.76 1024.65 962.37 1021.51 959.99 1015.22 963.6"/>
    <polygon class="cls-1" points="996.05 981.47 989.46 986.9 989.69 987.2 997.91 982.87 1003.97 977.13 1003.49 976.66 996.05 981.47"/>
    <polygon class="cls-1" points="866.38 1022.74 827.59 1042.98 827.64 1043.08 864.46 1026.59 878.46 1018.85 888.02 1014.53 888.39 1011.69 879.86 1013.39 866.38 1022.74"/>
    <polygon class="cls-1" points="1014.87 944.88 1025.74 939.6 1027.7 939.15 1026.78 934.67 1021.76 932.89 1006.78 941.39 1010.85 946.06 1014.87 944.88"/>
    <polygon class="cls-1" points="1991.47 977.33 1978.37 978.3 1964.92 978.51 1962.78 983.61 1977 987.4 1993.33 984.38 1991.47 977.33"/>
    <polygon class="cls-1" points="706.58 1027.82 699.26 1031.67 698.52 1037.43 705.03 1039.14 709.66 1036.62 711.6 1035.8 713.57 1035 713.84 1034.87 713.88 1034.85 716.94 1030.84 712.77 1026.67 706.58 1027.82"/>
    <polygon class="cls-1" points="315.21 958.16 288.32 948.56 275.78 950.6 151.38 955.79 59.39 949.79 0 944.93 0 975.43 33.39 967.79 89.39 973.79 123.39 977.79 153.38 973.79 227.37 961.79 258.54 968.17 277.44 957.18 289.23 961.77 312.46 968.14 336.39 975.34 357.06 979.48 357.96 977.27 340.31 967.25 315.21 958.16"/>
    <polygon class="cls-1" points="479.16 1029.81 491.02 1030.09 502.41 1029.53 504.23 1022.63 479.16 1022.52 479.16 1029.81"/>
    <polygon class="cls-1" points="685.61 1042.07 683.83 1043.04 684.36 1047.06 687.13 1046.86 687.55 1046.76 688.07 1046.67 688.63 1046.63 691.23 1044.03 688.63 1041.43 685.61 1042.07"/>
    <polygon class="cls-1" points="464.45 1030.68 460.09 1035.03 464.45 1039.39 467.35 1038.26 469.04 1035.06 467.98 1032.49 464.45 1030.68"/>
    <polygon class="cls-1" points="631.66 1062.66 631.03 1062.91 629.01 1063.1 625.21 1064.6 626.63 1069.85 630.99 1070.05 631.81 1070.24 632.01 1070.29 634.91 1069.91 637.01 1068 636.4 1063.27 631.66 1062.66"/>
    <polygon class="cls-1" points="626.95 1046.26 623.55 1045.24 622.6 1043.95 615.44 1044.88 615.36 1045.05 604.56 1049.13 606.71 1056.93 608.41 1056.55 611.54 1062.29 629.13 1054.53 626.95 1046.26"/>
    <polygon class="cls-1" points="1997.67 991.63 1978.8 994.8 1978.8 997.6 1997.23 996.77 2007.81 995.06 2013.43 992.43 2012.91 990.45 1997.67 991.63"/>
    <polygon class="cls-1" points="2214.3 954.46 2214.3 956.94 2231.47 959.38 2246.46 957.52 2246.46 953.89 2231.47 952.02 2214.3 954.46"/>
    <polygon class="cls-1" points="2191.85 985.85 2159.76 971.16 2158.12 972.81 2189.45 994.55 2191.85 985.85"/>
    <polygon class="cls-1" points="2220.43 1013.99 2220.65 1014.5 2243.69 1010.21 2242.59 1006.2 2220.43 1013.99"/>
    <polygon class="cls-1" points="2253.48 1012.12 2253.34 1013.22 2264.24 1016.39 2276.14 1020.83 2276.68 1019.88 2266.66 1013.14 2253.48 1012.12"/>
    <polygon class="cls-1" points="2292.32 1024.05 2290.93 1025.18 2290.86 1025.2 2290.86 1027.2 2290.92 1027.22 2291.79 1028.12 2293.96 1028.46 2296.88 1028.57 2296.88 1023.83 2293.96 1023.94 2292.32 1024.05"/>
    <polygon class="cls-1" points="2014.79 1000.04 2014.79 1001.36 2036.45 1004.71 2057.17 1009.08 2058.01 1007.97 2039.92 999.76 2014.79 1000.04"/>
    <polygon class="cls-1" points="2080.18 1019.58 2067.93 1014.75 2066.97 1016.4 2077.92 1023.43 2083.27 1025.16 2090.11 1027.88 2090.3 1027.56 2084.48 1023.06 2080.18 1019.58"/>
    <polygon class="cls-1" points="2107.72 1027.79 2105.05 1028.78 2105.05 1029.62 2106.58 1030.27 2110.08 1031.12 2116.35 1031.88 2116.98 1030.34 2111.4 1027.7 2107.72 1027.79"/>
    <polygon class="cls-1" points="2130.48 1032.36 2129.16 1032.28 2129.16 1035.12 2130.48 1035.04 2131.34 1034.72 2132.52 1034.31 2132.52 1033.09 2131.34 1032.68 2130.48 1032.36"/>
    <polygon class="cls-1" points="2171.71 999.31 2206.28 1011.58 2208.35 1004.07 2172.65 995.84 2171.71 999.31"/>
    <path class="cls-1" d="m2480.45,945.03l-73.99-10-99.99-22-55.99-10-42,2-49.99-20-149.98-44h-99.99l-123.99-38-48,2-87.99,46-48,16-77.99-2h-71.99l-71.99,16-55.99-10-107.99-26-44,20-121.99,34-107.99,16-61.99,32-109.99,32-91.99,12-135.99-14-77.99-24-63.99,8-62.24-10.38-15.75,4.38,46,18,81.99,24,24-8,8,26,65.99-4,18,16,32,22,55.99-26,48-14,36-8-14,24,32-10,48-30,26,30,16-54,75.99-10,1.54.09-8.21,8.25-15.37,19.63.08.08,18.88-16.12,12.47-11.4,9.01.5-3.2,2.63-28.18,26.36v1.93s-6.61,10.43-6.61,10.43l-4.37,6.52-1.35,6.02.32.42,6.65-.83,2.72-2.14,5.19.19,17.42-20.23.73-2.41,6.65-3.6,19.69-13.86,19.34-16.03,5.53-5.89,21.08-10.54,51.99-6-7.68,14.26-.72-.45-11.9,3.38-12.21,4.24-1.48,2.57.1,1,2.11,2.77.84.11,1.31,1.95,1.02,1.08.12.05,2.44,2.08,1.23.38,3.68,1.72,22.18-16.5,3.01-3.93,29.94-18.71,20-12,55.99-12h38l-69.99,54-8,36-24,18,38-18,18-24,36-18,40-4,4,14,42-4,46-30,18,2,42,4,30,26,8,36,28-22,28-18,10-20,28-8,2,18,36-10,40,4-18,48,46-34,34-20,51.99-34,49.99-14-2,28,22-22,16-6,30,4,44,28,46,16,20,14,14,22s28,4,36,8-18-18-18-18l-14-32-22-22-10-10,48,4,34,24,36,6,99.99,26,32,16,26,18-26-32s-26-18-32-18-26-16-26-16l32-4,55.99,14,29.72,9.01-8.23.83-14.8-.1-2.76-2.16-31.91-7.43-32.04-7.11-1.14,1.97,27.68,12.98,34.87,8.77,4.71-1.37,25.79,1.09,16.55-.18,6.38,2.02,6.32,3.08,2.2-2.2,2.63.8,48-4,40,20,67.99,8,34-8,55.99,6,34,4,30-4,73.99-12h31.57v-18l-107.56,12-91.99-6Zm-1549.62,22.94l-3.83,2.41,4.41-3.35-.58.94Zm19.78-14.84l.2-.42.3.02-.08.07-.42.34Z"/>
  </g>
</svg>