<?xml version="1.0" encoding="UTF-8"?>
<svg id="_8_Sky" data-name="8_Sky" xmlns="http://www.w3.org/2000/svg" viewBox="0 0 2680.14 2010">
  <defs>
    <style>
      .cls-1 {
        fill: #ffe1d1;
      }

      .cls-2 {
        fill: #91cadb;
      }

      .cls-3 {
        fill: #afd8e5;
      }

      .cls-4 {
        fill: #c8d5d6;
      }

      .cls-5 {
        fill: #70b8cf;
      }
    </style>
  </defs>
  <path class="cls-3" d="m2680,2010c-24.04,0-2680-3.86-2680-3.86V0h2680v2010Z"/>
  <polygon class="cls-5" points="2680 485.39 0 641.44 0 0 2679.99 0 2679.99 485.39 2680 485.39"/>
  <path class="cls-2" d="m2680,429.73s-1641.88,127.98-1934.61,148.39C452.66,598.52.57,608.78.57,608.78v100.85l711.09-19.15-678.94,32.85-32.72-.04v40.12l526.16-20.35,2049.13,2.2L10.42,861.33v19.28s684.46-53.26,985.4-76.78c300.94-23.51,1684.18-47.52,1684.18-47.52v-66.76c-234.17,49.94-1906.25,34.76-1906.25,34.76,0,0,1682.77-89.57,1906.25-72.44v-42.84l-1728.27,32.83,1728.27-73.07v-38.57l-2274.91,124.37,2274.91-147.15v-77.7h0Z"/>
  <path class="cls-2" d="m2680,410.79L0,560.39v19.29s757.41-66.54,989.36-89.53c231.96-22.99,1690.64-60.07,1690.64-60.07v-19.29h0Z"/>
  <g>
    <path class="cls-1" d="m201.88,693.69c0-81.31,65.91-147.22,147.21-147.22s147.21,65.91,147.21,147.22-65.91,147.21-147.21,147.21-147.21-65.91-147.21-147.21h0Z"/>
    <path class="cls-4" d="m471.45,611.81c-40.87,3.86-77.95,6.84-107.67,8.38-55.48,2.87-104.9,5.25-146.14,7.16-3.53,6.99-6.53,14.29-8.92,21.87l271.64-22.24c-2.67-5.25-5.65-10.31-8.91-15.17h0Z"/>
    <path class="cls-4" d="m482.22,630.78l-273.66,18.94c-2.23,7.15-3.93,14.53-5.06,22.1l141.15-4.39-141.64,7.95c-.66,5.33-1.03,10.76-1.11,16.25l37.49-2.09,256.86.38c-.06-2.47-.19-4.93-.37-7.37-68.26-.15-116.01-.89-116.01-.89,0,0,47.26-4.24,114.84-9.6-1.28-8.7-3.32-17.16-6.06-25.3l-7.8.24,7.71-.53c-.16-.48-.33-.96-.49-1.43-1.71-4.87-3.67-9.62-5.85-14.24h0Z"/>
    <path class="cls-4" d="m448.98,585.56l-214.76,16.07c-1.46,1.82-2.88,3.68-4.26,5.58,70.55-6.56,154.42-14.17,221.12-19.67-.69-.67-1.39-1.32-2.1-1.97h0Z"/>
    <path class="cls-4" d="m494.95,713.71l-288.11,17.99c.46,1.73.95,3.45,1.47,5.16,83.37-6.9,194.75-15.64,286.35-21.12.1-.67.19-1.35.28-2.03h0Z"/>
  </g>
</svg>